<?xml version="1.0" standalone="no"?>
<!DOCTYPE svg PUBLIC "-//W3C//DTD SVG 1.1//EN" "http://www.w3.org/Graphics/SVG/1.1/DTD/svg11.dtd" >
<svg xmlns="http://www.w3.org/2000/svg" width="100%" height="100%">
<metadata>
Created by FontXChange 20100429 at Mon Jan  5 15:51:19 2015
 By luis
Converted by ALLTYPE
</metadata>
<defs>
<font id="AmericanTypewriterLight" horiz-adv-x="452" >
  <font-face 
    font-family="AmericanTypewriterLight"
    font-weight="400"
    font-stretch="normal"
    units-per-em="1000"
    panose-1="0 0 4 0 0 0 0 0 0 0"
    ascent="800"
    descent="-200"
    x-height="470"
    cap-height="631"
    bbox="-111 -190 1123 838"
    underline-thickness="50"
    underline-position="-55"
    unicode-range="U+0020-F002"
  />
<missing-glyph horiz-adv-x="500" 
d="M63 0v815h375v-815h-375zM125 63h250v690h-250v-690z" />
    <glyph glyph-name=".notdef" horiz-adv-x="500" 
d="M63 0v815h375v-815h-375zM125 63h250v690h-250v-690z" />
    <glyph glyph-name=".null" horiz-adv-x="0" 
 />
    <glyph glyph-name="glyph2" 
 />
    <glyph glyph-name="space" unicode=" " 
 />
    <glyph glyph-name="exclam" unicode="!" horiz-adv-x="309" 
d="M80 59q0 24 16.5 39.5t40.5 15.5h3q23 0 38.5 -16.5t15.5 -39.5q0 -26 -14 -43q-15 -20 -40 -20h-3q-57 0 -57 63v1zM101 172l-7 444q0 31 43 31t42 -32l-7 -443q0 -24 -30 -27h-9q-26 5 -32 26v1z" />
    <glyph glyph-name="quotedbl" unicode="&#x22;" horiz-adv-x="611" 
d="M194 623q0 26 28 26h5q25 -6 25 -27v-235q0 -19 -25 -22h-5q-28 0 -28 21v237zM345 623q0 26 28 26t28 -27v-235q0 -22 -28 -22t-28 21v237z" />
    <glyph glyph-name="numbersign" unicode="#" horiz-adv-x="668" 
d="M130 245l49 142h-120q-25 0 -25 21v4q0 1 1 3q8 28 24 28l142 1l65 165q7 19 34 19h2q1 0 2 -1q12 -3 12 -15v-10l-57 -158h135l60 153q0 1 1 2q14 25 41 25h2q1 0 2 -1q12 -3 12 -17v-5q0 -4 -1 -8v-3q-1 -2 -1 -3l-57 -143h99q26 0 29 -21v-8q-8 -29 -36 -29l-115 1
l-50 -142h123q23 0 29 -20q1 -2 1 -3v-6q-6 -30 -45 -30l-129 1l-64 -171q-2 -11 -20 -16h-16q-17 6 -17 19l1 2q0 1 1 2v4q1 1 1 2l57 158h-137l-64 -164q-3 -15 -21 -23q-2 0 -6.5 -1t-6.5 -1h-2q-2 1 -3 1q-14 2 -14 21q0 2 1 4l1 4v1h1v4q1 2 1 3l56 151h-106
q-17 -2 -17 16q0 9 3 14q9 27 28 27zM323 245l50 142h-135l-51 -142h136z" />
    <glyph glyph-name="dollar" unicode="$" horiz-adv-x="611" 
d="M281 295q-96 14 -140 41q-63 39 -63 121q0 3 1 7v8q0 74 57 122q52 44 128 49q4 1 9 1h8v88q0 25 28 25t28 -26v-86h11q35 0 76.5 -17.5t68.5 -42.5q38 -35 38 -76q0 -73 -52 -73h-6q-2 0 -4 1q-17 2 -31.5 14t-14.5 28t21 37q-5 33 -41 50q-29 14 -66 14v-221l48 -10
q175 -36 175 -178v-20q-4 -34 -30 -74q-65 -99 -193 -104v-78q0 -32 -28 -32t-28 32v78h-20q-80 0 -145 49q-72 53 -72 130q0 27 15.5 52t39.5 35q14 3 18 3h5q20 -2 37.5 -17.5t19.5 -34.5v-3q0 -37 -56 -44q0 -46 59 -76q48 -24 99 -24v252zM337 44q63 -2 100 35
q37 45 37 85q0 54 -43 85q-37 27 -94 31v-236zM281 581q-75 -14 -102 -44q-28 -18 -28 -64q0 -48 43 -75q34 -22 87 -26v209z" />
    <glyph glyph-name="percent" unicode="%" horiz-adv-x="789" 
d="M169 2l394 636q7 7 24 9h6q20 0 20 -9v0l-395 -643q-2 -5 -19 -8q-2 -1 -6 -1h-11q-17 6 -17 10h1l1 2q0 1 1 1l1 2v1zM440 201q0 73 43 127q46 58 117 58h6q74 0 118 -62q40 -55 40 -131v-8q0 -78 -38 -134q-43 -65 -118 -65h-14q-72 0 -116 64q-39 56 -39 132v4
q0 2 1 5v10zM499 194q0 -4 -1 -11.5t-1 -11.5q0 -54 24 -92q27 -43 78 -50q5 0 22 3q44 14 67 62q19 40 19 92q0 53 -20 94q-27 56 -72 56h-13q-5 -1 -7 -1q-44 -9 -70 -54q-22 -38 -26 -88v1zM12 467q0 68 42 120t108 57h9l12 1q79 -1 124 -64q41 -56 41 -138
q0 -76 -41 -136q-46 -68 -119 -68h-18q-72 0 -120 71q-39 58 -39 138v8q0 1 1 1v10zM76 447q-1 -3 -1 -6v-5q0 -57 22 -98q27 -51 79 -51q6 0 15 2q48 10 73 63q20 42 20 98q0 54 -23 95q-28 51 -77 51h-12q-47 0 -74 -47q-22 -40 -22 -90v-12z" />
    <glyph glyph-name="ampersand" unicode="&#x26;" horiz-adv-x="789" 
d="M419 80q-60 -84 -179 -84h-6q-82 0 -135 53t-53 135q1 5 2 7q7 49 10 62q9 26 34 54q44 48 112 79q-46 71 -46 128v11q0 62 40 95q37 31 100 31t102 -26q46 -30 46 -90q0 -61 -52 -116q-35 -37 -88 -54l113 -164q16 47 43 116q66 167 179 170q52 1 90 -24q42 -27 47 -77
v-5q0 -3 1 -6v-4q0 -2 1 -6v-7q0 -51 -35.5 -83.5t-87.5 -32.5q-49 0 -69 34l-12 37h-1q0 30 33 38q2 0 5 1h10q29 -3 29 -23q0 -10 -4 -14q5 0 9 -4q11 -3 13 -3q15 0 23.5 15t8.5 31q0 11 -2 18q-10 36 -37 43q-1 0 -4 1h-20q-45 0 -77 -53q-15 -25 -39 -93q-2 -3 -3 -6
l-2 -6q-25 -75 -54 -115q30 -30 45 -42q29 -23 53 -28q9 -3 26 -3q8 0 23 1t23 1q54 0 59 -29q1 -1 1 -2v-6q-5 -34 -67 -34h-9q-6 -1 -9 -1v0h-21q-55 0 -92.5 18t-76.5 61v1zM369 130l-127 193q-78 -30 -109 -93q-2 -9 -7 -26l-2 -14q-1 -7 -1 -13v-8q0 -49 60 -89
q26 -17 57 -17q65 0 129 66v1zM277 423q38 9 62.5 36.5t24.5 65.5q0 45 -37 62q-3 0 -9.5 1t-9.5 1h-4q-66 0 -66 -59q0 -38 39 -108v1z" />
    <glyph glyph-name="quotesingle" unicode="'" horiz-adv-x="309" 
d="M101 401q57 67 57 108q0 16 -19 16h-5q-4 -1 -6 -1h-5q-2 -1 -4 -1h-9q-3 1 -5 1q-25 8 -32 35q0 2 -1.5 5.5t-1.5 4.5v1l-2 8q-1 4 -1 7q0 25 18 43t44 22q6 1 15 1q11 0 22 -5q51 -23 51 -93v-14q0 -64 -66 -153q-11 -18 -27 -18h-2q-1 0 -3 1q-15 3 -20 19q-1 1 -1 2
v4q0 6 3 6v1z" />
    <glyph glyph-name="parenleft" unicode="(" horiz-adv-x="430" 
d="M320 616q33 10 57 10q14 0 16 -7h1v-2q0 -9 -62 -46q-19 -11 -73 -46q-133 -92 -133 -252v-5q0 -3 -1 -5v-9q-1 -4 -1 -6q0 -174 185 -298l76 -42h1l2 -2q1 -2 3 -5v-4q-3 -11 -22 -11q-18 0 -42 9q-120 45 -191 137q-76 97 -76 221v16q1 10 1 15q10 111 83 201
q69 85 176 130v1z" />
    <glyph glyph-name="parenright" unicode=")" horiz-adv-x="430" 
d="M34 595q-11 2 -18 11q-2 2 -2 6q0 2 2 4q8 5 18 5q18 0 35 -6q119 -42 194 -129q83 -96 83 -215v-11q0 -137 -82.5 -242t-215.5 -137h-9q-16 0 -16 14q0 11 18 22q179 77 225 240q11 39 11 64v29q0 211 -240 342l-1 2h-2v1z" />
    <glyph glyph-name="asterisk" unicode="*" horiz-adv-x="448" 
d="M185 474l-114 43q-11 0 -14 15v3q0 15 13 30q7 8 19 8q13 0 25 -7l85 -70l-14 113q0 35 32 35h3q30 -3 30 -29l-21 -119l78 71l18 9q8 2 14 2q32 0 32 -28q0 -8 -6 -18q-12 -14 -36 -23l-93 -35l114 -37q17 -6 22 -23q0 -2 1 -5v-5q0 -13 -10.5 -25t-23.5 -12
q-11 0 -25 12l-85 72l21 -114v-7q0 -25 -28 -33q-2 -1 -3 -1h-8q-3 1 -4 1q-24 8 -24 32v2l1 1v1q0 1 1 2v1l14 115l-85 -71q-13 -13 -29 -13q-11 0 -20 9.5t-10 20.5v7q0 1 1 2q2 23 29 30z" />
    <glyph glyph-name="plus" unicode="+" horiz-adv-x="569" 
d="M238 222h-194v73h194v193h78v-193h194v-73h-194v-199h-78v199z" />
    <glyph glyph-name="comma" unicode="," horiz-adv-x="309" 
d="M94 -140q57 74 57 106q0 18 -20 18h-27q-4 0 -6 1q-25 5 -32 30q0 2 -1 4.5t-1 4.5q-4 10 -4 18q0 24 18.5 42t43.5 22q6 1 15 1q11 0 22 -5q51 -23 51 -92v-15q0 -15 -8 -41q-13 -32 -46 -94q-2 -3 -12 -15q-10 -16 -27 -16h-2q-1 0 -3 1q-15 3 -20 19q-1 1 -1 2v2l1 1
q-1 2 2 6z" />
    <glyph glyph-name="hyphen" unicode="-" horiz-adv-x="309" 
d="M66 288h165q26 0 32 -34v-8q0 -32 -32 -32l-165 1q-31 0 -36 28v10q1 3 1 5q8 29 35 29v1z" />
    <glyph glyph-name="hyphen" unicode="&#x2010;" horiz-adv-x="309" 
d="M66 288h165q26 0 32 -34v-8q0 -32 -32 -32l-165 1q-31 0 -36 28v10q1 3 1 5q8 29 35 29v1z" />
    <glyph glyph-name="period" unicode="." horiz-adv-x="309" 
d="M80 59q0 48 57 48h4q51 0 60 -49v-6q0 -51 -57 -56h-8q-56 0 -56 62v1z" />
    <glyph glyph-name="slash" unicode="/" horiz-adv-x="490" 
d="M334 673q6 11 27 19q3 0 6 1h9q22 -3 22 -17v-3l-272 -721q-2 -18 -30 -21h-11q-2 0 -4 1q-16 0 -25 7q-3 1 -3 4l2 2z" />
    <glyph glyph-name="zero" unicode="0" horiz-adv-x="611" 
d="M44 316q0 40 7 82q1 6 15 68q18 80 83 133.5t147 53.5h18q5 0 10 -1q128 -12 193 -129q43 -78 43 -197v-14q0 -125 -63 -218q-72 -106 -191 -106q-262 0 -262 327v1zM130 316q0 -97 33 -169q43 -93 129 -93h11q44 0 84 30.5t57 72.5q28 71 28 150v29q0 92 -37 160
q-46 84 -129 84q-28 0 -54 -7q-87 -24 -112 -171q-4 -22 -10 -87v1z" />
    <glyph glyph-name="one" unicode="1" horiz-adv-x="611" 
d="M259 531q0 31 -42 31h-11q-7 -1 -11 -1h-1q-1 0 -1 -1h-12q-8 -1 -12 -1q-32 0 -32 28q0 37 41 37q17 0 28 -3h7q4 -1 6 -1q25 -5 33 -5q9 0 28 7q2 0 5 1t5 1q12 4 23 4q32 0 32 -41v-486q0 -47 37 -47q6 0 13 1l14 2q4 0 13 1t13 1q32 0 32 -30q0 -36 -64 -36h-12
q-5 0 -73 7q-10 1 -16 1q-27 0 -54 -5q-2 0 -7 -1h-7q-24 -4 -46 -4q-51 0 -51 31q0 37 37 37h11q7 -1 11 -1q10 -2 21 -2q42 0 42 44v431z" />
    <glyph glyph-name="two" unicode="2" horiz-adv-x="611" 
d="M123 115q36 42 108 42q53 -6 124 -62q49 -39 93 -39l2 1h5q2 1 3 1h2q33 0 42 64q1 3 1 8v6l-6 -4q-21 -14 -37 -14q-17 0 -28 13t-11 30v6q1 3 1 5q11 41 59 42q41 1 66 -41q14 -24 14 -52v-17q0 -63 -59 -101q-25 -16 -49 -20q-3 0 -9 -1h-9q-51 0 -97 32
q-20 15 -61 43q-35 23 -68 28q-7 1 -19 1q-46 0 -60 -28q28 -7 34 -29q1 -2 1 -3v-4q0 -6 -2 -10q-11 -32 -48 -32q-36 0 -56 38q-16 30 -16 70v6q0 2 1 4v9q26 152 249 211q26 7 74 27q88 37 88 107v6q0 2 -1 5q-6 52 -50 86q-41 31 -95 31l-7 1q-86 -5 -131 -50
q-18 -18 -18 -33t19 -18q30 -5 30 -35q0 -21 -23 -45q-13 -14 -29 -18h-5q-4 -1 -6 -1q-30 0 -56 30q-19 22 -19 46q1 5 2 7v2q9 88 84 136q65 42 159 42q184 0 222 -136q7 -25 7 -54q0 -41 -14 -75q-30 -51 -85 -80q-86 -45 -209 -75q-107 -51 -107 -110v1z" />
    <glyph glyph-name="three" unicode="3" horiz-adv-x="611" 
d="M416 552h-229q-41 0 -41 -52v-42q0 -50 -38 -50q-22 0 -27 24q-1 5 -1 41v115q0 30 18 38q9 4 46 4l352 1q16 0 26.5 -12.5t10.5 -28.5q0 -4 -3 -18q-6 -14 -13 -21l-172 -164q8 -2 16 -2q69 -7 100 -23q39 -20 70 -75q23 -41 23 -89v-9q0 -92 -81 -152q-73 -55 -169 -55
q-105 0 -192 56q-28 18 -43 49q-3 10 -20 61v5q-1 4 -1 6q0 44 34 83q18 21 53 23l16 1q44 -12 44 -50v-4q0 -3 -1 -5q-10 -45 -52 -45q-7 1 -9 2h-3q0 -58 53 -89q43 -26 105 -26h12q72 0 120.5 40t48.5 111q0 56 -37.5 88t-94.5 32q-30 0 -37.5 -1.5t-18.5 -3.5h-2
q-2 -1 -3 -1h-2q-2 0 -3 -1q-20 -3 -24 -3q-27 0 -30 20v7q1 3 1 5q2 8 8 16q2 4 5 7z" />
    <glyph glyph-name="four" unicode="4" horiz-adv-x="611" 
d="M345 187h-258q-5 -1 -12 0t-16 2q-38 11 -38 34q0 10 9 24q1 3 7 11l259 345q41 41 82 41q45 0 45 -64v-321h87q46 0 46 -35v-3q0 -35 -39 -35l-94 1v-86q0 -44 46 -43l39 1q1 -1 2 -1h1q41 0 41 -29v-8q0 -30 -37 -30q-19 0 -52 4q-38 5 -52 6h-13l-18 1q-15 -1 -45 -5
q-8 0 -31 -3q-5 0 -15 -1h-15q-66 0 -66 36q3 29 41 29h10q7 -1 10 -1h3q5 -1 10 -1h8q55 0 55 51v80zM345 259v293l-230 -293h230z" />
    <glyph glyph-name="five" unicode="5" horiz-adv-x="611" 
d="M158 373q59 51 163 51q94 0 165 -62q59 -52 59 -168v-7q0 -92 -69 -140q-88 -61 -197 -61q-115 0 -164 50q-62 63 -62 114q0 31 22 55.5t53 24.5l9 1q38 -8 49 -50q1 -2 1 -4v-7q0 -39 -50 -41q8 -38 59 -61q42 -19 87 -19h3q109 0 158 77q27 42 27 90q0 14 -5 39
q-31 101 -152 101h-4q-34 0 -75 -12q-49 -14 -63 -36q-5 -8 -8 -10q-20 -24 -47 -24q-16 0 -24 17q-7 14 -6 31l21 273q3 35 43 35l293 1q46 0 46 -37v-7q0 -4 -1 -8v-11q-1 -6 -1 -9q0 -13 6 -33q0 -2 1 -6.5t1 -6.5q3 -20 3 -26v-5q-3 -25 -25 -25q-1 0 -2 1h-3q-1 1 -2 1
q-28 4 -33 50q-3 26 -9 35q-8 15 -31 15l-179 1q-43 0 -43 -44z" />
    <glyph glyph-name="six" unicode="6" horiz-adv-x="611" 
d="M130 330q60 78 155 91q12 3 35 3q98 0 165 -63.5t67 -160.5v-28q-9 -88 -83 -140q-67 -48 -159 -48h-3q-132 0 -199 90q-60 80 -60 216q0 142 68 241q78 113 214 113q34 0 67 -10q120 -36 120 -132q0 -51 -50 -59h-10q-20 0 -36 12.5t-16 31.5q0 17 19 42q2 4 6 8
q-24 45 -98 45q-86 0 -149 -84q-43 -57 -53 -169v1zM144 187q5 -64 50 -104t109 -40h12q67 0 109.5 44.5t42.5 112.5q0 63 -43 107t-106 44h-19q-67 0 -112 -46t-45 -114v-1q0 -1 2 -4v1z" />
    <glyph glyph-name="seven" unicode="7" horiz-adv-x="611" 
d="M488 510q-26 -30 -87 -30h-11q-4 0 -8 1q-57 2 -87 35q-46 51 -100 51q-58 0 -58 -80q0 -8 3.5 -24t3.5 -24q5 -28 5 -40q0 -36 -34 -36q-1 1 -3 1v0h-1l-1 1h-2q-32 0 -32 41q0 11 2 25v6q2 6 2 14v8q0 15 1 45.5t1 45.5v21q0 9 -2 16q0 3 -2 7q-3 14 -3 18q0 35 32 35
h4q3 -1 4 -1q24 -8 24 -36v-4q-1 -3 -1 -4v0v-1q-1 -2 -1 -3v-4q48 50 90 50q30 0 71 -27l65 -45q44 -29 76 -29q35 0 49 23q-40 0 -40 33q0 6 2 10q7 32 46 35l14 1q44 -11 44 -86v-12q-1 -8 -1 -12q-7 -52 -22 -76q-21 -34 -93 -98q-65 -60 -89 -107q-29 -58 -29 -147
q0 -11 2 -23v-8q0 -4 1 -8v-18q0 -53 -46 -61q-2 -1 -3 -1h-9q-43 8 -43 70q0 117 39 199t130 155q68 55 97 97v1z" />
    <glyph glyph-name="eight" unicode="8" horiz-adv-x="611" 
d="M187 366q-42 10 -68.5 44t-26.5 77q0 80 71 128q62 42 146 43q80 1 143 -44q70 -49 70 -127v-5q0 -82 -99 -117q55 -23 93 -66q44 -49 44 -103v-9q0 -94 -85 -150q-74 -49 -173 -49q-95 0 -165 47q-84 56 -84 143v21q0 56 41 103q37 43 93 63v1zM137 194q0 -68 50 -107
q45 -36 115 -36h11q7 1 11 1q62 7 100 39q43 36 43 95v6q0 65 -47 100q-42 32 -109 32h-11q-60 0 -109 -35q-54 -38 -54 -96v1zM179 490q-1 -2 -1 -3v-3q0 -41 38 -64q32 -20 75 -20h11q50 0 86 22q42 26 42 73q0 70 -115 86q-3 1 -7 1h-11q-46 0 -79 -20q-39 -24 -39 -67
v-5z" />
    <glyph glyph-name="nine" unicode="9" horiz-adv-x="611" 
d="M460 302q-19 -44 -79 -72q-53 -25 -107 -25h-4q-132 0 -191 117q-26 52 -26 102q0 98 73 166q70 66 169 66q80 0 149 -55q92 -73 92 -225v-42q0 -26 -5 -70q-24 -212 -168 -260q-51 -17 -104 -16q-151 3 -183 96q-5 14 -5 30q0 28 16.5 50t43.5 22l6 1q42 -9 47 -43
q1 -1 1 -2v-4q0 -29 -34 -45q35 -48 114 -48q25 0 44 5q77 20 117 98q34 65 34 153v1zM144 437q0 -3 -1 -7.5t-1 -7.5q-2 -8 -2 -13q0 -60 40 -97t101 -39q70 -3 113 41t43 115q0 65 -38 109t-102 44h-9q-63 0 -103.5 -41.5t-40.5 -104.5v1z" />
    <glyph glyph-name="colon" unicode=":" horiz-adv-x="309" 
d="M80 59q0 48 57 48h4q51 0 60 -49v-6q0 -51 -57 -56h-8q-56 0 -56 62v1zM80 366q0 49 57 49h4q50 0 60 -50v-6q0 -24 -16.5 -41t-40.5 -17h-8q-25 0 -40.5 19t-15.5 45v1z" />
    <glyph glyph-name="semicolon" unicode=";" horiz-adv-x="309" 
d="M101 -133q57 74 57 106q0 18 -19 18h-28q-3 0 -6 1q-26 5 -32 30q0 2 -1 4.5t-1 4.5q-4 10 -4 18q0 24 18.5 42t43.5 22q6 1 15 1q11 0 22 -5q51 -23 51 -92v-9q0 -6 -1 -10v-5q0 -3 -1 -5q-8 -46 -39 -99q-8 -14 -25 -36q-6 -12 -18 -14q-4 -2 -9 -2h-2q-1 0 -3 1
q-18 3 -21 19v3l1 1q-1 2 2 6zM73 373q0 49 57 49h4q51 0 60 -50v-6q0 -25 -17.5 -41.5t-42.5 -16.5h-8q-53 5 -53 64v1z" />
    <glyph glyph-name="less" unicode="&#x3c;" horiz-adv-x="569" 
d="M130 252l373 -172v-71l-466 206v66l466 215v-73z" />
    <glyph glyph-name="equal" unicode="=" horiz-adv-x="569" 
d="M37 194h466v-71h-466v71zM37 373h466v-71h-466v71z" />
    <glyph glyph-name="greater" unicode="&#x3e;" horiz-adv-x="569" 
d="M409 252l-379 171v73l473 -215v-59l-473 -213v71z" />
    <glyph glyph-name="question" unicode="?" horiz-adv-x="569" 
d="M179 59q0 24 17.5 39.5t41.5 15.5h3q23 0 38.5 -16.5t15.5 -39.5v-6q0 -48 -50 -56h-11q-2 0 -3 1q-52 5 -52 61v1zM123 437q0 29 30 37q2 0 5 1h8q42 0 42 -46q0 -30 -23 -48t-54 -18t-65 23q-32 28 -32 75q0 7 3 29q5 18 15 47q59 110 206 110h17q88 0 151 -42
q73 -48 73 -132q0 -97 -76 -144q-19 -12 -41 -22q-2 -1 -25 -11q-91 -41 -91 -96v-17q0 -35 -35 -35q-1 0 -4 1h-5q-2 1 -3 1h-7q-20 6 -20 46q0 39 23.5 76t58.5 57l7 4l65 38q77 46 77 109q0 52 -56 81q-45 24 -102 24t-89 -16l-12 -6q-61 -42 -61 -92q0 -21 20 -35v1z
" />
    <glyph glyph-name="at" unicode="@" horiz-adv-x="668" 
d="M380 179q-31 -49 -119 -49q-66 0 -92 48q-16 30 -16 66q0 38 15 83q16 49 40 73q70 89 160 89q14 0 80 -8q8 -1 5 -1q4 0 18 3q3 0 5 2q24 4 21 4q13 0 13 -19v-19l-66 -233q0 -2 -1 -4h-1v-1l-1 -4q-1 -2 -1 -4q0 -21 18 -21q24 0 56 31q27 26 40 53q11 23 22 69
q5 38 5 56q0 71 -43 127q-14 18 -28 31q-42 39 -126 39q-28 0 -61 -7q-103 -22 -158 -103q-80 -118 -80 -211q0 -62 34.5 -121t89.5 -84q49 -22 86 -22h28q6 0 10 1q58 6 103 29q81 42 92 42h5q21 0 21 -17v-3q0 -2 -1 -3q-2 -5 -8 -12q-87 -95 -238 -95q-66 0 -125 22
q-70 26 -102 73q-66 97 -66 192q0 98 73 216q36 59 115 106q34 20 84 36q54 17 90 17h24q56 0 110.5 -23.5t86.5 -66.5q53 -71 53 -157q0 -33 -12 -83q-14 -58 -31 -75q-35 -61 -107 -96q-33 -16 -60 -16q-46 0 -60 49v1zM430 423q-2 0 -14 3q-21 5 -39 5q-80 0 -115 -74
l-33 -70q-3 -13 -3 -32q0 -68 60 -68q6 0 12 1l12 2q67 18 77 75z" />
    <glyph glyph-name="A" unicode="A" horiz-adv-x="711" 
d="M94 94l187 501q11 30 48 35h13q41 0 45 -29l187 -507q12 -33 48 -41q3 0 9 -1h8l29 1q35 -3 35 -24q0 -36 -53 -36q-23 0 -47 4h-7q-28 4 -51 4q-24 0 -56 -6q-7 0 -13 -2l-48 -4q-55 -5 -55 40q0 30 36 30q6 0 29 -3h1v-1q27 -3 30 -3q19 0 19 18v10l-35 99
q-10 27 -18 31q-12 4 -34 4l-135 1q-43 0 -51 -22l-36 -99q-1 -7 -1 -9l-1 -1q-3 -12 -3 -10q0 -20 25 -20q13 0 29 2h4q14 2 26 2q37 0 37 -36q0 -27 -57 -27h-13q-1 0 -13 1l-68 5l-73 -5q-3 0 -13 -1h-14q-55 0 -55 25l-1 10q6 27 21 29h3q4 0 9 -1l10 -2q3 -1 10 -3h6
q4 -1 6 -1q4 0 14 3q18 9 27 38v1zM330 538l-78 -229q0 -4 -2 -8l-3 -14q0 -7 27 -7l120 1q9 -3 16 -3q6 0 6 3v0q-1 4 -5 19q-2 4 -2 8z" />
    <glyph glyph-name="B" unicode="B" horiz-adv-x="668" 
d="M474 345q59 -17 97 -57q42 -44 42 -102q0 -52 -33 -98.5t-82 -67.5q-56 -24 -127 -24h-11q-17 0 -83 6l-44 4q-22 2 -39 2q6 0 -66 -4q-1 -1 -2 -1h-3q-25 -3 -63 -3q-51 0 -51 22q0 39 39 39h10q7 -1 11 -1q1 -1 2 -1v0h10q7 -1 10 -1h3q36 0 36 35v431q0 42 -41 42
q-7 0 -21.5 -2t-21.5 -2q-37 0 -37 39q0 29 50 29q23 0 67.5 -4t67.5 -4q25 0 44 3l19 3q32 5 89 5q218 0 234 -134q0 -3 1 -8v-19q-1 -6 -1 -9q-15 -98 -106 -119v1zM208 108q0 -56 124 -56h12q2 0 12 1q56 5 85 15q70 24 82 110q1 3 1 7v16q-1 7 -1 10q-3 19 -6 26
q-23 54 -120 67q-30 4 -74 4q-57 0 -69 -2q-41 -7 -46 -41v-157zM208 401q0 -38 92 -38q54 0 126 17q10 4 18 6q48 17 48 84v16q-1 6 -1 9l-3 21q-21 44 -109 54q-27 3 -77 3q-5 -1 -16 -3q-3 0 -8.5 -1t-8.5 -1q-61 -11 -61 -45v-122z" />
    <glyph glyph-name="C" unicode="C" horiz-adv-x="611" 
d="M488 574q0 3 -2 5q-5 15 -5 22q0 34 32 34h5q27 -5 27 -27l-7 -77v-57l7 -80q0 -37 -30 -40h-8q-33 5 -33 32q0 79 -9 106q-15 45 -71 74q-27 14 -58 14h-7q-92 0 -162 -85q-46 -56 -46 -155q1 -6 2 -8v-3q0 -251 172 -278q6 0 17 -2t17 -2q29 0 58 10q58 20 87 79
q3 7 11 24q2 7 3 41q1 44 33 52h9q1 0 3 -1q34 -8 34 -56v-17q-14 -92 -89 -145q-69 -50 -165 -50q-173 0 -242 157q-35 79 -35 166v6q0 235 173 309q58 25 116 25q101 0 163 -74v1z" />
    <glyph glyph-name="D" unicode="D" horiz-adv-x="668" 
d="M130 524q0 49 -47 49q-7 0 -21 -2t-21 -2q-34 0 -34 34l2 6q3 24 50 24q24 0 50 -4h7q4 -1 6 -1q34 -6 57 -6q-6 0 61 8q59 7 99 7q119 0 205 -65q62 -47 87 -157q0 -7 2 -15q5 -50 5 -59v-15q0 -87 -26 -160q-60 -168 -280 -168q-32 0 -128 9q-11 1 -25 1h-7
q9 0 -100 -7q-15 -1 -28 -1q-44 0 -44 29v2l1 1v1q0 1 1 2v1q3 25 32 25h9q21 -3 26 -3h9q52 0 52 56v410zM208 94q0 -4 5 -11q30 -27 105 -27q130 0 193 95q40 61 41 150q2 251 -220 265l-16 1q-29 -1 -89 -12q-21 -8 -21 -27h1q0 -3 1 -5v-429z" />
    <glyph glyph-name="E" unicode="E" horiz-adv-x="629" 
d="M131 531q0 37 -35 42h-7q-10 0 -20 -2h-3q-2 -1 -3 -1q-19 -3 -24 -3h-5q-25 6 -25 36l2 6v2q3 20 42 20h14q1 -1 2 -1h13l53 -5q32 -3 43 -3q17 0 50 4t50 4h4l230 8q49 2 49 -53v-19l-2 -14q-1 -7 -1 -14q-4 -18 -4 -29q0 -15 5 -47v-7q1 -1 1 -6q3 -18 3 -40
q0 -51 -37 -51q-36 0 -36 53q0 5 1 15v22q0 3 1 7v21q0 89 -75 90l-142 1q-65 0 -65 -51v-115q0 -26 29 -33q13 -3 51 -3q37 0 50 10.5t13 46.5q0 4 -1 11.5t-1 11t-2 8.5v9q-1 6 -1 9q0 38 34 38l3 1q27 -2 27 -55q0 -20 -2 -40q-2 -10 -2 -21q-5 -37 -5 -50q0 -12 6 -63
v-2q0 -1 1 -2l4 -34q2 -17 2 -31q0 -48 -34 -48h-2q-2 0 -3 -1h-5q-2 -1 -3 -1q-24 0 -24 27q0 7 1 15l2 16v9q2 12 2 24q0 55 -68 55q-41 0 -55 -11q-17 -14 -17 -53v-136q0 -43 48 -43h10l135 1q33 0 42 1q27 2 39 9q20 11 20 74v10q0 5 -1 10v10q-2 16 -2 30q0 55 32 55
l3 1q34 -2 34 -72v-9q0 -11 -1 -31.5t-1 -31.5v-79q0 -27 -7.5 -35t-34.5 -7l-265 8q-5 0 -41 -3l-46 -4q-1 -1 -2 -1h-2q-14 0 -42.5 -2.5t-42.5 -2.5q-74 0 -74 40q0 23 32 23h16q1 -1 2 -1v0h18q52 0 52 49v424z" />
    <glyph glyph-name="F" unicode="F" horiz-adv-x="590" 
d="M126 531q0 42 -40 42h-3q-9 0 -19 -2h-3q-2 -1 -3 -1q-21 -3 -24 -3h-5q-25 6 -25 36l1 6v2q3 20 55 20h17q5 -1 10 -1h11q54 0 125 -5q52 -4 61 -3l222 16q48 -2 48 -66v-8q0 -7 -1 -20.5t-1 -20.5l-3 -28q0 -16 5 -46v-5q4 -22 4 -42q0 -44 -38 -44q-39 0 -39 73v36
q0 99 -69 99l-142 1q-66 0 -66 -51v-115q0 -28 2 -33q5 -12 28 -12q6 0 18 1t18 1q37 0 48 4q23 8 23 37v27l-2 6v5q-2 4 -2 8v10q1 4 1 6q8 34 39 34l3 1q27 -2 27 -49q0 -18 -2 -38q-2 -8 -2 -18q-5 -35 -5 -47q0 -23 5.5 -67.5t5.5 -67.5q0 -55 -32 -59h-4q-3 -1 -7 -2
q-27 0 -27 29q0 -7 2 28l2 35q3 52 -68 54l-30 1q-41 1 -41 -51v-136q0 -50 46 -50h13q7 0 14 1h27q37 0 37 -33v-3q0 -25 -57 -25q-17 0 -95 9q-9 1 -20 1q-4 0 -49 -6q-9 -3 -26 -3q-13 -3 -34 -3q-55 0 -55 40q0 23 32 23h16q1 -1 3 -1h18q52 0 52 49v424z" />
    <glyph glyph-name="G" unicode="G" horiz-adv-x="668" 
d="M552 59q0 -4 2 -11v-13q0 -19 -10 -36t-28 -17h-6q-32 0 -32 51q0 5 2 13v6q1 4 1 6q-31 -44 -120 -67q-42 -11 -73 -11q-121 11 -190 98q-66 82 -66 206v24q0 198 118 287q77 58 161 58q111 0 170 -80q-2 4 -2 6q-7 19 -7 27q0 33 29 38h9q3 -1 4 -1q24 -8 24 -35
q0 -10 -3 -69l-2 -38q-1 -15 -2 -20v-2q-1 -3 -1 -7l-1 -2q0 -16 4 -34v-6q3 -21 3 -30q0 -35 -33 -35q-36 0 -36 35v23q0 18 -3 35q0 5 -4 22q-30 100 -151 100q-101 0 -149 -99q-37 -75 -37 -187q0 -197 146 -242q32 -10 51 -10q67 0 108 51q39 48 39 116v13q0 35 -61 35
h-6q-57 0 -57 30v2q1 1 1 2q2 11 3 15q6 16 44 16q11 0 25 -1l27 -2q1 -1 2 -1v0l27 -2q13 -1 24 -1q20 0 46 4q3 0 16 1q25 2 35 2q52 0 52 -28q0 -37 -36 -37h-3l-13 1q-1 -1 -2 -1h-3q-43 0 -43 -57v-30q0 -21 1 -41l2 -40q1 -20 4 -31v1z" />
    <glyph glyph-name="H" unicode="H" horiz-adv-x="728" 
d="M217 295v-187q0 -54 46 -54h9q4 0 9 1h5q4 0 11 1h10q32 0 32 -27q0 -34 -58 -34q-18 0 -53.5 3t-53.5 3q-45 0 -108 -5q-12 -1 -22 -1q-33 0 -33 34q0 27 28 27q10 0 22 -2h3q10 -2 19 -2q48 0 48 55v424q0 36 -40 36h-10q-7 -1 -10 -1v0h-2q-12 -2 -21 -2q-39 0 -39 39
l2 6q0 22 42 22q-4 0 60 -4q1 -1 2 -1v0l59 -4q-10 0 46 4q3 1 21 2l39 2q52 3 52 -25v-3q0 -38 -41 -38q-7 0 -21 1t-21 1q-32 0 -32 -29v-171h287v165q0 36 -46 36h-20l-1 -1h-20q-35 0 -35 28q0 42 64 37l108 -9q13 -1 40 3q31 5 43 5h11q65 0 64 -29q-1 -39 -41 -39
q-10 0 -24 2h-2q-12 2 -22 2q-33 0 -33 -36v-429q0 -47 39 -47q8 0 24 2t24 2q35 0 35 -36q0 -26 -57 -26q-16 0 -47 2.5t-47 2.5q-32 0 -55 -3h-8q-11 0 -32 -1.5t-18 -1.5q-66 0 -66 34q3 25 35 25h9q7 -1 10 -1h11q6 -1 9 -1q48 0 48 48v195h-287z" />
    <glyph glyph-name="I" unicode="I" horiz-adv-x="348" 
d="M121 517q0 49 -45 49q-7 0 -21 -2t-21 -2q-34 0 -34 39q0 29 48 29q-3 0 56 -4l59 -4q3 0 45 5q8 0 34 3q5 0 15 1h15q57 0 57 -23q0 -41 -38 -41q-3 0 -10 1h-13q-5 1 -9 1h-9q-44 0 -44 -53v-408q0 -57 46 -56l36 1q1 -1 2 -1h1q38 0 38 -30v-4q0 -23 -52 -23
q-20 0 -42 2q-3 1 -6 1h-8q-21 3 -50 3q-32 0 -55 -3h-5q-11 0 -32.5 -1.5t-18.5 -1.5q-60 0 -60 34q3 27 30 27q10 0 22 -2q4 0 11.5 -1t11.5 -1q46 0 46 55v410z" />
    <glyph glyph-name="J" unicode="J" horiz-adv-x="569" 
d="M108 238q-26 -2 -41 -21.5t-15 -46.5q0 -54 48 -97q33 -30 87 -30q76 0 122 40q50 43 50 117v324q0 52 -36 52h-3q-6 0 -12 -1l-12 -2q-1 -1 -2 -1h-3q-20 -5 -28 -5q-16 0 -22 13q-2 8 -3 16q-1 0 -2 2q0 35 57 35q10 0 31 -2.5t31 -2.5q30 -6 46 -6q14 0 37 5
q27 6 37.5 7t32.5 1q59 0 59 -41q0 -28 -25 -28q-14 0 -30 4h-5l-14 2q-7 1 -13 1q-36 0 -36 -50v-301q0 -114 -67.5 -178t-181.5 -64q-137 0 -196 97q-21 35 -21 80q0 62 33 103q36 45 96 45q36 0 64 -21t28 -56v-7q-1 -5 -1 -7q-10 -40 -38 -47l-8 -2q-4 -1 -8 -1h-3
q-38 0 -38 45q0 3 1 7l2 8v2q2 6 2 11v1z" />
    <glyph glyph-name="K" unicode="K" horiz-adv-x="728" 
d="M210 316l259 222q16 14 16 21q0 3 -14 3q-7 0 -19.5 -1t-19.5 -1h-23q-34 5 -34 34q0 41 58 41q11 0 33 -3t33 -3q40 -7 62 -7q10 0 30.5 4.5t30.5 4.5q35 7 55 7q42 0 42 -37q0 -42 -23 -42q-4 0 -22 3h-8l-9 2h-12q-38 0 -70 -27l-172 -143v-2l-2 -2q-5 -10 -5 -16
q0 -9 26 -45l10 -14l165 -221q21 -28 31 -33q14 -9 26 -9q11 0 21 4l10 2q5 1 9 1q22 0 32 -30v-3q1 -2 1 -3v0v0q0 -1 1 -3v-3q0 -22 -55 -22q-10 0 -28.5 1.5t-28.5 1.5q-21 3 -48 3q-10 0 -31 -1.5t-31 -1.5h-1q-1 0 -1 -1l-64 -4q-60 -4 -60 33l1 2v4q1 1 1 2v2
q3 23 44 23h12l11 -1q3 -1 6 -1h6q26 -3 31 -3q22 0 18 12l-3 8h-1q0 3 -2 5l-172 237q-2 0 -8 3h-3q-6 0 -17 -11l-94 -77v-123q0 -52 46 -52q3 0 9 1h11q3 0 9 1h8q38 0 39 -29q1 -34 -71 -34h-23l-17 2q-3 0 -16 1l-45 3q15 0 -45 -3q-4 0 -16 -1q-26 -2 -37 -2
q-51 0 -51 27q0 39 32 39q4 0 12.5 -1t12.5 -1q1 -1 2 -1h2q12 -2 22 -2q35 0 37 44l15 403q2 61 -52 61q-7 0 -22 -1t-22 -1q-38 0 -39 39q-1 32 41 32q16 0 56 -5q24 -6 66 -6q14 0 47 7q-6 0 39 5q9 1 17 1q55 0 55 -41q0 -35 -35 -35q-12 0 -26 2v0h-2q-4 0 -12 1h-12
q-35 0 -35 -32v-214z" />
    <glyph glyph-name="L" unicode="L" horiz-adv-x="590" 
d="M133 531q0 33 -46 33q-5 0 -13.5 -1t-13.5 -1q-41 0 -40 32q1 41 56 41q19 0 82 -11q12 -2 18 -2q18 0 54 6.5t54 6.5q57 0 57 -34q0 -41 -35 -41q-10 0 -22 2h-2q-14 2 -24 2q-40 0 -40 -48v-422q0 -40 80 -40q12 0 35.5 2t35.5 2q8 0 23.5 -1t23.5 -1q83 0 83 73
q0 4 -1 12.5t-1 12.5q-3 22 -3 29v16q0 59 41 59q35 0 35 -41v-8q-1 -6 -1 -9q-2 -8 -2 -16q-4 -16 -4 -27q0 -15 5 -47v-7q1 -5 1 -7l2 -18q1 -9 1 -19q0 -64 -68 -64h-19q-24 0 -72.5 3t-72.5 3h-113q-23 0 -70 -3t-70 -3q-76 0 -76 27v2q0 1 1 2v3q6 22 29 27h7
q4 0 12.5 -1t12.5 -1q0 -1 1 -1h1q12 -2 23 -2q35 0 35 42v438z" />
    <glyph glyph-name="M" unicode="M" horiz-adv-x="870" 
d="M425 87l150 522q5 17 31 17q15 0 48 -5q3 0 7 -2q48 -4 44 -4q19 0 45 6h6q4 1 6 1q20 4 39 4q46 0 46 -32v-4q0 -29 -41 -28l-33 1q-54 2 -54 -47v-408q0 -54 48 -54h10q4 0 9 1h4q4 0 12 1h11q34 0 34 -27q0 -34 -65 -34h-10q-15 0 -44 3t-44 3q-4 0 -45 -3l-39 -3h-17
q-57 0 -57 27q3 34 32 34q10 0 20 -2h3q10 -2 18 -2h5q35 5 35 55v453l-163 -544q-8 -28 -51 -28q-30 0 -39 8q-3 2 -18 33l-158 523v-458q0 -42 39 -42q7 0 22 1t22 1q39 0 39 -32q0 -27 -57 -27h-16q-66 6 -85 6q4 0 -47 -4q-16 -1 -28 -2l-32 -2q-58 -4 -58 31l2 6
q2 21 23 24h12q13 -2 15 -2h5q3 -1 6 -1h6q46 0 46 71v409q0 33 -35 33q-4 0 -13 -1t-13 -1v-1h-1q-14 -2 -25 -2q-33 0 -33 35q0 32 46 32q8 0 17 -1l18 -2q3 0 9 -1t9 -1q26 -6 43 -6q15 0 43.5 5.5t43.5 5.5h6q36 0 43 -25z" />
    <glyph glyph-name="N" unicode="N" horiz-adv-x="711" 
d="M510 73v437q0 50 -48 50h-10q-7 -1 -10 -1h-2q-1 0 -2 -1h-11q-7 -1 -11 -1q-29 0 -29 30q0 37 62 37q10 0 31 -2t31 -2q40 -5 56 -5q15 0 39 4q13 0 23 2q5 0 14 1h14q53 0 53 -28q0 -39 -37 -39q-11 0 -25 2v0h-2q-12 2 -23 2q-35 0 -35 -36v-464q0 -30 -16 -53
q-18 -26 -47 -26h-13q-45 7 -61 42l-236 516v-437q0 -48 46 -47l36 1q40 -3 40 -33q0 -31 -47 -31q-19 0 -55.5 5t-55.5 5h-20q-8 0 -21 -2q-16 -2 -21 -2l-57 -4q-46 -3 -46 29v2q3 18 9.5 23t24.5 5h16q1 -1 3 -1h22q48 0 48 49v417q0 45 -46 45h-10q-7 -1 -10 -1v0
q-1 0 -2 -1h-11q-6 -1 -10 -1q-34 0 -34 33q1 5 3 16q4 16 36 16q-11 0 16.5 -2t30.5 -2h2v-1l49 -4q15 -1 45.5 3t43.5 4h4q17 -2 22 -14z" />
    <glyph glyph-name="O" unicode="O" horiz-adv-x="629" 
d="M25 318q0 2 -1 3v7q-1 2 -1 3q0 130 71 218q76 95 203 95h11q98 0 187 -90q80 -81 80 -239q0 -134 -66 -229q-77 -111 -202 -111h-12q-130 0 -204 109q-66 95 -66 231v3zM110 316q0 -104 41 -179q51 -94 146 -94h4q0 -1 1 -1v0h13q82 0 134 97q40 73 41 169
q2 101 -40 176q-51 92 -144 92h-17q-89 -8 -137 -93q-41 -71 -42 -168v1z" />
    <glyph glyph-name="P" unicode="P" horiz-adv-x="611" 
d="M137 538q0 36 -38 36h-12l-39 -3q-28 -2 -32 30l-2 5q0 29 59 29q8 0 50 -2h9l55 -3q28 -2 77 2q56 5 77 5q247 0 247 -171v-8q0 -148 -169 -180q-47 -9 -99 -9q-24 4 -57 4h-11q-21 0 -25.5 -7t-4.5 -29v-129q0 -47 39 -47q8 0 24 2t24 2q36 0 36 -36q0 -29 -64 -29h-21
q-20 0 -36 4q-6 0 -18.5 2t-18.5 2q-9 0 -60 -6q-3 0 -8 -2l-55 -4q-48 -3 -48 33q0 34 30 34q11 0 23 -2h2q10 -2 21 -2q45 0 45 55v424zM222 366q0 -24 52 -24q9 0 28 1t28 1h4q1 0 2 -1h8q2 -1 4 -1q155 0 155 113v19q0 54 -61 82q-47 22 -108 22q-33 0 -63 -6
q-49 -10 -49 -28v-178z" />
    <glyph glyph-name="Q" unicode="Q" horiz-adv-x="611" 
d="M345 -12l-15 -3q-35 -3 -44 -3q-127 0 -197 102q-61 88 -61 221q0 3 1 8.5t1 8.5q9 311 258 329l14 1q131 9 201 -113q57 -99 57 -238q0 -205 -144 -286v-91q0 -22 12.5 -38.5t33.5 -16.5h5q20 3 31.5 21t11.5 39v16q0 28 32 28h3q36 0 36 -35v-13q0 -50 -32 -82.5
t-82 -32.5q-122 0 -122 99v79zM345 85q0 97 -50 108l-11 1q-6 -1 -18 -5q-35 -12 -44 -48q-4 -15 -4 -18q0 -32 26 -55t58 -23q11 0 23 5q9 2 20 8v27zM401 87q37 29 56 103q15 58 15 120v21q0 88 -39 162q-46 87 -131 87l-7 1q-91 -1 -140 -89q-40 -72 -40 -170v-14
q0 -60 16 -123q20 -78 56 -106q-16 40 -16 66v4q0 89 117 102l9 1q53 -1 81 -40q25 -34 25 -89v-15q0 -12 -2 -22v1z" />
    <glyph glyph-name="R" unicode="R" horiz-adv-x="668" 
d="M423 323q105 -20 105 -125v-63q0 -10 3 -28q2 -6 2 -11q8 -40 62 -38l27 1q37 -2 37 -37q0 -27 -43 -27h-53q-72 0 -96 35q-19 27 -19 103v14q0 4 -1 9q0 96 -33 116q-25 15 -112 15h-18q-83 0 -83 -36v-150q0 -44 46 -43l39 1q1 -1 2 -1h1q40 0 41 -29q1 -34 -60 -34
q-9 0 -26 1.5t-26 1.5q-20 3 -46 3q7 0 -54 -4l-61 -4q-57 -4 -57 31l1 1l1 2v2q3 25 37 25q5 0 15 -1t15 -1q54 0 54 55v410q0 52 -44 52h-14q-8 -1 -12 -1v0h-1q-14 -2 -24 -2q-28 0 -28 30l2 6q0 28 51 28q22 0 66 -4t66 -4h9q-4 0 66 5q56 4 92 4h12q8 0 12 -1
q79 -7 119 -27q59 -30 59 -98q4 -20 4 -31v-20q0 -117 -135 -132v1zM201 380q0 -19 32 -27q16 -4 31 -4h15q4 0 11.5 1t11.5 1q5 0 15 -1t15 -1q54 0 95 26q47 30 47 81v16q0 4 -1 7q-10 79 -84 92q-28 5 -42 5h-20q-35 0 -72 -9q-54 -13 -54 -37v-150z" />
    <glyph glyph-name="S" unicode="S" horiz-adv-x="569" 
d="M94 52l2 -6q1 -3 2 -5q3 -19 3 -22q0 -30 -32 -30q-16 0 -27.5 12t-11.5 28q0 39 14 114q0 11 -3 33.5t-3 33.5q-1 5 -1 10v13q0 54 30 54l6 1q34 -6 34 -67v-17q0 -29 8 -61q17 -44 61 -69q40 -23 90 -23q14 0 32 3q109 18 119 107v14q0 85 -99 104l-81 15
q-191 37 -191 165q0 12 4 28v3q0 1 1 3v5q1 2 1 4q10 73 74 115q58 39 135 39h13q96 0 135 -62v2q0 1 -1 2v5q-1 2 -1 3q0 40 32 40h7q3 -1 4 -1q24 -8 24 -37q0 -10 -5 -48q-2 -8 -2 -17l-2 -20q-1 -10 -1 -20q0 -2 1 -5v-6l1 -1q0 -14 3 -23q0 -9 2 -17q0 -4 1 -12v-12
q0 -48 -42 -48q-32 0 -32 30q0 -13 2 28q1 21 1 16v17q0 83 -74 105q-33 10 -71 10h-8q-6 0 -10 -1q-80 -8 -105 -63q-12 -26 -12 -42q0 -51 61 -83q48 -25 106 -31q41 -4 68 -12q147 -43 147 -169v-19q0 -82 -74 -134q-66 -45 -152 -45q-108 0 -183 65v1z" />
    <glyph glyph-name="T" unicode="T" horiz-adv-x="590" 
d="M242 524q0 52 -68 52h-6q-3 0 -6 -1q-10 0 -28.5 -4.5t-28.5 -4.5q-30 -12 -30 -63q0 -19 2 -35q0 -1 2 -16q4 -31 4 -46q0 -43 -35 -43q-1 0 -2 1h-3q-1 1 -2 1q-30 4 -30 37q0 16 4.5 46.5t4.5 46.5v7q0 14 -5.5 42.5t-5.5 42.5q0 50 39 50h14q53 0 180 -12
q39 -4 49 -3l222 16q47 -2 47 -53q0 -7 -3 -29q0 -3 -1 -8.5t-1 -8.5q-6 -22 -6 -37q0 -13 5 -43v-5q0 -2 1 -5l2 -19q1 -10 1 -19q0 -46 -38 -46q-35 0 -35 48q3 20 3 46v9q2 20 2 39q0 66 -42 66h-9q-5 0 -10 1h-19q-83 0 -83 -65v-408q0 -44 39 -43l34 1q1 -1 2 -1h1
q36 0 37 -29q1 -31 -49 -31q-24 0 -52 4h-3q-2 0 -3 1q-40 5 -56 5q-12 0 -27 -2l-30 -4l-1 -1h-1q-9 0 -28 -2.5t-28 -2.5q-43 0 -43 33q3 30 32 30q4 0 11 -1t11 -1q1 -1 2 -1h2q10 -2 20 -2h3q42 0 42 53v417z" />
    <glyph glyph-name="U" unicode="U" horiz-adv-x="668" 
d="M108 531q0 38 -41 38h-11q-7 -1 -11 -1v-1h-12q-6 -1 -10 -1q-34 0 -34 35q0 32 43 32q-2 0 46 -4q2 -1 4 -1h4q30 -6 51 -6q14 0 51 5q10 0 30.5 2t30.5 2q60 0 60 -33v-3q0 -28 -34 -28q-7 0 -22 1t-22 1q-37 0 -37 -39v-365q0 -56 42 -88q39 -30 96 -30h8
q59 0 100 36.5t41 94.5v353q0 35 -42 35q-6 0 -19 -1t-19 -1q-42 0 -42 37q0 29 46 29q18 0 52.5 -4t52.5 -4q47 0 77 6q22 2 44 2q58 0 58 -25v-3q0 -38 -42 -38h-6l-35 1q-39 1 -39 -35v-336q0 -98 -63.5 -156.5t-162.5 -58.5h-9q-82 0 -147 37q-77 44 -77 120v395z" />
    <glyph glyph-name="V" unicode="V" horiz-adv-x="668" 
d="M352 94l136 423q6 14 6 27q0 25 -34 25q-9 0 -26.5 -1t-26.5 -1q-34 5 -34 41q0 23 41 23q-3 0 57 -4q2 -1 4 -1h2q28 -4 54 -4q-8 0 40 4q20 4 49 4q46 0 46 -25v-3q-5 -29 -19 -36q-6 -2 -9 -2q-5 0 -13.5 1t-13.5 1h-2q-2 0 -4 -1q-15 -2 -24 -28l-172 -507
q-12 -35 -57 -35q-47 0 -57 27l-180 502q-17 47 -60 47q-8 0 -18 -2v0h-2q-10 -2 -19 -2q-26 0 -27 34q-1 32 54 32q24 0 48 -4h8q5 -1 8 -1q34 -6 58 -6q17 0 73 7q5 0 14 1h14q57 0 57 -25v-3q0 -35 -42 -35h-9q-5 0 -10 1h-5q-4 0 -12 1h-11q-30 0 -30 -28v0v-4
q0 -2 2 -6v-2q2 -2 2 -4v-2z" />
    <glyph glyph-name="W" unicode="W" horiz-adv-x="870" 
d="M432 545l-100 -493q-12 -57 -53 -57q-40 0 -53 27l-130 523q-6 24 -38 24h-13q-7 -1 -10 -1h-2q-1 0 -2 -1h-11q-7 -1 -11 -1q-24 0 -26 30l-1 13q3 24 43 24q19 0 57 -5.5t57 -5.5h5q1 -1 3 -1h2q21 0 61.5 7t61.5 7q46 0 46 -34t-37 -34q-7 0 -15 1l-33 4q-8 1 -15 1
q-31 0 -31 -30v-1q0 -1 1 -2v-3l87 -436l93 501q7 38 59 38h6q57 0 57 -39l100 -507l85 450q0 27 -37 27q-10 0 -29.5 -2t-29.5 -2q-32 0 -32 31v5q-1 0 -2 2q0 28 46 28q-3 0 57 -4q2 -1 5 -1h4q36 -6 62 -6q22 0 48 6h6q4 1 6 1q22 4 42 4q40 0 40 -25v-9q0 -33 -23 -33
q-12 0 -24 4q-20 3 -25 3q-24 0 -27 -29l-123 -507q-9 -39 -47 -44h-12q-4 1 -6 1q-44 10 -55 71z" />
    <glyph glyph-name="X" unicode="X" horiz-adv-x="728" 
d="M361 394l122 151q9 14 9 19q0 7 -20 7h-11l-16 -2h-13q-6 -1 -9 -1h-2q-2 0 -4 1h-5q-30 5 -30 25q0 41 53 41q10 0 29.5 -3t29.5 -3q35 -7 53 -7q22 0 46 4h6q3 1 5 1q30 6 55 6q47 0 46 -32t-34 -32q-3 0 -8 1h-11q-4 1 -7 1h-7q-10 0 -16 -2q-20 -4 -32 -18l-187 -221
l215 -250q16 -19 39 -19q6 0 18 1t18 1q33 0 33 -34q0 -31 -55 -31q-41 0 -58 5q-35 5 -45 5q-20 0 -58.5 -6t-58.5 -6q-55 0 -55 33q0 34 46 34h8q3 0 7 -1h8q5 -1 8 -1l14 -2q7 -1 12 -1q17 0 17 10q0 6 -8 20q-1 2 -4 5l-143 188l-144 -187l-11 -22q0 -11 21 -11
q5 0 15 1h23q6 1 13 1h12q42 0 42 -34q0 -33 -51 -33q-45 0 -63 6q-48 6 -58 6q-12 0 -29 -2l-69 -8q-17 -2 -30 -2q-30 0 -38 13q-4 9 -4 15l-1 13q7 28 29 28q7 0 20.5 -3t20.5 -3q41 0 65 41l187 230l-180 215q-23 28 -58 28q-8 0 -24 -3t-24 -3q-21 0 -21 34t46 34
q21 0 62 -6.5t62 -6.5q17 0 52 7h5q3 1 5 1q30 5 46 5q50 0 50 -36v-4q0 -28 -41 -28q-10 0 -20 2h-6q-3 1 -5 1l-14 2q-7 1 -12 1q-7 0 -7 -5v-2q0 -2 6 -7z" />
    <glyph glyph-name="Y" unicode="Y" horiz-adv-x="711" 
d="M352 309l145 246q2 3 2 7q0 9 -19 9q-13 0 -31 -2h-3q-2 0 -3 -1h-14q-9 -1 -14 -1h-6q-32 0 -32 29q0 3 2 6v0v0v3q1 2 1 3q7 23 57 23q10 0 29.5 -2t29.5 -2q37 -5 49 -5q22 0 52 6h6q4 1 6 1q24 4 45 4q49 0 49 -32q0 -35 -26 -35q-3 0 -24 3q-5 0 -14 1t-14 1
q-24 0 -37 -20l-201 -313v-123q0 -57 46 -57h19q2 0 4 1h22q38 0 39 -30q1 -33 -46 -33q-17 0 -49.5 6t-48.5 6q-8 0 -62 -6l-18 -2q-35 -4 -53 -4q-62 0 -62 35l1 6q3 21 32 21q11 0 23 -2q5 0 17 -1q4 -1 8 -1h3q43 0 47 39v145l-201 314q-5 16 -28 19h-7q-6 0 -13 -1
l-14 -2q-16 -4 -28 -4q-29 0 -29 37q0 32 45 32q17 0 52 -5h4q30 -6 54 -6q23 0 53 6q7 0 15 2q35 3 44 3q53 0 53 -32v-4q0 -30 -37 -30q-9 0 -21 2h-4q-3 1 -5 1q-20 3 -25 3q-18 0 -15 -13l1 -1q2 -3 5 -8z" />
    <glyph glyph-name="Z" unicode="Z" horiz-adv-x="569" 
d="M430 574h-222q-105 0 -105 -89v-17q0 -6 1 -12v-8q0 -5 1 -15v-15q0 -48 -38 -48l-1 3q-30 -2 -30 51q0 13 2 33q0 8 3 30q3 19 3 29l-4 28q0 6 -2 12q-2 12 -2 24q0 50 42 50l403 1q19 0 35.5 -14.5t16.5 -33.5q0 -20 -23 -46l-409 -471h279q80 0 80 75v13l-2 19v7
l-2 19q-1 9 -1 17q0 42 33 42q41 0 41 -55q0 -17 -2 -39l-2 -22q-1 -10 -1 -13q0 -8 1 -17l2 -18v-3q0 -1 1 -3l2 -20q1 -10 1 -19q0 -48 -57 -48l-408 1q-48 0 -48 50q0 3 3 21q8 25 16 34z" />
    <glyph glyph-name="bracketleft" unicode="[" horiz-adv-x="309" 
d="M94 609q0 19 23 19q9 0 21 -2h2q1 -1 2 -1q21 -3 23 -3q8 0 22.5 3.5t22.5 3.5q3 1 7 1h7q42 0 42 -36q0 -30 -23 -30q-10 0 -24 4h-2q-20 3 -23 3q-22 0 -22 -27v-571q0 -32 23 -32q4 0 20 3h2q12 4 21 4q28 0 28 -39q0 -28 -42 -28h-8q-5 0 -15 1.5t-15 1.5
q-18 4 -28 4q-4 0 -20 -3h-2q-1 0 -2 -1q-17 -3 -22 -3q-18 0 -18 28v700z" />
    <glyph glyph-name="backslash" unicode="\" horiz-adv-x="490" 
d="M117 673q-6 11 -27 19q-3 0 -6 1h-9q-22 -3 -22 -17v-3l272 -721q2 -18 30 -21h11q2 0 4 1q16 0 25 7q3 1 3 4l-2 2z" />
    <glyph glyph-name="bracketright" unicode="]" horiz-adv-x="309" 
d="M194 -76q0 -34 -15 -34q4 0 -44 12h-5q-10 0 -35 -5q-6 -2 -13 -2q-22 -3 -29 -3q-30 0 -30 25q0 37 30 37q3 0 9 -1h8q2 -1 3 -1h2q10 -2 21 -2q19 0 19 16v579q0 26 -21 26q-4 0 -10 -1l-12 -2q-1 -1 -2 -1h-2l-10 -2q-5 -1 -10 -1q-25 0 -25 37q0 29 34 29q15 0 26 -3
h5q2 -1 4 -1q36 -4 31 -4q-6 0 22 4h2q2 1 3 1l10 2q5 1 9 1h3q22 -3 22 -29v-677z" />
    <glyph glyph-name="asciicircum" unicode="^" horiz-adv-x="569" 
d="M266 567l-151 -279h-85l201 371h71l194 -371h-87z" />
    <glyph glyph-name="underscore" unicode="_" horiz-adv-x="448" 
d="M-7 -41h449v-71h-449v71z" />
    <glyph glyph-name="grave" unicode="`" horiz-adv-x="309" 
d="M144 623l5 5q16 16 27 16q9 0 13 -15q1 -2 1 -3v-9q-1 -2 -2 -6v-1q-1 -1 -1 -2q-18 -25 -48 -79q-4 -11 -4 -20q0 -22 30 -22q53 0 53 -48v-10q-1 -5 -1 -7q-7 -36 -23 -43q-20 -12 -39 -12h-7q-30 4 -52 37q-20 30 -20 62v8q1 5 1 8q7 59 54 122q3 5 13 18v1z" />
    <glyph glyph-name="a" unicode="a" horiz-adv-x="569" 
d="M144 380q25 -2 25 -35v-6q0 -2 -1 -4q-5 -36 -45 -36q-5 0 -11 2h-4q-49 6 -49 53q0 8 5 25l2 7q15 52 68 79q44 22 104 22q65 0 118 -34q62 -40 60 -102l-7 -250q-1 -18 6 -34q8 -20 24 -20q21 0 33 30q9 23 9 48v28q-1 1 -1 2v0q0 29 28 29h5q3 -1 5 -1q27 -11 27 -40
v-31q0 -113 -91 -121h-8q-31 0 -61 16.5t-40 43.5q-42 -52 -120 -61q-4 0 -12 -1h-16q-49 0 -92 20q-50 23 -68 63q-12 27 -12 46q0 54 39 96q37 39 92 48q39 6 49 6h6q5 1 7 1l18 2q8 1 29 3q29 3 44 13q27 18 27 57q0 33 -22 55t-55 23q-82 2 -115 -43v1zM337 238
q-28 -35 -112 -35q-57 -6 -81 -17q-41 -19 -43 -64q-1 -35 34 -54q29 -16 67 -16t73 16q62 28 62 130v40z" />
    <glyph glyph-name="b" unicode="b" horiz-adv-x="529" 
d="M146 52q0 -2 1 -5v-16q0 -34 -32 -39q-2 -1 -3 -1h-7q-30 3 -30 45v516q0 28 -23 28q-4 0 -22 -3l-12 -2q-6 -1 -11 -1q-24 0 -24 34q0 32 22 32q10 0 30 -5h3q1 -1 2 -1q14 -4 27 -4q7 0 29 5q5 0 9 2q21 3 25 3q23 0 23 -18v-206q15 36 57 56q36 17 80 17
q112 0 172 -90q41 -62 42 -148q1 -96 -43 -165q-48 -75 -138 -93q-25 -5 -46 -5q-103 0 -131 63v1zM153 238q0 -73 28 -127q35 -68 101 -68q63 0 102 68q33 58 33 126v10q0 67 -29 115q-34 58 -97 58h-11q-63 0 -98 -63q-29 -52 -29 -120v1z" />
    <glyph glyph-name="c" unicode="c" horiz-adv-x="448" 
d="M343 359q0 30 -38 49q-31 16 -65 16q-16 0 -25 -3q-58 -11 -87 -71q-23 -48 -23 -115q0 -4 1 -11t1 -10q1 -63 30 -109q34 -54 93 -54h12q42 0 77 32t38 74q2 29 30 36q2 1 4 1h8q29 -5 29 -30q0 -78 -62 -127q-57 -46 -137 -46h-11q-86 0 -134 58q-34 41 -58 136
q-5 35 -5 52q0 103 62 176q65 78 166 78q69 0 119.5 -44t50.5 -112q0 -57 -55 -70h-7q-2 -1 -4 -1h-3q-20 0 -37.5 14t-17.5 34v7q5 31 48 39v1z" />
    <glyph glyph-name="d" unicode="d" horiz-adv-x="569" 
d="M380 552q0 21 -23 21q-4 0 -21 -3h-2q-16 -3 -20 -3q-26 0 -26 34q0 32 30 32h12q9 -1 13 -1q12 -2 22 -2h18q35 5 45 5q23 0 23 -20v-528q0 -36 30 -36q3 0 10 1h11l3 1q3 0 9 1h10q21 0 21 -21v-3q0 -37 -21 -37q8 0 -24 4q-14 4 -33 4q-22 0 -34 -5q-18 -5 -23 -5
q-6 0 -10 4q-11 9 -20 41q-45 -49 -116 -53q-3 -1 -6 -1h-8q-84 0 -153 68q-60 59 -60 157v11q-1 3 -1 6v4q0 105 47 173q54 79 155 79q43 0 82 -17q46 -20 60 -55v144zM108 231q4 -72 35 -124q38 -64 102 -71q70 0 106 65q29 52 29 129q0 69 -29 122q-37 68 -98 68h-16
q-61 0 -99 -68q-30 -54 -30 -122v1z" />
    <glyph glyph-name="e" unicode="e" horiz-adv-x="508" 
d="M114 231q0 -2 -1 -5.5t-1 -5.5q-4 -12 -4 -18v-10q0 -5 1 -8q10 -79 69 -112q41 -23 78 -23q49 0 84.5 33t44.5 82q3 15 24 18h3q37 0 37 -46q0 -53 -49 -93q-41 -34 -98 -48q-29 -7 -52 -7q-102 0 -160 65q-56 62 -56 166v17l1 10q8 79 30 124q28 57 89 89q51 27 97 27
h24q129 0 171 -132q12 -38 12 -74q0 -31 -2 -36q-4 -14 -28 -14zM378 295q0 56 -32.5 91.5t-87.5 35.5q-57 0 -95 -35.5t-42 -92.5z" />
    <glyph glyph-name="f" unicode="f" horiz-adv-x="387" 
d="M270 474q23 -5 29 -31q1 -2 1 -4v-10q-3 -29 -23 -29l-94 1v-300q0 -47 35 -47q6 0 19 1t19 1q28 0 28 -27q0 -34 -41 -34q-3 0 -41 3l-38 3h-9q-14 0 -27 -1l-26 -2h-32q-59 0 -59 26l1 6q4 26 27 29h4q3 0 10 -1t10 -1q16 -3 20 -3q29 0 29 46v301h-78q-22 -2 -22 30v4
q0 2 1 5q5 33 35 33l64 1q0 177 165 177q42 0 77 -22q40 -25 40 -65q0 -22 -13 -37t-35 -15h-5q-39 5 -39 36q0 3 3 13l8 12q-2 21 -43 21q-16 0 -26 -5q-63 -21 -63 -105v-2l2 -3v-6z" />
    <glyph glyph-name="g" unicode="g" horiz-adv-x="508" 
d="M114 80q-33 1 -55 26t-22 58q0 12 3 21q12 54 74 73q-23 42 -23 78q0 69 63 110q54 36 127 36q7 0 20 -1t20 -1q11 84 96 84h10q7 -1 10 -1q94 -13 94 -74q0 -19 -10 -36q-12 -20 -29 -23q-1 -1 -2 -1h-3q-47 0 -47 32v3q0 7 3 12q6 15 22 26q-7 7 -29 12h-12q-2 0 -4 -1
q-43 -5 -49 -54q77 -52 77 -128q0 -66 -58 -114q-54 -46 -122 -46q-18 0 -46 7q-55 22 -78 22q-15 0 -33 -27q-3 -6 -3 -12v-3q3 -28 67 -39q44 -7 83 -5l17 1q80 5 144 -28q77 -40 77 -115q0 -52 -25 -82q-23 -26 -75 -43q-65 -21 -120 -21h-17q-68 0 -111 14
q-51 17 -94 60q-26 61 -26 77q0 54 86 102v1zM265 52q-43 2 -87 -12q-55 -18 -68 -52q-3 -4 -3 -15v-3q0 -43 61 -66q43 -16 97 -16q49 0 91 15q67 24 67 70v3q0 37 -53 58q-37 15 -84 17zM163 330h-1v-6q0 -39 28 -63t68 -24h3q3 -1 4 -1v0h1q1 -1 3 -1h3q40 0 67.5 27
t31.5 67q0 41 -28 66t-70 25h-9q-4 0 -8 -1q-37 -3 -63 -25t-30 -58v-6z" />
    <glyph glyph-name="h" unicode="h" horiz-adv-x="611" 
d="M187 416q48 61 140 61h13q78 0 124 -45.5t46 -123.5v-221q0 -33 25 -33q8 0 18 2q4 0 15 2h6q28 0 28 -29q0 -33 -37 -33q-15 0 -33 4q-6 0 -12 2q-33 6 -39 6q-9 0 -46 -6q-5 -1 -19 -3l-19 -2q-9 -1 -19 -1q-42 0 -42 26v1q0 1 1 2v4q4 30 24 30q3 0 21 -3q12 -4 21 -4
q27 0 27 41v216q0 48 -30.5 77t-78.5 29h-8q-53 0 -86 -40.5t-33 -94.5v-200q0 -26 23 -26q3 0 9 1h14q3 1 7 1h7q34 0 34 -27v-6q0 -28 -43 -28q-16 0 -47 6.5t-47 6.5q-17 0 -51.5 -6.5t-51.5 -6.5q-32 0 -32 27q0 32 27 32q17 0 25 -4h7q5 -1 7 -1q33 0 33 44v445
q0 29 -30 29h-9q-6 -1 -9 -1l-1 -1h-9q-6 -1 -9 -1q-27 0 -27 32l2 6q0 28 25 28q12 0 30 -4h1q16 -4 29 -4h8q4 1 7 1l16 4q28 4 26 4q22 0 22 -23v-192z" />
    <glyph glyph-name="i" unicode="i" horiz-adv-x="309" 
d="M130 385q0 19 -22 19q-9 0 -21 -2h-2q-2 0 -3 -1h-9q-6 -1 -9 -1q-28 0 -28 31l1 6q4 26 36 26q10 0 28.5 -2t28.5 -2q8 0 25 5h2q1 0 2 1q17 3 22 3q27 0 27 -39v-342q0 -31 26 -31q8 0 18 2q3 0 9 1h12q23 -3 22 -23q-1 -36 -48 -36h-14q-17 0 -29 4q-44 4 -39 4
q3 0 -45 -4v-1h-1l-23 -2q-11 -1 -21 -1q-39 0 -39 29v4q1 1 1 2v1q0 25 22 25q4 0 11 -1.5t10 -1.5h1q10 -2 18 -2q31 0 31 37v292zM101 567q0 21 14.5 34.5t35.5 13.5h3q54 0 54 -49q0 -54 -50 -54h-3q-24 0 -39 15t-15 39v1z" />
    <glyph glyph-name="j" unicode="j" horiz-adv-x="267" 
d="M-41 -105q32 -16 57 -16q45 0 67 40q18 32 18 81v373q0 30 -25 33h-5q-4 0 -18 -3v0h-2l-10 -2q-5 -1 -9 -1h-3q-22 3 -22 31l2 6q4 29 28 29q-3 0 29 -4q1 -1 2 -1h2q14 -4 26 -4h3q1 0 2 1h2q2 0 4 1h1q5 0 22 3h1q1 0 1 1q21 3 24 3q23 0 23 -30v-456
q0 -72 -49.5 -116.5t-122.5 -44.5q-90 0 -113 68l-2 6q-3 23 -3 29q0 39 37 47q2 1 4 1h5q41 0 41 -38v-3q0 -13 -16 -34h-1zM80 574q0 32 38 40q3 0 6 1h6q7 0 13 -2q36 -8 36 -40q0 -23 -12 -41q-14 -21 -36 -21h-7q-3 0 -5 1q-41 9 -41 52q1 5 2 7v3z" />
    <glyph glyph-name="k" unicode="k" horiz-adv-x="590" 
d="M183 238l165 149q11 10 11 13q0 4 -11 4v0h-12q-7 -1 -10 -1q-8 -2 -17 -2h-11q-2 0 -3 1h-5q-27 5 -27 27q0 35 53 35q22 0 44 -2h3q1 0 2 -1q8 0 23.5 -1t23.5 -1q15 0 43.5 2.5t43.5 2.5q43 0 43 -35q0 -32 -22 -32q-6 0 -16 2q-3 0 -8 1h-13q-16 0 -34 -8l-9 -6
l-120 -105l165 -201q9 -17 26 -21q6 -3 18 -3q5 0 16 1t16 1q16 0 16 -25v-10q0 -23 -35 -23q-17 0 -41 4q-9 0 -17 2q-14 2 -28 2q8 0 -44 -4q-16 -4 -48 -4q-45 0 -44 29q1 27 29 30h3q10 0 16 -1q2 -1 3 -1q14 -3 16 -3q6 0 6 8v4q0 4 -5 14q-1 2 -4 6l-114 152l-87 -80
l7 -71q3 -33 25 -33q4 0 9 1l10 2h2q10 2 18 2h3q20 0 20 -23v-6q0 -30 -46 -30h-13q-15 0 -33 4q-44 4 -38 4q4 0 -44 -4q-1 -1 -2 -1h-2q-16 -3 -42 -3q-39 0 -39 29v2l1 1v1q0 1 1 2v1q0 27 23 27q5 0 22 -3q12 -4 22 -4h3q22 3 22 37v452q0 29 -27 29q-4 0 -11.5 -1.5
t-10.5 -1.5h-3q-8 -2 -16 -2q-24 0 -24 32t24 32q3 -1 27 -4q1 -1 3 -1h2q16 -6 29 -6q10 0 28.5 5.5t28.5 5.5h3q18 -3 18 -25v-370z" />
    <glyph glyph-name="l" unicode="l" horiz-adv-x="309" 
d="M115 545q0 28 -26 28q-7 0 -21.5 -3t-21.5 -3q-30 0 -30 41q0 23 32 23q8 0 17 -1l18 -2q3 0 8 -2q44 -4 39 -4q4 0 17 3q2 0 4 1l4 2q15 5 23 5q16 0 16 -25v-521q0 -31 23 -31q3 0 21 3q4 0 10.5 1t10.5 1q29 0 29 -32q0 -31 -41 -31q-9 0 -17 1l-16 2q-2 0 -14 2
q-30 5 -42 5q7 0 -73 -8h-14q-48 0 -48 29q3 32 29 32q3 0 10 -1t10 -1q16 -3 20 -3q23 0 23 30v459z" />
    <glyph glyph-name="m" unicode="m" horiz-adv-x="870" 
d="M174 409q48 68 127 68h13q95 0 132 -69q49 69 138 69h7q66 0 115 -33q56 -37 56 -100v-250q0 -39 37 -38l34 1q36 -3 36 -31v-3q0 -25 -42 -25h-3q-15 0 -28 2l-45 7q-6 1 -17 1q-16 0 -47.5 -5t-47.5 -5q-42 0 -42 31q0 29 21 29q4 0 18 -3h2q1 -1 2 -1q8 -2 15 -2h5
q31 6 31 41v216q0 42 -29 71t-71 29h-9q-51 0 -81 -44q-25 -38 -25 -92v-179q0 -40 28 -40q10 0 20 2h2q10 2 19 2q29 0 30 -29t-46 -29h-14q-12 0 -34.5 4t-34.5 4q-17 0 -50 -6t-50 -6q-44 0 -44 28l2 6q3 28 28 28q7 0 13 -2h4q2 -1 3 -1l10 -2q5 -1 9 -1q32 0 32 41v223
q0 43 -25 70t-67 27q-57 0 -93.5 -41t-36.5 -99v-186q0 -31 30 -31q3 0 8 1h10q4 1 8 1h11q33 0 34 -29t-51 -29h-21q-48 8 -57 8q-14 0 -49 -5q-1 -1 -2 -1h-3q-24 -4 -46 -4q-43 0 -42 31q1 27 27 30h3q4 0 11 -1.5t11 -1.5h1q10 -2 18 -2q28 0 28 32v280q0 38 -34 38
q-7 0 -15 -2v0h-2q-8 -2 -16 -2h-3q-24 3 -24 31l2 6q3 26 30 26q8 0 23.5 -2t23.5 -2h8q12 0 24 4q19 3 24 3h3q22 -3 22 -34v-5q-1 -4 -1 -6v-4q-1 -3 -1 -5v-3z" />
    <glyph glyph-name="n" unicode="n" horiz-adv-x="611" 
d="M179 423q21 34 68 53q42 17 87 17h6q77 0 123.5 -44t46.5 -120v-221q0 -52 28 -52q8 0 18 2q3 0 9 1h14q23 -3 23 -30v-6q0 -25 -41 -25q-8 0 -23.5 2t-23.5 2q-24 6 -40 6h-12q-8 -1 -12 -1q-65 -9 -75 -9q-35 0 -38 31v4q-1 1 -1 2v1q0 25 23 25h10l12 -2h10q6 -1 9 -1
h5q25 6 25 35v230q0 44 -31 73t-75 29h-11q-56 0 -89 -46q-30 -41 -30 -99v-179q0 -42 32 -42q3 0 9 1h11q4 1 8 1h7q27 0 27 -28v-3q0 -32 -41 -32q-9 0 -17 1l-16 2q-2 0 -14 2q-30 5 -42 5q5 0 -47 -4q-5 -2 -11 -2q-22 -2 -40 -2q-46 0 -46 29v2l1 1v1q0 1 1 2v1
q3 25 23 25q4 0 10.5 -1t10.5 -1q16 -3 22 -3q33 0 33 51v273q0 38 -28 38q-8 0 -18 -2l-2 -1h-1q-10 -2 -18 -2h-3q-2 0 -4 1q-12 4 -18 15q0 2 -1 4l-2 4q-2 4 -2 7v3q0 28 29 33h5q6 0 45 -12q7 -2 11 -2q7 0 23 7q5 0 7 2q12 4 20 4q21 0 21 -34v-22z" />
    <glyph glyph-name="o" unicode="o" horiz-adv-x="508" 
d="M28 259q0 100 61.5 168t160.5 68q107 0 167 -78q55 -70 55 -180q0 -105 -58 -174q-61 -74 -164 -74h-3q-103 0 -163 72q-57 67 -57 172v12l1 1v13zM107 252q0 -79 32 -137q39 -72 111 -72h3q71 10 108 75q32 56 32 133q0 71 -32 121q-37 60 -104 60h-9q-65 0 -105 -60
q-34 -52 -36 -121v1z" />
    <glyph glyph-name="p" unicode="p" horiz-adv-x="569" 
d="M179 -41q0 -58 38 -58h9q6 1 9 1h2q10 2 19 2h3q22 -3 22 -30q0 -37 -47 -37q-9 0 -19 1l-20 2q-9 0 -25.5 2.5t-25.5 2.5q-15 0 -37 -2h-14q-7 -1 -13 -1h-14q-57 0 -57 32q4 34 28 34q9 0 19 -2h2q10 -2 18 -2q32 0 32 41v442q0 29 -26 29q-8 0 -18 -2h-1
q-19 -3 -22 -3q-25 0 -25 32q0 34 23 34q10 0 30 -5q1 -1 2 -1h1q20 -5 29 -5q10 0 28.5 4.5t28.5 4.5q21 0 21 -53q19 31 62 50q39 17 79 17h5q83 0 148 -69q51 -55 51 -167v-8q0 -96 -43 -164q-49 -78 -138 -90q-12 -3 -32 -3h-5q-88 0 -127 55v-84zM179 201q0 -30 9 -59
q29 -93 109 -93q3 0 9.5 1t9.5 1q62 6 101 62q36 51 36 116v18q0 70 -33 122q-38 60 -104 60q-58 0 -97.5 -45t-39.5 -104v-79z" />
    <glyph glyph-name="q" unicode="q" horiz-adv-x="569" 
d="M373 37q-53 -53 -130 -53h-11q-91 0 -148 88q-47 72 -47 172v5q-1 1 -1 2v2q0 101 54 166q58 70 157 70q101 0 140 -60q5 41 28 49q1 1 3 1h6q1 0 2 -1q25 -6 25 -35v-512q0 -38 29 -38q8 0 18 2q4 0 15 1q3 1 6 1q26 0 26 -30q0 -34 -37 -34q-15 0 -40 5h-4q-2 1 -3 1
q-39 6 -45 6q-15 0 -44.5 -6t-44.5 -6q-46 0 -46 41q0 25 25 25q14 0 23 -2h14q30 0 30 27v113zM373 295q0 52 -34.5 89.5t-86.5 37.5q-70 0 -109 -58q-35 -51 -35 -124v-9q0 -70 33 -124q38 -64 104 -64q60 0 104 49q24 26 24 72v131z" />
    <glyph glyph-name="r" unicode="r" horiz-adv-x="490" 
d="M384 364q0 27 -25 45t-53 18q-58 0 -87 -59q-22 -45 -22 -110v-107q0 -92 43 -92q8 0 16 2h1q10 2 17 2q24 0 24 -27v-6q0 -30 -49 -30h-22q-46 8 -58 8q-7 0 -20 -1t-20 -1q-18 -3 -47 -3q-56 0 -55 26q1 37 26 37q5 0 22 -3q10 -4 21 -4q30 0 30 41v280q0 35 -28 35
q-5 0 -25 -3v0q-1 0 -1 -1l-14 -2q-7 -1 -12 -1q-26 0 -26 35q0 36 24 36q6 0 36 -6q4 -2 6 -2q22 -5 33 -5q9 0 21 4q2 0 4 1l4 2l14 4q7 2 12 2q16 0 16 -31v-25q52 66 121 66q66 0 109 -36q45 -39 45 -104q0 -32 -14 -57q-16 -29 -46 -34h-7q-2 -1 -4 -1h-3q-21 0 -39 13
t-21 33q-1 2 -1 4v6q0 36 54 38v13z" />
    <glyph glyph-name="s" unicode="s" horiz-adv-x="490" 
d="M341 464l-1 1v3q-1 1 -1 2q0 30 29 30q28 0 28 -41q0 -28 -5 -39q-2 -3 -2 -7q0 -14 4 -36v-6q1 -1 1 -6q2 -12 2 -30q0 -34 -19 -34q-43 0 -43 39v33q-18 56 -123 56q-28 -3 -53 -24q-28 -23 -28 -49v-5q0 -9 10 -29q20 -30 88 -39q202 -27 202 -136v-12q0 -4 -1 -8
q-4 -46 -34.5 -82t-74.5 -44q-11 -2 -86 -10h-8q-76 0 -121 45q2 -4 2 -8v-9q0 -32 -29 -37h-5q-32 0 -32 49q0 20 7 41v10q0 -5 -4 39q-2 6 -2 11l-2 18q-1 9 -1 16q0 41 30 41q33 0 33 -49v-10q0 -51 38 -69q44 -28 110 -28h9q74 0 90 65q0 3 1 7v6q0 55 -67 73
q-22 4 -87 15q-87 15 -120 56q-19 19 -23 51q-1 4 -1 8v6q0 38 31 91q37 51 125 63q4 0 13 1h24q62 0 96 -34v5z" />
    <glyph glyph-name="t" unicode="t" horiz-adv-x="370" 
d="M153 474h115q43 0 43 -35v-3q0 -36 -43 -36l-115 1v-236q0 -107 64 -107q65 0 65 76v60q0 15 12 28t27 13h3q29 -3 29 -35v-6q0 -4 1 -8v-7q0 -3 1 -9v-9q0 -74 -35 -121q-38 -52 -110 -52h-8q-5 0 -9 1q-118 11 -118 147v265h-50q-31 0 -31 35v3q0 33 31 34l50 1v107
q0 31 35 36h10q33 -5 33 -32v-111z" />
    <glyph glyph-name="u" unicode="u" horiz-adv-x="590" 
d="M412 59q-14 -35 -60 -54q-38 -16 -82 -16h-12q-4 0 -8 1q-65 5 -106 39q-46 38 -46 100v244q0 33 -46 33h-5q-3 0 -5 -1h-9q-4 -1 -6 -1q-32 0 -32 27v4q1 1 1 2v6q0 2 1 5q0 7 2 11q2 18 24 18q-2 0 30 -4q2 -1 6 -2q22 -5 32 -5l24 4q1 1 2 1t2 1q20 5 27 5
q23 0 23 -34v-299q0 -40 36 -67q33 -26 74 -26h10q3 0 6 1q56 5 85 54q25 41 25 101v166q0 38 -32 38q-7 0 -19 -2l-3 -1h-1q-10 -2 -20 -2q-24 0 -24 30q0 39 35 39q15 0 24 -3h5q4 -1 6 -1q20 -5 29 -5t21 2q4 0 8 2l14 2q7 1 12 1q25 0 25 -30v-342q0 -43 28 -43
q8 0 18 2h2l2 1q10 2 19 2h3q20 -3 20 -27q0 -36 -28 -36q-12 0 -28 4h-2q-2 0 -3 1l-12 2q-6 1 -12 1q-9 0 -24 -5h-2q-2 -1 -3 -1q-24 -6 -28 -6h-3q-22 3 -22 44q0 1 1 4v7q1 2 1 4v4z" />
    <glyph glyph-name="v" unicode="v" horiz-adv-x="590" 
d="M298 73l107 314v11q0 8 -11 8q-7 0 -15 -2h-3q-6 -2 -9 -2h-11q-1 0 -2 1q-13 4 -18 19l-2 16q-2 2 -2 3q0 27 37 27q7 0 22 -2t22 -2q27 -5 35 -5q19 0 43 4h4l22 2q11 1 19 1q38 0 38 -25q0 -11 -4 -19q-4 -12 -13 -19q-9 -3 -10 -3q-5 0 -16 3t-16 3q-16 0 -30 -34
l-137 -342q-7 -31 -48 -41q-2 0 -7 -1h-12q-34 0 -47 34l-136 365q-7 19 -23 19q-4 0 -9 -1l-20 -4q-5 -1 -9 -1q-25 0 -25 50q0 18 34 18q9 0 19 -1l20 -2h5q4 -1 6 -1q32 -5 44 -5q14 0 34 6q7 0 22 2.5t22 2.5q45 0 45 -34q0 -31 -30 -36h-7q-15 0 -19 2h-3q-12 2 -19 2
q-15 0 -13 -12q0 -1 0.5 -1.5l1.5 -1.5l2 -1v-2z" />
    <glyph glyph-name="w" unicode="w" horiz-adv-x="771" 
d="M375 387l-71 -328q-15 -70 -63 -70h-5q-44 0 -55 40l-99 351q-3 23 -22 28q-2 0 -5 1h-13q-5 -1 -8 -1q-8 -2 -16 -2q-27 0 -28 37q-1 25 47 25q17 0 37 -2q10 -2 19 -2q35 -5 46 -5q20 0 32 3q4 0 18 3q28 5 45 5q35 0 34 -27q-1 -43 -41 -43q-9 0 -21 2h-3q-2 1 -3 1
q-21 3 -24 3q-18 0 -18 -22h1q0 -3 1 -5l80 -320l78 364q2 20 19.5 33.5t37.5 13.5h10q4 -1 6 -1q41 -10 48 -47l73 -363l78 332q0 17 -20 17q-11 0 -25 -4h-3q-1 -1 -2 -1l-12 -2q-6 -1 -11 -1v0h-5q-22 3 -22 38v6q0 24 45 24q11 0 22 -1l22 -2q3 -1 6 -1h4q35 -5 50 -5
q14 0 36 6q3 0 8.5 1t8.5 1q12 3 29 3q41 0 41 -31v-2q0 -33 -23 -36q-1 -1 -2 -1h-3q-6 0 -19 2t-19 2h-3q-22 -2 -25 -25l-100 -356q-4 -29 -50 -34q-2 -1 -4 -1h-4q-7 0 -13 2q-40 7 -51 61z" />
    <glyph glyph-name="x" unicode="x" horiz-adv-x="611" 
d="M302 302l71 78q21 23 21 26l-3 1q-5 -5 -25 -5q-29 0 -29 41q0 27 41 27q42 0 74 -4h15q14 0 42.5 2t42.5 2q36 0 36 -27v-6q-5 -30 -23 -35h-4q-10 0 -22 4q-19 3 -26 3q-25 0 -46 -23l-122 -134l136 -165q19 -29 48 -28l29 1q2 -1 4 -1h2q21 -3 24 -23v-9
q0 -27 -48 -27h-12q-14 0 -32 4q-44 4 -36 4q-8 0 -21 -2l-26 -4q-6 -2 -11 -2l-40 -4q-39 0 -39 33q0 32 30 32h5q2 0 4 -1h7q5 -1 7 -1l10 -2q5 -1 8 -1q5 0 6 3q-6 19 -13 27l-92 108l-94 -107q-16 -18 -16 -24q0 -5 9 -5q6 0 18 1t18 1h6q2 -1 4 -1h2q23 0 23 -28l1 -1
q0 -32 -39 -32q-15 0 -45 5t-45 5q6 0 -42 -4q-2 -1 -3 -1h-3q-16 -3 -39 -3q-43 0 -43 29v2l1 1v1q0 1 1 2v1q0 27 21 27q7 0 17 -2q6 0 12 -2h7q11 0 16 3q24 7 33 31l137 159l-129 142l-12 9q-16 8 -26 8h-3q-2 0 -7 -1.5t-8 -1.5q-8 -4 -15 -4q-18 0 -29 32v3q-3 6 -3 9
q0 22 39 22q14 0 42 -2t42 -2h21l18 2q45 5 56 5q36 0 36 -30q0 -32 -29 -37h-9q-3 0 -6 1h-5q-2 0 -6 1h-6q-4 0 -4 -5v0q0 -1 1 -1v-2l1 -1q0 -2 1 -3h1v-1l2 -1v-1z" />
    <glyph glyph-name="y" unicode="y" horiz-adv-x="590" 
d="M298 73l114 300q5 13 5 27q0 13 -14 13q-3 0 -24 -3q-1 -1 -3 -1t-3 -1q-10 -2 -20 -2h-5q-21 5 -21 37q0 30 44 30q9 0 93 -14q10 0 34 6q8 0 24.5 2.5t24.5 2.5q37 0 37 -23v-3q-9 -38 -26 -38q-6 0 -14 2h-3q-2 0 -6 1h-6q-20 0 -35 -25q-4 -6 -9 -19l-165 -392
q-32 -76 -106 -127q-42 -29 -93 -29h-9q-50 0 -90 27q-46 30 -46 78q0 26 17 45t43 19q7 0 17 -4h2q4 -2 7 -2q20 -5 25 -33v-11q-1 -3 -1 -5q-8 -29 -27 -29h-4q24 -19 60 -19h7q27 0 81 39q42 40 42 78q0 23 -11 51l-129 329q-11 27 -34 32q-2 1 -4 1h-5q-9 0 -17 -2
q-2 -1 -3 -1h-3q-12 -4 -21 -4q-19 0 -19 30q0 39 37 39q20 0 40 -6q5 0 11 -2q35 -8 46 -8q20 0 40 4q6 2 12 2l26 4q13 2 22 2q37 0 37 -35q0 -32 -27 -32q-9 0 -19 2h-1q-19 3 -22 3q-14 0 -14 -14q0 -2 2 -4v-2q1 -2 1 -3z" />
    <glyph glyph-name="z" unicode="z" horiz-adv-x="508" 
d="M357 409h-194q-56 0 -56 -41q0 -12 4 -28v0v-1q4 -16 4 -29q0 -23 -30 -23q-33 0 -33 39q0 16 2 24q0 5 1.5 14.5t1.5 14.5v19l-2 10q-1 5 -1 10q-4 14 -4 25q0 30 49 30l301 1q56 0 56 -42q0 -11 -5 -21q-7 -20 -23 -32l-314 -306h257q22 0 22 34q0 -3 -2 29l-2 32
q-3 53 39 53q27 0 27 -50v-16q-6 -42 -6 -62q0 -12 2 -28v-5q2 -12 2 -24q0 -35 -32 -35l-343 1q-53 0 -53 49q0 24 18 42z" />
    <glyph glyph-name="braceleft" unicode="{" horiz-adv-x="267" 
d="M87 274q64 -15 80 -69q5 -17 5 -34v-183q0 -31 10 -47t38 -28q11 -5 11 -12v-6q-2 -10 -30 -10q-23 0 -43 9q-71 24 -71 86v203q0 17 -4 26q-7 22 -31 35q-2 0 -4 2q-20 7 -20 23q0 6 5 11q7 10 19 14q35 18 35 64v166q0 86 71 109q15 5 37 5q23 0 34 -6l2 -2
q-6 -15 -25 -20h-1q0 -1 -1 -1q-32 -11 -32 -65v-185q0 -34 -19 -60q-22 -28 -55 -28h-2l-3 2h-6v1z" />
    <glyph glyph-name="bar" unicode="|" horiz-adv-x="569" 
d="M252 638h57v-636h-57v636z" />
    <glyph glyph-name="braceright" unicode="}" horiz-adv-x="267" 
d="M165 266q-37 -1 -59 36q-19 31 -19 70v173q0 51 -28 62q-29 6 -29 15q0 16 37 16q41 0 69.5 -23.5t28.5 -63.5v-178q0 -61 36 -79q25 -13 25 -32q0 -9 -8 -17t-17 -8q-36 -11 -36 -59v-205q0 -38 -28.5 -59.5t-67.5 -21.5q-41 0 -41 16l2 1q0 3 9 8q8 2 20 6q28 17 28 57
v185q0 82 78 100v1z" />
    <glyph glyph-name="asciitilde" unicode="~" horiz-adv-x="569" 
d="M87 172l-43 50q54 104 132 104q33 0 103 -31t94 -31q41 0 94 80l43 -49q-46 -104 -135 -104q-17 0 -68 16t-61 26q-40 18 -68 18q-41 0 -70 -44q-6 -13 -21 -36v1z" />
    <glyph glyph-name="dagger" unicode="&#x2020;" 
 />
    <glyph glyph-name="cent" unicode="&#xa2;" horiz-adv-x="611" 
d="M337 144q5 -1 10 0q35 3 61 35q24 29 29 65q0 30 36 33q2 1 4 1h7q1 0 3 -1q30 -5 30 -35v-4q-13 -102 -106 -147q-39 -19 -74 -19v-99q0 -29 -28 -32h-3q-32 0 -32 32v100q-3 -3 -8 -3q-91 0 -144 79q-46 68 -46 164v16q0 90 55 158.5t143 78.5v86q0 31 32 31h3
q28 -3 28 -32v-84q83 -2 151 -80q24 -28 24 -67q0 -35 -23.5 -59.5t-58.5 -24.5q-52 0 -52 44v3q0 46 45 46q0 28 -37 53q-24 16 -49 20v-358zM274 503q-56 -23 -87 -72.5t-31 -111.5v-3q0 -2 1 -3v-3q0 -66 25 -111q31 -56 92 -56v360z" />
    <glyph glyph-name="sterling" unicode="&#xa3;" horiz-adv-x="771" 
d="M304 115l59 -32q57 -31 97 -31q68 0 73 91q1 15 -4 30q-15 48 -53 48q-9 0 -20 -5q-31 -15 -39 -45q-2 -23 -23 -31h-3q-3 -1 -4 -1h-2q-1 0 -3 1q-22 6 -21 38q1 42 34.5 73.5t75.5 31.5q40 0 69 -25q53 -46 53 -119q0 -64 -46 -117q-31 -36 -89 -36q-79 0 -176 72
q-32 -58 -113 -75l-17 -2q-9 -1 -17 -1q-54 0 -90 29q-39 31 -41 84q-1 44 42 83q32 29 82 29q63 0 126 -48q4 8 4 23q0 64 -48 149l-114 1q-32 0 -32 25v3q0 28 32 28l85 1q-18 64 -18 93q0 75 45.5 121t120.5 46q106 0 147 -74q12 -29 12 -51v-11q0 -73 -48 -73h-4
q-3 1 -5 1q-37 11 -37 48q0 12 5 20q8 19 26 30q-24 48 -88 48h-7q-5 -1 -8 -1q-42 -6 -67.5 -35.5t-25.5 -71.5q0 -37 25 -91l156 1q38 0 38 -29v-3q-3 -26 -38 -26l-128 1q38 -66 38 -143v-6q0 -42 -16 -67v1zM226 87q-1 0 -1.5 0.5t-0.5 1.5q-25 27 -70 37q-8 3 -23 3h-4
q-2 0 -4 1h-9q-19 0 -32 -9q-16 -10 -15 -28q1 -23 19 -36.5t42 -13.5q58 0 98 43v1z" />
    <glyph glyph-name="section" unicode="&#xa7;" horiz-adv-x="611" 
d="M194 423q-54 30 -54 90v5q0 59 58 105q34 27 127 35l12 1q78 -9 127 -55q24 -22 24 -60q0 -71 -65 -71q-9 0 -22 6q-26 12 -26 35q0 25 34 52q-46 26 -93 26q-31 0 -57 -16t-32 -45v-6q-1 -4 -1 -6q0 -20 19 -39q6 -6 105 -60q4 -2 17 -9q67 -35 84 -53q45 -32 45 -85v-4
q0 -36 -26.5 -75t-60.5 -58q67 -32 67 -103v-12q0 -4 -1 -7q-6 -61 -58 -98q-48 -35 -111 -35h-18q-68 0 -120 34q-60 39 -60 104v6q0 3 1 6q6 58 48 65q3 1 6 1h9q2 0 4 -1q51 -11 51 -53q0 -14 -10 -28q-15 -17 -38 -27q52 -41 116 -41q36 0 64 18q32 21 32 55
q0 38 -39 66q-27 19 -92.5 48t-95 52.5t-41.5 54.5q-11 19 -11 44q0 71 82 137v1zM238 387q-6 -11 -26 -45q-17 -29 -17 -46q0 -29 36 -52q1 -1 122 -66l13 -7q19 10 37 41q11 19 11 35v4q0 5 -3 22q-9 23 -28 37q-11 8 -41 23l-24 12l-80 41v1z" />
    <glyph glyph-name="bullet" unicode="&#x2022;" horiz-adv-x="309" 
d="M208 531l-121 50q-19 8 -25 22q-3 4 -3 12v4q0 1 1 3q10 33 38 40h10q2 -1 4 -1l10 -4q5 -2 8 -6l108 -91q16 -13 16 -26t-20 -13q-8 0 -26 9v1z" />
    <glyph glyph-name="paragraph" unicode="&#xb6;" horiz-adv-x="611" 
d="M474 -133q0 -24 -29 -27h-8q-28 3 -28 27v671q0 29 -22 29h-3q-18 -6 -18 -37v-663q0 -18 -27 -23q-6 -2 -12 -2q-25 0 -25 18v399q-3 -1 -6 -1h-8q-3 -1 -6 -1h-7q-14 -2 -26 -2q-205 0 -205 195q0 185 184 185h22l116 -7q15 -1 38 2q32 4 37 4l31 2q16 1 27 1
q61 0 61 -36v-8q0 -24 -18 -24q-10 0 -20 2h-2q-10 2 -19 2q-27 0 -27 -43v-663zM302 524q0 35 -39 41q-4 1 -7 1h-7l-38 1q-42 1 -72.5 -36.5t-30.5 -80.5v-4q-1 -2 -1 -3v-2q0 -103 96 -123q14 -3 26 -3q24 0 46 10q27 12 27 33v166z" />
    <glyph glyph-name="germandbls" unicode="&#xdf;" horiz-adv-x="590" 
d="M284 21q0 -23 -24 -29q-2 -1 -4 -1h-9q-29 5 -29 31v157q0 35 26 38h3q37 0 37 -51v-8q0 -3 -1 -7.5t-1 -7.5q0 -39 24 -62t63 -23h6q3 0 7 1q39 4 67.5 28.5t28.5 62.5q0 45 -51 79l-121 79q-38 25 -38 52t34 56q50 43 57 50q35 35 35 62t-29 41q-22 11 -52 11
q-137 0 -137 -172v-349q0 -63 -37 -63q-3 1 -27 4q-3 0 -5 2l-16 4q-8 2 -15 2q-8 0 -28 -4l-10 -2q-6 -2 -11 -2h-11q-32 0 -31 36q1 23 27 23h11q7 -1 11 -1h1q1 0 1 -1h12q8 -1 12 -1q38 0 38 44v273q0 26 -28 26h-8q-3 -1 -5 -1v0h-6q-3 -1 -5 -1q-28 0 -28 35q1 5 2 7
v4q2 20 19 20q9 0 21 -4h3q1 -1 2 -1q14 -3 18 -3q18 0 28 21q3 12 12 36q44 124 175 139l9 1q76 -7 132 -58q39 -35 39 -76v-7q-1 -5 -1 -8q-5 -18 -13 -30l-14 -16q-15 -17 -62 -58q-22 -19 -22 -34q0 -8 8 -14q7 -9 24 -15q61 -23 106 -74q50 -56 50 -117q0 -45 -30 -85
t-73 -54l-38 -10l-18 -2q-9 -1 -17 -1q-73 0 -94 43v-15z" />
    <glyph glyph-name="acute" unicode="&#xb4;" horiz-adv-x="309" 
d="M66 538l113 100q5 3 19 8q5 1 8 1q18 0 32 -16.5t14 -34.5q0 -21 -14 -23l-144 -56q-1 -3 -5 -3q-15 -5 -20 -5q-14 0 -14 10q0 5 4 10q1 2 3 4l4 4v1z" />
    <glyph glyph-name="dieresis" unicode="&#xa8;" horiz-adv-x="490" 
d="M218 581q0 21 15.5 35t36.5 14h3q23 0 38.5 -17t15.5 -40q0 -47 -47 -52h-11q-3 1 -5 1q-46 11 -46 58v1zM55 581q0 37 38 48q3 0 6 1h9q20 0 37 -15t17 -35q0 -52 -47 -57h-12q-20 3 -35 17t-15 33q1 1 1 3v1q1 1 1 2v2z" />
    <glyph glyph-name="AE" unicode="&#xc6;" 
 />
    <glyph glyph-name="Oslash" unicode="&#xd8;" horiz-adv-x="970" 
d="M474 638q72 -10 117 -10q-3 0 54 2l229 8q43 2 43 -65v-8q0 -4 -1 -9q0 -9 -2.5 -27t-2.5 -27q0 -8 3 -34q0 -4 2 -10q4 -44 4 -40q0 -39 -39 -39q-34 0 -34 45q0 14 2 32v3q0 4 2 17v13q0 77 -69 77l-151 1q-36 0 -50 -11.5t-14 -46.5v-150h78q39 0 50 9q15 10 15 47
q0 4 -1 11.5t-1 11t-2 8.5v9q-1 6 -1 9q0 38 34 38l3 1q31 -2 31 -67q0 -23 -5 -80q-1 -11 -1 -20q0 -27 4 -57v-2q0 -2 1 -3l4 -60q4 -57 -37 -57h-2q-2 0 -3 -1h-5q-2 -1 -3 -1q-24 0 -24 25q0 4 3 28q0 11 2 25v11q0 49 -69 50l-71 1v-194q0 -31 37 -31q3 0 6 1h15
q4 1 6 1l136 1q18 -3 41 -3q32 0 44 22q8 16 8 51q0 5 -1 15t-1 15v23q0 77 37 77l4 1q32 -2 32 -67v-18q-1 -7 -5 -59q-1 -13 -1 -16v-75q0 -26 -8.5 -32.5t-35.5 -5.5l-272 8q-33 -2 -99 -9q-10 0 -30.5 -1t-30.5 -1q-78 0 -78 37l1 2q0 2 1 5v1q3 23 27 23q5 0 13.5 -1
t13.5 -1q18 -3 26 -3q35 0 35 39v195h-172l-129 -208q-7 -11 -8 -17q0 -7 11 -7q4 0 10 1h17q3 0 5 1h19q25 -6 25 -32v-3q0 -32 -35 -32q-21 0 -45 6q-4 2 -7 2q-42 9 -49 9q-8 0 -33 -3q-14 -4 -26 -6l-28 -5q-17 -3 -22 -3q-25 0 -25 31q0 36 22 36q5 0 16 -2t16 -2
q31 0 51 32l315 516q17 28 46 28h12v1zM488 359v222l-136 -222h136z" />
    <glyph glyph-name="yen" unicode="&#xa5;" 
 />
    <glyph glyph-name="ordfeminine" unicode="&#xaa;" 
 />
    <glyph glyph-name="ordmasculine" unicode="&#xba;" 
 />
    <glyph glyph-name="ae" unicode="&#xe6;" horiz-adv-x="650" 
d="M421 552q7 13 7 17q0 5 -12 5q-7 0 -19 -2h-8q-5 -1 -8 -1h-22q-30 5 -30 37t37 32q5 0 68 -7q27 -3 38 -3q15 0 44 3.5t44 3.5q41 0 40 -29q-1 -31 -27 -34h-3q-7 0 -22 2t-22 2q-19 0 -25 -12l-59 -115h94q32 0 32 -29v-3q-3 -26 -32 -26l-122 1l-64 -113h179
q35 0 38 -23v-3q0 -25 -38 -25l-193 1v-130q0 -42 32 -42q6 0 17.5 1t17.5 1q32 0 32 -32q0 -33 -42 -33q-31 0 -49 6q-33 6 -37 6q-5 0 -40 -3q-20 -4 -50 -4q-47 0 -47 25q0 1 -1 3q0 32 25 32h9q11 -2 13 -2h3q4 -1 8 -1h6q32 0 32 42v131h-201q-27 0 -27 24v3
q3 22 27 22l179 1l-58 113h-121q-32 0 -32 25v3q0 28 32 28l92 1l-64 116q-2 5 -13 8q-1 0 -4 1h-4q-3 0 -9.5 -1t-9.5 -1q-17 -3 -20 -3q-25 0 -25 44q0 25 34 25q17 0 50.5 -5t50.5 -5q15 0 45.5 5t45.5 5q39 0 39 -32q0 -34 -34 -34q-9 0 -17 2h-4q-3 1 -5 1l-12 2
q-6 1 -10 1q-11 0 -11 -14v0v-3l6 -12l115 -228z" />
    <glyph glyph-name="oslash" unicode="&#xf8;" 
 />
    <glyph glyph-name="questiondown" unicode="&#xbf;" 
 />
    <glyph glyph-name="exclamdown" unicode="&#xa1;" 
 />
    <glyph glyph-name="florin" unicode="&#x192;" 
 />
    <glyph glyph-name="guillemotleft" unicode="&#xab;" 
 />
    <glyph glyph-name="guillemotright" unicode="&#xbb;" 
 />
    <glyph glyph-name="ellipsis" unicode="&#x2026;" horiz-adv-x="409" 
d="M52 316h314v-35h-314v35zM252 387q-14 -33 -83 -40h-19q-4 0 -7 1q-90 13 -90 79q0 9 4 21v3q2 4 2 8q6 33 48 50q33 14 72 14q29 0 53 16q13 9 13 25v10q-4 27 -50 32h-14q-32 0 -51 -19q6 -5 16 -20q1 -5 1 -8q0 -23 -32 -26q-2 -1 -3 -1h-7q-2 0 -4 1q-30 5 -30 34
l2 7q0 36 41 58q34 19 73 19q43 0 72 -17q36 -21 36 -61v-157q0 -26 14 -26q1 0 3 1l4 2q9 12 9 25v6q-1 4 -1 6v1q0 12 -3 17q0 20 22 23h6q24 -3 24 -28v-11q0 -33 -13 -57q-16 -30 -46 -30h-11q-4 1 -6 1q-36 10 -45 40v1zM245 496q-10 -14 -61 -19h-5q-36 -4 -47 -9
q-25 -11 -25 -36v-2q0 -2 1 -3v-8q8 -24 59 -24h7q1 0 6 1q29 5 42 19q23 20 23 56v25z" />
    <glyph glyph-name="OE" unicode="&#x152;" horiz-adv-x="508" 
d="M393 437q74 -72 74 -193v-3q0 -100 -57 -173q-61 -80 -158 -80q-59 0 -117 27l-43 -63q-2 -5 -17 -8q-2 -1 -5 -1h-7q-24 3 -24 16q0 3 2 4t2 3l49 78q-72 77 -72 188q0 103 59 176q63 79 164 79q40 0 91 -15q5 -2 16 -6l35 58q0 3 24 3h9q24 -3 24 -9v-1zM357 380
l-186 -307q19 -26 65 -26q76 0 116 67q33 55 33 137q0 72 -28 128v1zM314 409q-13 4 -39 10q-9 3 -26 3q-71 0 -114 -56q-39 -51 -39 -124q0 -60 32 -142z" />
    <glyph glyph-name="oe" unicode="&#x153;" horiz-adv-x="569" 
d="M416 44q-15 -38 -47 -38h-3q-30 5 -36 45q0 27 27 45q22 15 52 18h8q17 0 36 -7q41 -15 50 -75q0 -3 1 -9v-10q0 -14 -5 -34q-18 -70 -87 -108q-60 -33 -138 -33q-80 0 -117 11q-51 15 -89 65t-38 103q0 7 3 29q12 52 61 90q7 7 85 44q95 45 95 107v15q0 11 10 19t22 8h5
q3 -1 5 -1q29 -11 29 -48v-6q0 -80 -108 -141l-59 -31q-41 -22 -48 -37q-16 -33 -16 -61q0 -52 52 -80q42 -23 99 -23q31 0 72 8q16 3 31 12q53 31 63 74q0 3 1 6v9q0 2 -1 4q-2 16 -15 29v1zM238 430q0 50 57 50h4q51 0 60 -51v-6q0 -24 -16.5 -41t-40.5 -17h-8
q-25 0 -40.5 19t-15.5 45v1z" />
    <glyph glyph-name="endash" unicode="&#x2013;" horiz-adv-x="309" 
d="M94 295q0 36 36 36h3q39 0 39 -37v-420q0 -43 -39 -43h-3q-36 0 -36 43v421zM73 423q0 50 57 50h4q51 0 60 -51v-6q0 -25 -17.5 -41.5t-42.5 -16.5h-8q-53 5 -53 64v1z" />
    <glyph glyph-name="emdash" unicode="&#x2014;" 
 />
    <glyph glyph-name="quotedblleft" unicode="&#x201c;" 
 />
    <glyph glyph-name="quotedblright" unicode="&#x201d;" 
 />
    <glyph glyph-name="quoteleft" unicode="&#x2018;" 
 />
    <glyph glyph-name="quoteright" unicode="&#x2019;" 
 />
    <glyph glyph-name="fraction" unicode="&#x2044;" 
 />
    <glyph glyph-name="currency" unicode="&#xa4;" horiz-adv-x="711" 
d="M94 94l187 501q11 30 48 35h13q41 0 45 -29l187 -507q12 -33 48 -41q3 0 9 -1h8l29 1q35 -3 35 -24q0 -36 -53 -36q-23 0 -47 4h-7q-28 4 -51 4q-24 0 -56 -6q-7 0 -13 -2l-48 -4q-55 -5 -55 40q0 30 36 30q6 0 29 -3h1v-1q27 -3 30 -3q19 0 19 18v10l-35 99
q-10 27 -18 31q-12 4 -34 4l-135 1q-43 0 -51 -22l-36 -99q-1 -7 -1 -9l-1 -1q-3 -12 -3 -10q0 -20 25 -20q13 0 29 2h4q14 2 26 2q37 0 37 -36q0 -27 -57 -27h-13q-1 0 -13 1l-68 5l-73 -5q-3 0 -13 -1h-14q-55 0 -55 25l-1 10q6 27 21 29h3q4 0 9 -1l10 -2q3 -1 10 -3h6
q4 -1 6 -1q4 0 14 3q18 9 27 38v1zM330 538l-78 -229q0 -4 -2 -8l-3 -14q0 -7 27 -7l120 1q9 -3 16 -3q6 0 6 3v0q-1 4 -5 19q-2 4 -2 8zM401 689l-120 50q-19 6 -26 22q-3 4 -3 12v4q0 1 1 3q12 40 41 40h7q1 0 3 -1q9 -2 19 -10l107 -91q2 -3 4 -4l3 -4q9 -12 9 -18
q0 -13 -18 -13q-9 0 -27 9v1z" />
    <glyph glyph-name="guilsinglleft" unicode="&#x2039;" horiz-adv-x="711" 
d="M94 94l187 501q11 30 48 35h13q41 0 45 -29l187 -507q12 -33 48 -41q3 0 9 -1h8l29 1q35 -3 35 -24q0 -36 -53 -36q-23 0 -47 4h-7q-28 4 -51 4q-24 0 -56 -6q-7 0 -13 -2l-48 -4q-55 -5 -55 40q0 30 36 30q6 0 29 -3h1v-1q27 -3 30 -3q19 0 19 18v10l-35 99
q-10 27 -18 31q-12 4 -34 4l-135 1q-43 0 -51 -22l-36 -99q-1 -7 -1 -9l-1 -1q-3 -12 -3 -10q0 -20 25 -20q13 0 29 2h4q14 2 26 2q37 0 37 -36q0 -27 -57 -27h-13q-1 0 -13 1l-68 5l-73 -5q-3 0 -13 -1h-14q-55 0 -55 25l-1 10q6 27 21 29h3q4 0 9 -1l10 -2q3 -1 10 -3h6
q4 -1 6 -1q4 0 14 3q18 9 27 38v1zM330 538l-78 -229q0 -4 -2 -8l-3 -14q0 -7 27 -7l120 1q9 -3 16 -3q6 0 6 3v0q-1 4 -5 19q-2 4 -2 8zM380 796q45 -15 68 -15q27 0 40 21l7 7q2 2 6 2q9 0 9 -18v-11q-14 -73 -74 -73h-4q-7 0 -79 18l-16 4q-29 12 -62 12q-37 0 -37 -19
v-2q-2 -7 -8 -10q-1 -1 -2 -1h-4q-11 3 -11 22l1 2v5q1 2 1 3v2q24 73 82 73h6q20 0 77 -23v1z" />
    <glyph glyph-name="guilsinglright" unicode="&#x203a;" horiz-adv-x="629" 
d="M25 318q0 2 -1 3v7q-1 2 -1 3q0 130 71 218q76 95 203 95h11q98 0 187 -90q80 -81 80 -239q0 -134 -66 -229q-77 -111 -202 -111h-12q-130 0 -204 109q-66 95 -66 231v3zM110 316q0 -104 41 -179q51 -94 146 -94h4q0 -1 1 -1v0h13q82 0 134 97q40 73 41 169
q2 101 -40 176q-51 92 -144 92h-17q-89 -8 -137 -93q-41 -71 -42 -168v1zM318 782l24 -8q40 -8 42 -8q21 0 31 12q7 6 20 19h2q2 0 4 -2q5 -8 5 -14v-14q-14 -72 -74 -72h-4q-27 0 -67 13q-65 21 -90 21q-37 0 -37 -20v-2q0 -1 -1 -2q-2 -5 -7 -7q-1 -1 -2 -1h-2
q-11 0 -11 21q0 2 1 6.5t1 6.5q24 73 81 73h6q2 0 5 -1q24 -2 73 -22v1z" />
    <glyph glyph-name="fi" unicode="&#xf001;" 
 />
    <glyph glyph-name="fl" unicode="&#xf002;" 
 />
    <glyph glyph-name="daggerdbl" unicode="&#x2021;" 
 />
    <glyph glyph-name="periodcentered" unicode="&#xb7;" 
 />
    <glyph glyph-name="periodcentered" unicode="&#x2219;" 
 />
    <glyph glyph-name="quotedblbase" unicode="&#x201e;" horiz-adv-x="892" 
d="M156 609q-57 -1 -70 -7q-24 -11 -29 -58l-29 1v86h315v-86h-29q0 47 -28 58q-13 5 -73 5v-278q0 -30 12.5 -40t43.5 -10h3v-21h-173v22q57 -2 57 48v280zM407 631h101l114 -279l122 279h107v-22q-28 -1 -34 -3q-16 -5 -16 -26v-257q0 -27 8 -35t35 -8v-21h-142v22
q28 -1 38.5 9.5t10.5 38.5v259l-136 -329h-8l-135 315v-244q0 -50 50 -50v-21h-129v22q28 -1 38.5 9.5t10.5 38.5v264q0 12 -12 15h-23v23z" />
    <glyph glyph-name="perthousand" unicode="&#x2030;" horiz-adv-x="611" 
d="M194 623q0 26 28 26h5q25 -6 25 -27v-235q0 -19 -25 -22h-5q-28 0 -28 21v237zM345 623q0 26 28 26t28 -27v-235q0 -22 -28 -22t-28 21v237z" />
    <glyph glyph-name="dotlessi" unicode="&#x131;" 
 />
    <glyph glyph-name="circumflex" unicode="&#x2c6;" 
 />
    <glyph glyph-name="tilde" unicode="&#x2dc;" horiz-adv-x="711" 
d="M94 94l187 501q11 30 48 35h13q41 0 45 -29l187 -507q12 -33 48 -41q3 0 9 -1h8l29 1q35 -3 35 -24q0 -36 -53 -36q-23 0 -47 4h-7q-28 4 -51 4q-24 0 -56 -6q-7 0 -13 -2l-48 -4q-55 -5 -55 40q0 30 36 30q6 0 29 -3h1v-1q27 -3 30 -3q19 0 19 18v10l-35 99
q-10 27 -18 31q-12 4 -34 4l-135 1q-43 0 -51 -22l-36 -99q-1 -7 -1 -9l-1 -1q-3 -12 -3 -10q0 -20 25 -20q13 0 29 2h4q14 2 26 2q37 0 37 -36q0 -27 -57 -27h-13q-1 0 -13 1l-68 5l-73 -5q-3 0 -13 -1h-14q-55 0 -55 25l-1 10q6 27 21 29h3q4 0 9 -1l10 -2q3 -1 10 -3h6
q4 -1 6 -1q4 0 14 3q18 9 27 38v1zM330 538l-78 -229q0 -4 -2 -8l-3 -14q0 -7 27 -7l120 1q9 -3 16 -3q6 0 6 3v0q-1 4 -5 19q-2 4 -2 8zM337 739l-122 -50q-1 -1 -2 -1.5t-2 -1.5h-2l-6 -2q-3 -1 -4 -1h-2q-1 0 -2 1q-11 2 -15 11v2q-1 1 -1 2q0 2 1 4l2 4q4 6 12 10
l122 86q27 9 29 9q8 0 14 -3l115 -84l14 -11q13 -15 13 -22v-2q-2 -7 -11 -7q-2 0 -5 1l-6 2q-1 0 -1 1v0h-2q-1 1 -2 1z" />
    <glyph glyph-name="macron" unicode="&#xaf;" horiz-adv-x="629" 
d="M131 531q0 37 -35 42h-7q-10 0 -20 -2h-3q-2 -1 -3 -1q-19 -3 -24 -3h-5q-25 6 -25 36l2 6v2q3 20 42 20h14q1 -1 2 -1h13l53 -5q32 -3 43 -3q17 0 50 4t50 4h4l230 8q49 2 49 -53v-19l-2 -14q-1 -7 -1 -14q-4 -18 -4 -29q0 -15 5 -47v-7q1 -1 1 -6q3 -18 3 -40
q0 -51 -37 -51q-36 0 -36 53q0 5 1 15v22q0 3 1 7v21q0 89 -75 90l-142 1q-65 0 -65 -51v-115q0 -26 29 -33q13 -3 51 -3q37 0 50 10.5t13 46.5q0 4 -1 11.5t-1 11t-2 8.5v9q-1 6 -1 9q0 38 34 38l3 1q27 -2 27 -55q0 -20 -2 -40q-2 -10 -2 -21q-5 -37 -5 -50q0 -12 6 -63
v-2q0 -1 1 -2l4 -34q2 -17 2 -31q0 -48 -34 -48h-2q-2 0 -3 -1h-5q-2 -1 -3 -1q-24 0 -24 27q0 7 1 15l2 16v9q2 12 2 24q0 55 -68 55q-41 0 -55 -11q-17 -14 -17 -53v-136q0 -43 48 -43h10l135 1q33 0 42 1q27 2 39 9q20 11 20 74v10q0 5 -1 10v10q-2 16 -2 30q0 55 32 55
l3 1q34 -2 34 -72v-9q0 -11 -1 -31.5t-1 -31.5v-79q0 -27 -7.5 -35t-34.5 -7l-265 8q-5 0 -41 -3l-46 -4q-1 -1 -2 -1h-2q-14 0 -42.5 -2.5t-42.5 -2.5q-74 0 -74 40q0 23 32 23h16q1 -1 2 -1v0h18q52 0 52 49v424zM290 753l-123 -50q-3 -3 -7 -3v0v0l-9 -3q-13 0 -19 12
q-1 1 -1 2v2q0 11 13 16q0 1 1 2h1l122 86l29 10q5 0 10 -3h2q1 -1 2 -1l114 -84q4 -4 13 -11q13 -15 13 -22v-2q-2 -7 -11 -7q-2 0 -8 3v0h-2q-2 2 -5 2z" />
    <glyph glyph-name="macron" unicode="&#x2c9;" horiz-adv-x="629" 
d="M131 531q0 37 -35 42h-7q-10 0 -20 -2h-3q-2 -1 -3 -1q-19 -3 -24 -3h-5q-25 6 -25 36l2 6v2q3 20 42 20h14q1 -1 2 -1h13l53 -5q32 -3 43 -3q17 0 50 4t50 4h4l230 8q49 2 49 -53v-19l-2 -14q-1 -7 -1 -14q-4 -18 -4 -29q0 -15 5 -47v-7q1 -1 1 -6q3 -18 3 -40
q0 -51 -37 -51q-36 0 -36 53q0 5 1 15v22q0 3 1 7v21q0 89 -75 90l-142 1q-65 0 -65 -51v-115q0 -26 29 -33q13 -3 51 -3q37 0 50 10.5t13 46.5q0 4 -1 11.5t-1 11t-2 8.5v9q-1 6 -1 9q0 38 34 38l3 1q27 -2 27 -55q0 -20 -2 -40q-2 -10 -2 -21q-5 -37 -5 -50q0 -12 6 -63
v-2q0 -1 1 -2l4 -34q2 -17 2 -31q0 -48 -34 -48h-2q-2 0 -3 -1h-5q-2 -1 -3 -1q-24 0 -24 27q0 7 1 15l2 16v9q2 12 2 24q0 55 -68 55q-41 0 -55 -11q-17 -14 -17 -53v-136q0 -43 48 -43h10l135 1q33 0 42 1q27 2 39 9q20 11 20 74v10q0 5 -1 10v10q-2 16 -2 30q0 55 32 55
l3 1q34 -2 34 -72v-9q0 -11 -1 -31.5t-1 -31.5v-79q0 -27 -7.5 -35t-34.5 -7l-265 8q-5 0 -41 -3l-46 -4q-1 -1 -2 -1h-2q-14 0 -42.5 -2.5t-42.5 -2.5q-74 0 -74 40q0 23 32 23h16q1 -1 2 -1v0h18q52 0 52 49v424zM290 753l-123 -50q-3 -3 -7 -3v0v0l-9 -3q-13 0 -19 12
q-1 1 -1 2v2q0 11 13 16q0 1 1 2h1l122 86l29 10q5 0 10 -3h2q1 -1 2 -1l114 -84q4 -4 13 -11q13 -15 13 -22v-2q-2 -7 -11 -7q-2 0 -8 3v0h-2q-2 2 -5 2z" />
    <glyph glyph-name="breve" unicode="&#x2d8;" horiz-adv-x="711" 
d="M94 94l187 501q11 30 48 35h13q41 0 45 -29l187 -507q12 -33 48 -41q3 0 9 -1h8l29 1q35 -3 35 -24q0 -36 -53 -36q-23 0 -47 4h-7q-28 4 -51 4q-24 0 -56 -6q-7 0 -13 -2l-48 -4q-55 -5 -55 40q0 30 36 30q6 0 29 -3h1v-1q27 -3 30 -3q19 0 19 18v10l-35 99
q-10 27 -18 31q-12 4 -34 4l-135 1q-43 0 -51 -22l-36 -99q-1 -7 -1 -9l-1 -1q-3 -12 -3 -10q0 -20 25 -20q13 0 29 2h4q14 2 26 2q37 0 37 -36q0 -27 -57 -27h-13q-1 0 -13 1l-68 5l-73 -5q-3 0 -13 -1h-14q-55 0 -55 25l-1 10q6 27 21 29h3q4 0 9 -1l10 -2q3 -1 10 -3h6
q4 -1 6 -1q4 0 14 3q18 9 27 38v1zM330 538l-78 -229q0 -4 -2 -8l-3 -14q0 -7 27 -7l120 1q9 -3 16 -3q6 0 6 3v0q-1 4 -5 19q-2 4 -2 8zM288 703l113 100q5 3 19 8q5 1 8 1q18 0 32 -16.5t14 -34.5q0 -20 -14 -23l-144 -58q-1 -1 -2.5 -1.5t-2.5 -1.5q-15 -5 -20 -5
q-11 0 -14 9v2q0 8 11 19v1z" />
    <glyph glyph-name="dotaccent" unicode="&#x2d9;" horiz-adv-x="629" 
d="M131 531q0 37 -35 42h-7q-10 0 -20 -2h-3q-2 -1 -3 -1q-19 -3 -24 -3h-5q-25 6 -25 36l2 6v2q3 20 42 20h14q1 -1 2 -1h13l53 -5q32 -3 43 -3q17 0 50 4t50 4h4l230 8q49 2 49 -53v-19l-2 -14q-1 -7 -1 -14q-4 -18 -4 -29q0 -15 5 -47v-7q1 -1 1 -6q3 -18 3 -40
q0 -51 -37 -51q-36 0 -36 53q0 5 1 15v22q0 3 1 7v21q0 89 -75 90l-142 1q-65 0 -65 -51v-115q0 -26 29 -33q13 -3 51 -3q37 0 50 10.5t13 46.5q0 4 -1 11.5t-1 11t-2 8.5v9q-1 6 -1 9q0 38 34 38l3 1q27 -2 27 -55q0 -20 -2 -40q-2 -10 -2 -21q-5 -37 -5 -50q0 -12 6 -63
v-2q0 -1 1 -2l4 -34q2 -17 2 -31q0 -48 -34 -48h-2q-2 0 -3 -1h-5q-2 -1 -3 -1q-24 0 -24 27q0 7 1 15l2 16v9q2 12 2 24q0 55 -68 55q-41 0 -55 -11q-17 -14 -17 -53v-136q0 -43 48 -43h10l135 1q33 0 42 1q27 2 39 9q20 11 20 74v10q0 5 -1 10v10q-2 16 -2 30q0 55 32 55
l3 1q34 -2 34 -72v-9q0 -11 -1 -31.5t-1 -31.5v-79q0 -27 -7.5 -35t-34.5 -7l-265 8q-5 0 -41 -3l-46 -4q-1 -1 -2 -1h-2q-14 0 -42.5 -2.5t-42.5 -2.5q-74 0 -74 40q0 23 32 23h16q1 -1 2 -1v0h18q52 0 52 49v424zM167 746q0 37 38 48q3 0 6 1h6q23 0 40.5 -14t17.5 -36
q0 -23 -13 -41t-35 -18h-9q-3 1 -5 1q-48 11 -48 51v2q2 2 2 5v1zM332 746q0 21 14.5 35t35.5 14h3q23 0 38.5 -17t15.5 -40q0 -22 -14 -37t-36 -15h-4q-2 0 -3 1q-22 2 -36 19t-14 39v1z" />
    <glyph glyph-name="ring" unicode="&#x2da;" horiz-adv-x="629" 
d="M131 531q0 37 -35 42h-7q-10 0 -20 -2h-3q-2 -1 -3 -1q-19 -3 -24 -3h-5q-25 6 -25 36l2 6v2q3 20 42 20h14q1 -1 2 -1h13l53 -5q32 -3 43 -3q17 0 50 4t50 4h4l230 8q49 2 49 -53v-19l-2 -14q-1 -7 -1 -14q-4 -18 -4 -29q0 -15 5 -47v-7q1 -1 1 -6q3 -18 3 -40
q0 -51 -37 -51q-36 0 -36 53q0 5 1 15v22q0 3 1 7v21q0 89 -75 90l-142 1q-65 0 -65 -51v-115q0 -26 29 -33q13 -3 51 -3q37 0 50 10.5t13 46.5q0 4 -1 11.5t-1 11t-2 8.5v9q-1 6 -1 9q0 38 34 38l3 1q27 -2 27 -55q0 -20 -2 -40q-2 -10 -2 -21q-5 -37 -5 -50q0 -12 6 -63
v-2q0 -1 1 -2l4 -34q2 -17 2 -31q0 -48 -34 -48h-2q-2 0 -3 -1h-5q-2 -1 -3 -1q-24 0 -24 27q0 7 1 15l2 16v9q2 12 2 24q0 55 -68 55q-41 0 -55 -11q-17 -14 -17 -53v-136q0 -43 48 -43h10l135 1q33 0 42 1q27 2 39 9q20 11 20 74v10q0 5 -1 10v10q-2 16 -2 30q0 55 32 55
l3 1q34 -2 34 -72v-9q0 -11 -1 -31.5t-1 -31.5v-79q0 -27 -7.5 -35t-34.5 -7l-265 8q-5 0 -41 -3l-46 -4q-1 -1 -2 -1h-2q-14 0 -42.5 -2.5t-42.5 -2.5q-74 0 -74 40q0 23 32 23h16q1 -1 2 -1v0h18q52 0 52 49v424zM361 689l-121 50q-20 8 -26 22q-3 4 -3 12v4q0 1 1 3
q12 40 41 40h7q1 0 3 -1q9 -2 19 -10l107 -91q16 -14 16 -26q0 -13 -18 -13q-3 0 -7 1l-8 2q-4 2 -11 6v1z" />
    <glyph glyph-name="cedilla" unicode="&#xb8;" horiz-adv-x="348" 
d="M121 517q0 49 -45 49q-7 0 -21 -2t-21 -2q-34 0 -34 39q0 29 48 29q-3 0 56 -4l59 -4q3 0 45 5q8 0 34 3q5 0 15 1h15q57 0 57 -23q0 -41 -38 -41q-3 0 -10 1h-13q-5 1 -9 1h-9q-44 0 -44 -53v-408q0 -57 46 -56l36 1q1 -1 2 -1h1q38 0 38 -30v-4q0 -23 -52 -23
q-20 0 -42 2q-3 1 -6 1h-8q-21 3 -50 3q-32 0 -55 -3h-5q-11 0 -32.5 -1.5t-18.5 -1.5q-60 0 -60 34q3 27 30 27q10 0 22 -2q4 0 11.5 -1t11.5 -1q46 0 46 55v410zM71 710l114 100q21 10 26 10q18 0 32.5 -17t14.5 -35q0 -19 -15 -23l-144 -56q-1 -1 -2.5 -1.5t-2.5 -1.5h-2
q-1 -1 -2 -1q-8 -4 -15 -4q-15 0 -15 9q0 3 11 19v1z" />
    <glyph glyph-name="hungarumlaut" unicode="&#x2dd;" horiz-adv-x="348" 
d="M121 517q0 49 -45 49q-7 0 -21 -2t-21 -2q-34 0 -34 39q0 29 48 29q-3 0 56 -4l59 -4q3 0 45 5q8 0 34 3q5 0 15 1h15q57 0 57 -23q0 -41 -38 -41q-3 0 -10 1h-13q-5 1 -9 1h-9q-44 0 -44 -53v-408q0 -57 46 -56l36 1q1 -1 2 -1h1q38 0 38 -30v-4q0 -23 -52 -23
q-20 0 -42 2q-3 1 -6 1h-8q-21 3 -50 3q-32 0 -55 -3h-5q-11 0 -32.5 -1.5t-18.5 -1.5q-60 0 -60 34q3 27 30 27q10 0 22 -2q4 0 11.5 -1t11.5 -1q46 0 46 55v410zM156 746l-120 -50q-2 -2 -4 -2v0q0 -1 -1 -1l-6 -2q-3 -1 -5 -1h-2q-1 0 -2 1q-11 2 -15 11v2q-1 1 -1 2
q0 5 3 8q4 7 11 10l121 86q30 10 28 10q7 0 15 -4l115 -84l14 -11q13 -15 13 -22v-2q-2 -5 -9 -7v0h-2q-1 0 -4 1l-6 2h-2q-2 2 -4 2z" />
    <glyph glyph-name="ogonek" unicode="&#x2db;" horiz-adv-x="348" 
d="M121 517q0 49 -45 49q-7 0 -21 -2t-21 -2q-34 0 -34 39q0 29 48 29q-3 0 56 -4l59 -4q3 0 45 5q8 0 34 3q5 0 15 1h15q57 0 57 -23q0 -41 -38 -41q-3 0 -10 1h-13q-5 1 -9 1h-9q-44 0 -44 -53v-408q0 -57 46 -56l36 1q1 -1 2 -1h1q38 0 38 -30v-4q0 -23 -52 -23
q-20 0 -42 2q-3 1 -6 1h-8q-21 3 -50 3q-32 0 -55 -3h-5q-11 0 -32.5 -1.5t-18.5 -1.5q-60 0 -60 34q3 27 30 27q10 0 22 -2q4 0 11.5 -1t11.5 -1q46 0 46 55v410zM43 753q0 49 49 49q22 0 39.5 -14t17.5 -36q0 -23 -13 -41t-35 -18h-7q-2 0 -3 1q-20 2 -35 16.5t-15 34.5v2
q2 2 2 5v1zM206 753q0 22 15 35.5t37 13.5q24 0 40 -16.5t16 -40.5q0 -52 -48 -52h-7q-2 0 -3 1q-22 2 -36 19t-14 39v1z" />
    <glyph glyph-name="caron" unicode="&#x2c7;" horiz-adv-x="348" 
d="M121 517q0 49 -45 49q-7 0 -21 -2t-21 -2q-34 0 -34 39q0 29 48 29q-3 0 56 -4l59 -4q3 0 45 5q8 0 34 3q5 0 15 1h15q57 0 57 -23q0 -41 -38 -41q-3 0 -10 1h-13q-5 1 -9 1h-9q-44 0 -44 -53v-408q0 -57 46 -56l36 1q1 -1 2 -1h1q38 0 38 -30v-4q0 -23 -52 -23
q-20 0 -42 2q-3 1 -6 1h-8q-21 3 -50 3q-32 0 -55 -3h-5q-11 0 -32.5 -1.5t-18.5 -1.5q-60 0 -60 34q3 27 30 27q10 0 22 -2q4 0 11.5 -1t11.5 -1q46 0 46 55v410zM222 689l-123 50q-28 11 -28 34v4q0 1 1 3q10 33 38 40h10q2 -1 4 -1l10 -4q5 -2 8 -6l108 -91
q16 -13 16 -26t-17 -13q-9 0 -27 9v1z" />
    <glyph glyph-name="Lslash" unicode="&#x141;" horiz-adv-x="629" 
d="M25 318q0 2 -1 3v7q-1 2 -1 3q0 130 71 218q76 95 203 95h11q98 0 187 -90q80 -81 80 -239q0 -134 -66 -229q-77 -111 -202 -111h-12q-130 0 -204 109q-66 95 -66 231v3zM110 316q0 -104 41 -179q51 -94 146 -94h4q0 -1 1 -1v0h13q82 0 134 97q40 73 41 169
q2 101 -40 176q-51 92 -144 92h-17q-89 -8 -137 -93q-41 -71 -42 -168v1zM226 710l113 100q5 3 19 9q5 1 8 1q28 0 41 -35q3 -14 3 -17q0 -20 -14 -23l-150 -59q-1 -1 -2 -1q-10 -4 -17 -4q-14 0 -14 9t13 19v1z" />
    <glyph glyph-name="lslash" unicode="&#x142;" horiz-adv-x="629" 
d="M25 318q0 2 -1 3v7q-1 2 -1 3q0 130 71 218q76 95 203 95h11q98 0 187 -90q80 -81 80 -239q0 -134 -66 -229q-77 -111 -202 -111h-12q-130 0 -204 109q-66 95 -66 231v3zM110 316q0 -104 41 -179q51 -94 146 -94h4q0 -1 1 -1v0h13q82 0 134 97q40 73 41 169
q2 101 -40 176q-51 92 -144 92h-17q-89 -8 -137 -93q-41 -71 -42 -168v1zM304 753l-123 -50q-3 -3 -7 -3v0v0l-9 -3q-12 0 -18 12q-1 1 -1 2v2q0 8 14 18l122 86l29 10q5 0 10 -3h2q1 -1 2 -1l114 -84q4 -4 13 -11q13 -15 13 -22v-2q-2 -7 -10 -7l-9 3q-1 0 -3.5 1t-3.5 1z
" />
    <glyph glyph-name="Eth" unicode="&#xd0;" horiz-adv-x="668" 
d="M108 531q0 38 -41 38h-11q-7 -1 -11 -1v-1h-12q-6 -1 -10 -1q-34 0 -34 35q0 32 43 32q-2 0 46 -4q2 -1 4 -1h4q30 -6 51 -6q14 0 51 5q10 0 30.5 2t30.5 2q60 0 60 -33v-3q0 -28 -34 -28q-7 0 -22 1t-22 1q-37 0 -37 -39v-365q0 -56 42 -88q39 -30 96 -30h8
q59 0 100 36.5t41 94.5v353q0 35 -42 35q-6 0 -19 -1t-19 -1q-42 0 -42 37q0 29 46 29q18 0 52.5 -4t52.5 -4q47 0 77 6q22 2 44 2q58 0 58 -25v-3q0 -38 -42 -38h-6l-35 1q-39 1 -39 -35v-336q0 -98 -63.5 -156.5t-162.5 -58.5h-9q-82 0 -147 37q-77 44 -77 120v395z
M252 710l114 100q20 10 27 10q17 0 31.5 -17.5t14.5 -34.5q0 -19 -16 -23l-149 -59q-13 -5 -18 -5q-14 0 -14 9q0 4 4 10q1 4 6 9v1z" />
    <glyph glyph-name="eth" unicode="&#xf0;" horiz-adv-x="668" 
d="M108 531q0 38 -41 38h-11q-7 -1 -11 -1v-1h-12q-6 -1 -10 -1q-34 0 -34 35q0 32 43 32q-2 0 46 -4q2 -1 4 -1h4q30 -6 51 -6q14 0 51 5q10 0 30.5 2t30.5 2q60 0 60 -33v-3q0 -28 -34 -28q-7 0 -22 1t-22 1q-37 0 -37 -39v-365q0 -56 42 -88q39 -30 96 -30h8
q59 0 100 36.5t41 94.5v353q0 35 -42 35q-6 0 -19 -1t-19 -1q-42 0 -42 37q0 29 46 29q18 0 52.5 -4t52.5 -4q47 0 77 6q22 2 44 2q58 0 58 -25v-3q0 -38 -42 -38h-6l-35 1q-39 1 -39 -35v-336q0 -98 -63.5 -156.5t-162.5 -58.5h-9q-82 0 -147 37q-77 44 -77 120v395z
M330 753l-122 -50q-3 -3 -8 -3q-6 -3 -8 -3q-13 0 -19 12q-1 1 -1 2v2q0 7 15 18l122 86q30 10 28 10q7 0 15 -4l115 -84l14 -11q13 -15 13 -22v-2q-2 -5 -9 -7v0h-2l-9 3h-1q-2 2 -6 2z" />
    <glyph glyph-name="Scaron" unicode="&#x160;" 
 />
    <glyph glyph-name="scaron" unicode="&#x161;" 
 />
    <glyph glyph-name="HT" 
 />
    <glyph glyph-name="Thorn" unicode="&#xde;" horiz-adv-x="668" 
d="M108 531q0 38 -41 38h-11q-7 -1 -11 -1v-1h-12q-6 -1 -10 -1q-34 0 -34 35q0 32 43 32q-2 0 46 -4q2 -1 4 -1h4q30 -6 51 -6q14 0 51 5q10 0 30.5 2t30.5 2q60 0 60 -33v-3q0 -28 -34 -28q-7 0 -22 1t-22 1q-37 0 -37 -39v-365q0 -56 42 -88q39 -30 96 -30h8
q59 0 100 36.5t41 94.5v353q0 35 -42 35q-6 0 -19 -1t-19 -1q-42 0 -42 37q0 29 46 29q18 0 52.5 -4t52.5 -4q47 0 77 6q22 2 44 2q58 0 58 -25v-3q0 -38 -42 -38h-6l-35 1q-39 1 -39 -35v-336q0 -98 -63.5 -156.5t-162.5 -58.5h-9q-82 0 -147 37q-77 44 -77 120v395z
M380 703l-121 50q-20 5 -26 25q-2 4 -2 10v5q1 2 1 4q10 30 38 37h10q2 -1 4 -1l10 -4q5 -2 8 -6l107 -91q2 -3 4 -4l3 -4q9 -12 9 -18q0 -13 -18 -13q-9 0 -27 9v1z" />
    <glyph glyph-name="thorn" unicode="&#xfe;" 
 />
    <glyph glyph-name="nonmarkingreturn" 
 />
    <glyph glyph-name="onehalf" unicode="&#xbd;" horiz-adv-x="569" 
d="M266 567l-151 -279h-85l201 371h71l194 -371h-87z" />
    <glyph glyph-name="Adieresis" unicode="&#xc4;" horiz-adv-x="711" 
d="M94 94l187 501q11 30 48 35h13q41 0 45 -29l187 -507q12 -33 48 -41q3 0 9 -1h8l29 1q35 -3 35 -24q0 -36 -53 -36q-23 0 -47 4h-7q-28 4 -51 4q-24 0 -56 -6q-7 0 -13 -2l-48 -4q-55 -5 -55 40q0 30 36 30q6 0 29 -3h1v-1q27 -3 30 -3q19 0 19 18v10l-35 99
q-10 27 -18 31q-12 4 -34 4l-135 1q-43 0 -51 -22l-36 -99q-1 -7 -1 -9l-1 -1q-3 -12 -3 -10q0 -20 25 -20q13 0 29 2h4q14 2 26 2q37 0 37 -36q0 -27 -57 -27h-13q-1 0 -13 1l-68 5l-73 -5q-3 0 -13 -1h-14q-55 0 -55 25l-1 10q6 27 21 29h3q4 0 9 -1l10 -2q3 -1 10 -3h6
q4 -1 6 -1q4 0 14 3q18 9 27 38v1zM330 538l-78 -229q0 -4 -2 -8l-3 -14q0 -7 27 -7l120 1q9 -3 16 -3q6 0 6 3v0q-1 4 -5 19q-2 4 -2 8zM208 753q0 22 14.5 35.5t36.5 13.5t39.5 -14t17.5 -36q0 -23 -13 -41t-35 -18h-9q-3 1 -5 1q-48 11 -48 51v2q2 2 2 5v1zM373 753
q0 49 50 49q25 0 41.5 -16t16.5 -41q0 -52 -48 -52h-7q-2 0 -3 1q-22 2 -36 19t-14 39v1z" />
    <glyph glyph-name="Aring" unicode="&#xc5;" horiz-adv-x="711" 
d="M94 94l187 501q11 30 48 35h13q41 0 45 -29l187 -507q12 -33 48 -41q3 0 9 -1h8l29 1q35 -3 35 -24q0 -36 -53 -36q-23 0 -47 4h-7q-28 4 -51 4q-24 0 -56 -6q-7 0 -13 -2l-48 -4q-55 -5 -55 40q0 30 36 30q6 0 29 -3h1v-1q27 -3 30 -3q19 0 19 18v10l-35 99
q-10 27 -18 31q-12 4 -34 4l-135 1q-43 0 -51 -22l-36 -99q-1 -7 -1 -9l-1 -1q-3 -12 -3 -10q0 -20 25 -20q13 0 29 2h4q14 2 26 2q37 0 37 -36q0 -27 -57 -27h-13q-1 0 -13 1l-68 5l-73 -5q-3 0 -13 -1h-14q-55 0 -55 25l-1 10q6 27 21 29h3q4 0 9 -1l10 -2q3 -1 10 -3h6
q4 -1 6 -1q4 0 14 3q18 9 27 38v1zM330 538l-78 -229q0 -4 -2 -8l-3 -14q0 -7 27 -7l120 1q9 -3 16 -3q6 0 6 3v0q-1 4 -5 19q-2 4 -2 8zM266 774q0 54 54 62q3 1 6 1h4l15 1q5 -1 17 -3q25 -5 43 -24.5t18 -44.5q-1 -58 -64 -72h-7q-5 -1 -7 -1h-3q-33 0 -54.5 23.5
t-21.5 56.5v1zM309 774q0 -43 36 -43q6 0 11 3q24 11 24 39q0 27 -29 32h-8q-28 0 -34 -32v1z" />
    <glyph glyph-name="Ccedilla" unicode="&#xc7;" horiz-adv-x="629" 
d="M462 597q-1 1 -2 3q-5 17 -5 24q0 36 30 39h6q30 -3 28 -33l-7 -92v-42l7 -80q0 -31 -28 -39h-4q-3 -1 -4 -1h-3q-34 0 -34 32q0 84 -10 105q-6 12 -68 74q-24 14 -66 14q-93 0 -163 -86q-45 -55 -45 -154q1 -5 2 -7q8 -26 15 -92q6 -59 19 -90q19 -44 61 -73t89 -29
q14 -4 31 -4q104 0 144 84q14 29 14 81q0 45 38 45h6q34 0 34 -51v-17q-34 -207 -250 -207l-7 -21q32 8 37 8q26 0 45 -16.5t19 -41.5v-8q-4 -32 -30 -50.5t-60 -18.5v0h-4q-36 0 -80 21h-1l-1 1q-9 5 -11 12q-2 2 -2 6v2q0 2 1 4q3 19 21 19q7 0 24 -12q25 -18 50 -18h4
q37 0 37 29q0 31 -28 31q-5 0 -24 -3q-5 0 -9 -2q-22 -5 -29 -5h-2q-11 3 -11 12q0 2 2 4l2 3v2l14 43q-115 15 -180 111q-60 87 -60 208v16q0 85 34 165q39 92 105 128q18 10 41 18q59 21 104 21q103 0 164 -75v3z" />
    <glyph glyph-name="Eacute" unicode="&#xc9;" horiz-adv-x="629" 
d="M131 531q0 37 -35 42h-7q-10 0 -20 -2h-3q-2 -1 -3 -1q-19 -3 -24 -3h-5q-25 6 -25 36l2 6v2q3 20 42 20h14q1 -1 2 -1h13l53 -5q32 -3 43 -3q17 0 50 4t50 4h4l230 8q49 2 49 -53v-19l-2 -14q-1 -7 -1 -14q-4 -18 -4 -29q0 -15 5 -47v-7q1 -1 1 -6q3 -18 3 -40
q0 -51 -37 -51q-36 0 -36 53q0 5 1 15v22q0 3 1 7v21q0 89 -75 90l-142 1q-65 0 -65 -51v-115q0 -26 29 -33q13 -3 51 -3q37 0 50 10.5t13 46.5q0 4 -1 11.5t-1 11t-2 8.5v9q-1 6 -1 9q0 38 34 38l3 1q27 -2 27 -55q0 -20 -2 -40q-2 -10 -2 -21q-5 -37 -5 -50q0 -12 6 -63
v-2q0 -1 1 -2l4 -34q2 -17 2 -31q0 -48 -34 -48h-2q-2 0 -3 -1h-5q-2 -1 -3 -1q-24 0 -24 27q0 7 1 15l2 16v9q2 12 2 24q0 55 -68 55q-41 0 -55 -11q-17 -14 -17 -53v-136q0 -43 48 -43h10l135 1q33 0 42 1q27 2 39 9q20 11 20 74v10q0 5 -1 10v10q-2 16 -2 30q0 55 32 55
l3 1q34 -2 34 -72v-9q0 -11 -1 -31.5t-1 -31.5v-79q0 -27 -7.5 -35t-34.5 -7l-265 8q-5 0 -41 -3l-46 -4q-1 -1 -2 -1h-2q-14 0 -42.5 -2.5t-42.5 -2.5q-74 0 -74 40q0 23 32 23h16q1 -1 2 -1v0h18q52 0 52 49v424zM233 718l113 99q5 3 19 9q5 1 8 1q29 0 42 -37q2 -8 2 -15
v-3q-3 -18 -14 -20l-150 -59q-1 -1 -2 -1q-10 -4 -17 -4q-14 0 -14 9q0 2 2 5l3 7l8 8v1z" />
    <glyph glyph-name="Ntilde" unicode="&#xd1;" horiz-adv-x="711" 
d="M503 80v437q0 50 -48 50h-8q-6 -1 -9 -1h-7q-12 -2 -22 -2q-29 0 -29 30q0 37 62 37q10 0 31 -2t31 -2q40 -5 56 -5q27 0 62 7q5 0 14 1h14q53 0 53 -29q0 -39 -37 -39q-11 0 -25 2v0h-2q-12 2 -23 2q-35 0 -35 -36v-464q0 -31 -16 -53q-18 -25 -47 -25h-13q-45 7 -61 41
l-236 516v-437q0 -48 46 -47l36 1q40 -3 40 -33q0 -31 -48 -31q-18 0 -55 5t-55 5q-2 0 -33 -2l-86 -6q-46 0 -46 29v2l1 1v1q0 1 1 2v1q0 23 32 23h16q1 -1 3 -1h22q48 0 48 49v417q0 45 -47 45h-10q-7 -1 -11 -1q-12 -2 -21 -2q-34 0 -34 33q1 5 3 16q4 16 36 16
q16 0 49 -4.5t49 -4.5q29 0 74 6l15 2h4q16 -2 22 -15zM366 767q6 -2 13 -4l14 -4q2 0 5.5 -1t5.5 -1q17 -5 29 -5q26 0 41 21q2 3 7 7q2 2 6 2q2 0 4 -3l3 -5q1 -3 2 -7v0v-14q-14 -72 -79 -72q-27 0 -68 13q-66 21 -90 21q-37 0 -37 -20v-2q0 -1 -1 -2q-2 -5 -7 -7
q-1 -1 -2 -1h-4q-1 1 -2 1q-7 5 -7 18q0 3 1 7.5t1 7.5q22 72 81 72h6q2 0 5 -1q24 -2 73 -22v1z" />
    <glyph glyph-name="Odieresis" unicode="&#xd6;" horiz-adv-x="629" 
d="M25 318q0 2 -1 3v7q-1 2 -1 3q0 130 71 218q76 95 203 95h11q98 0 187 -90q80 -81 80 -239q0 -134 -66 -229q-77 -111 -202 -111h-12q-130 0 -204 109q-66 95 -66 231v3zM110 316q0 -104 41 -179q51 -94 146 -94h4q0 -1 1 -1v0h13q82 0 134 97q40 73 41 169
q2 101 -40 176q-51 92 -144 92h-17q-89 -8 -137 -93q-41 -71 -42 -168v1zM160 753q0 37 38 48q3 0 6 1h6q23 0 40.5 -14t17.5 -36q0 -23 -13 -41t-35 -18h-9q-3 1 -5 1q-48 11 -48 51v2q2 2 2 5v1zM325 753q0 49 50 49h3q23 0 38.5 -17t15.5 -40q0 -22 -14 -37t-36 -15h-4
q-2 0 -3 1q-22 2 -36 19t-14 39v1z" />
    <glyph glyph-name="Udieresis" unicode="&#xdc;" horiz-adv-x="668" 
d="M108 531q0 38 -41 38h-11q-7 -1 -11 -1v-1h-12q-6 -1 -10 -1q-34 0 -34 35q0 32 43 32q-2 0 46 -4q2 -1 4 -1h4q30 -6 51 -6q14 0 51 5q10 0 30.5 2t30.5 2q60 0 60 -33v-3q0 -28 -34 -28q-7 0 -22 1t-22 1q-37 0 -37 -39v-365q0 -56 42 -88q39 -30 96 -30h8
q59 0 100 36.5t41 94.5v353q0 35 -42 35q-6 0 -19 -1t-19 -1q-42 0 -42 37q0 29 46 29q18 0 52.5 -4t52.5 -4q47 0 77 6q22 2 44 2q58 0 58 -25v-3q0 -38 -42 -38h-6l-35 1q-39 1 -39 -35v-336q0 -98 -63.5 -156.5t-162.5 -58.5h-9q-82 0 -147 37q-77 44 -77 120v395z
M380 782q0 21 14.5 34.5t35.5 13.5q25 0 41.5 -16t16.5 -41q0 -21 -13.5 -36t-34.5 -15h-7q-2 0 -3 1q-22 2 -36 19t-14 39v1zM215 782q0 21 15 34.5t36 13.5q22 0 39.5 -14t17.5 -35q0 -57 -48 -57h-9q-3 1 -5 1q-48 8 -48 48q1 4 2 6v3z" />
    <glyph glyph-name="aacute" unicode="&#xe1;" horiz-adv-x="569" 
d="M144 380q25 -2 25 -35v-6q0 -2 -1 -4q-5 -36 -45 -36q-5 0 -11 2h-4q-49 6 -49 53q0 8 5 25l2 7q15 52 68 79q44 22 104 22q65 0 118 -34q62 -40 60 -102l-7 -250q-1 -18 6 -34q8 -20 24 -20q21 0 33 30q9 23 9 48v28q-1 1 -1 2v0q0 29 28 29h5q3 -1 5 -1q27 -11 27 -40
v-31q0 -113 -91 -121h-8q-31 0 -61 16.5t-40 43.5q-42 -52 -120 -61q-4 0 -12 -1h-16q-49 0 -92 20q-50 23 -68 63q-12 27 -12 46q0 54 39 96q37 39 92 48q39 6 49 6h6q5 1 7 1l18 2q8 1 29 3q29 3 44 13q27 18 27 57q0 33 -22 55t-55 23q-82 2 -115 -43v1zM337 238
q-28 -35 -112 -35q-57 -6 -81 -17q-41 -19 -43 -64q-1 -35 34 -54q29 -16 67 -16t73 16q62 28 62 130v40zM165 552l116 100q21 10 26 10q29 0 42 -35q3 -14 3 -17q0 -19 -15 -23l-150 -59q-13 -5 -18 -5q-14 0 -14 11q0 4 4 10q1 1 3 3.5t3 3.5v1z" />
    <glyph glyph-name="agrave" unicode="&#xe0;" horiz-adv-x="569" 
d="M144 380q25 -2 25 -35v-6q0 -2 -1 -4q-5 -36 -45 -36q-5 0 -11 2h-4q-49 6 -49 53q0 8 5 25l2 7q15 52 68 79q44 22 104 22q65 0 118 -34q62 -40 60 -102l-7 -250q-1 -18 6 -34q8 -20 24 -20q21 0 33 30q9 23 9 48v28q-1 1 -1 2v0q0 29 28 29h5q3 -1 5 -1q27 -11 27 -40
v-31q0 -113 -91 -121h-8q-31 0 -61 16.5t-40 43.5q-42 -52 -120 -61q-4 0 -12 -1h-16q-49 0 -92 20q-50 23 -68 63q-12 27 -12 46q0 54 39 96q37 39 92 48q39 6 49 6h6q5 1 7 1l18 2q8 1 29 3q29 3 44 13q27 18 27 57q0 33 -22 55t-55 23q-82 2 -115 -43v1zM337 238
q-28 -35 -112 -35q-57 -6 -81 -17q-41 -19 -43 -64q-1 -35 34 -54q29 -16 67 -16t73 16q62 28 62 130v40zM330 531l-122 50q-29 12 -29 34v4q0 1 1 3q11 40 44 40q15 0 28 -11l107 -91q2 -3 4 -4l3 -4q9 -12 9 -18q0 -13 -18 -13q-9 0 -27 9v1z" />
    <glyph glyph-name="acircumflex" unicode="&#xe2;" horiz-adv-x="569" 
d="M144 380q25 -2 25 -35v-6q0 -2 -1 -4q-5 -36 -45 -36q-5 0 -11 2h-4q-49 6 -49 53q0 8 5 25l2 7q15 52 68 79q44 22 104 22q65 0 118 -34q62 -40 60 -102l-7 -250q-1 -18 6 -34q8 -20 24 -20q21 0 33 30q9 23 9 48v28q-1 1 -1 2v0q0 29 28 29h5q3 -1 5 -1q27 -11 27 -40
v-31q0 -113 -91 -121h-8q-31 0 -61 16.5t-40 43.5q-42 -52 -120 -61q-4 0 -12 -1h-16q-49 0 -92 20q-50 23 -68 63q-12 27 -12 46q0 54 39 96q37 39 92 48q39 6 49 6h6q5 1 7 1l18 2q8 1 29 3q29 3 44 13q27 18 27 57q0 33 -22 55t-55 23q-82 2 -115 -43v1zM337 238
q-28 -35 -112 -35q-57 -6 -81 -17q-41 -19 -43 -64q-1 -35 34 -54q29 -16 67 -16t73 16q62 28 62 130v40zM252 588l-122 -50q-2 -2 -4 -2v0q0 -1 -1 -1l-6 -2q-3 -1 -5 -1q-13 0 -19 12q-1 1 -1 2v2q0 8 14 18l123 86q30 10 28 10q7 0 15 -4l113 -84q1 -1 14 -11
q13 -15 13 -22v-2q-2 -7 -11 -7q-2 0 -5 1l-6 2q-1 0 -1 1v0h-2q-1 1 -2 1z" />
    <glyph glyph-name="adieresis" unicode="&#xe4;" horiz-adv-x="569" 
d="M144 380q25 -2 25 -35v-6q0 -2 -1 -4q-5 -36 -45 -36q-5 0 -11 2h-4q-49 6 -49 53q0 8 5 25l2 7q15 52 68 79q44 22 104 22q65 0 118 -34q62 -40 60 -102l-7 -250q-1 -18 6 -34q8 -20 24 -20q21 0 33 30q9 23 9 48v28q-1 1 -1 2v0q0 29 28 29h5q3 -1 5 -1q27 -11 27 -40
v-31q0 -113 -91 -121h-8q-31 0 -61 16.5t-40 43.5q-42 -52 -120 -61q-4 0 -12 -1h-16q-49 0 -92 20q-50 23 -68 63q-12 27 -12 46q0 54 39 96q37 39 92 48q39 6 49 6h6q5 1 7 1l18 2q8 1 29 3q29 3 44 13q27 18 27 57q0 33 -22 55t-55 23q-82 2 -115 -43v1zM337 238
q-28 -35 -112 -35q-57 -6 -81 -17q-41 -19 -43 -64q-1 -35 34 -54q29 -16 67 -16t73 16q62 28 62 130v40zM288 602q0 21 14 35t35 14q25 0 41 -16t16 -41q0 -51 -46 -51h-7q-2 0 -3 1q-22 2 -36 18.5t-14 38.5v1zM123 602q0 49 49 49h3q21 0 38.5 -14.5t17.5 -35.5
q0 -52 -47 -57h-11q-5 1 -7 1q-45 11 -45 49v2q2 2 2 5v1z" />
    <glyph glyph-name="atilde" unicode="&#xe3;" horiz-adv-x="569" 
d="M144 380q25 -2 25 -35v-6q0 -2 -1 -4q-5 -36 -45 -36q-5 0 -11 2h-4q-49 6 -49 53q0 8 5 25l2 7q15 52 68 79q44 22 104 22q65 0 118 -34q62 -40 60 -102l-7 -250q-1 -18 6 -34q8 -20 24 -20q21 0 33 30q9 23 9 48v28q-1 1 -1 2v0q0 29 28 29h5q3 -1 5 -1q27 -11 27 -40
v-31q0 -113 -91 -121h-8q-31 0 -61 16.5t-40 43.5q-42 -52 -120 -61q-4 0 -12 -1h-16q-49 0 -92 20q-50 23 -68 63q-12 27 -12 46q0 54 39 96q37 39 92 48q39 6 49 6h6q5 1 7 1l18 2q8 1 29 3q29 3 44 13q27 18 27 57q0 33 -22 55t-55 23q-82 2 -115 -43v1zM337 238
q-28 -35 -112 -35q-57 -6 -81 -17q-41 -19 -43 -64q-1 -35 34 -54q29 -16 67 -16t73 16q62 28 62 130v40zM259 623q6 -2 13 -4l14 -4q2 0 4.5 -1t4.5 -1q20 -5 30 -5q15 0 34.5 15t18.5 15h2v-1q7 -2 7 -16v-12q-12 -72 -78 -72q-7 0 -29 3q-46 15 -98 28q-12 3 -29 3
q-38 0 -38 -20v-2q0 -1 -1 -2q-2 -5 -7 -7q-1 -1 -2 -1h-4q-9 6 -9 21q0 2 1 6.5t1 6.5q20 73 80 73h9q5 -1 8 -1q19 -3 46 -13q4 -2 22 -10v1z" />
    <glyph glyph-name="aring" unicode="&#xe5;" horiz-adv-x="569" 
d="M144 380q25 -2 25 -35v-6q0 -2 -1 -4q-5 -36 -45 -36q-5 0 -11 2h-4q-49 6 -49 53q0 8 5 25l2 7q15 52 68 79q44 22 104 22q65 0 118 -34q62 -40 60 -102l-7 -250q-1 -18 6 -34q8 -20 24 -20q21 0 33 30q9 23 9 48v28q-1 1 -1 2v0q0 29 28 29h5q3 -1 5 -1q27 -11 27 -40
v-31q0 -113 -91 -121h-8q-31 0 -61 16.5t-40 43.5q-42 -52 -120 -61q-4 0 -12 -1h-16q-49 0 -92 20q-50 23 -68 63q-12 27 -12 46q0 54 39 96q37 39 92 48q39 6 49 6h6q5 1 7 1l18 2q8 1 29 3q29 3 44 13q27 18 27 57q0 33 -22 55t-55 23q-82 2 -115 -43v1zM337 238
q-28 -35 -112 -35q-57 -6 -81 -17q-41 -19 -43 -64q-1 -35 34 -54q29 -16 67 -16t73 16q62 28 62 130v40zM179 623q0 26 17.5 44.5t43.5 20.5h5l14 1q6 -2 14 -2q26 -5 45 -25.5t19 -46.5q0 -28 -19 -47.5t-47 -23.5q-3 -1 -6 -1h-11q-30 0 -52.5 24.5t-22.5 54.5v1z
M222 623q0 -43 37 -43q5 0 11 2q25 11 25 40q0 27 -29 32h-9q-2 0 -4 -1q-26 -6 -31 -31v1z" />
    <glyph glyph-name="ccedilla" unicode="&#xe7;" horiz-adv-x="448" 
d="M336 366q0 30 -38 49q-31 16 -65 16q-16 0 -25 -3q-58 -11 -87 -71q-23 -48 -23 -115v-5q0 -3 1 -5v-11q0 -62 32 -110q36 -55 95 -55h5q49 0 82 29.5t37 78.5q3 29 30 36q2 0 5 1h4q32 0 32 -30q0 -84 -59 -129q-53 -41 -140 -41l-9 -21q3 0 8 1t8 1q84 0 84 -57
q0 -34 -34 -56q-30 -20 -66 -20q-37 0 -71 18q-12 5 -14 20q-2 6 -2 10v3q3 20 16 20q15 0 29 -18q12 -12 36 -12h11q40 5 40 34q0 21 -26 24h-3q-6 0 -26 -3q-1 0 -3 -1h-4q-16 -4 -29 -4q-12 0 -12 8l1 4l22 57q-72 5 -110 63q-19 29 -49 119q-5 35 -5 51q0 104 62 177
q65 77 167 77h13q78 0 124 -64q32 -45 32 -88q0 -60 -55 -71h-3q-2 0 -3 -1h-5q-2 -1 -3 -1q-20 0 -37.5 14t-17.5 34v7q0 1 1 2q5 31 47 37v1z" />
    <glyph glyph-name="eacute" unicode="&#xe9;" horiz-adv-x="508" 
d="M114 231q0 -2 -1 -5.5t-1 -5.5q-4 -12 -4 -18v-10q0 -5 1 -8q10 -79 69 -112q41 -23 78 -23q49 0 84.5 33t44.5 82q3 15 24 18h3q37 0 37 -46q0 -53 -49 -93q-41 -34 -98 -48q-29 -7 -52 -7q-102 0 -160 65q-56 62 -56 166v17l1 10q8 79 30 124q28 57 89 89q51 27 97 27
h24q129 0 171 -132q12 -38 12 -74q0 -31 -2 -36q-4 -14 -28 -14zM378 295q0 56 -32.5 91.5t-87.5 35.5q-57 0 -95 -35.5t-42 -92.5zM142 552l116 100q15 10 26 10q29 0 42 -35q3 -14 3 -17q0 -19 -15 -23l-150 -59q-13 -5 -18 -5h-2q-13 3 -13 11q0 3 5 10l2 2q1 1 2 2.5
t2 2.5v1z" />
    <glyph glyph-name="egrave" unicode="&#xe8;" horiz-adv-x="508" 
d="M114 231q0 -2 -1 -5.5t-1 -5.5q-4 -12 -4 -18v-10q0 -5 1 -8q10 -79 69 -112q41 -23 78 -23q49 0 84.5 33t44.5 82q3 15 24 18h3q37 0 37 -46q0 -53 -49 -93q-41 -34 -98 -48q-29 -7 -52 -7q-102 0 -160 65q-56 62 -56 166v17l1 10q8 79 30 124q28 57 89 89q51 27 97 27
h24q129 0 171 -132q12 -38 12 -74q0 -31 -2 -36q-4 -14 -28 -14zM378 295q0 56 -32.5 91.5t-87.5 35.5q-57 0 -95 -35.5t-42 -92.5zM293 531l-122 50q-29 12 -29 34v4q0 1 1 3q12 40 41 40h3q5 0 11 -2l8 -4q3 -1 7 -5l108 -91q16 -13 16 -26t-17 -13q-9 0 -27 9v1z" />
    <glyph glyph-name="ecircumflex" unicode="&#xea;" horiz-adv-x="508" 
d="M114 231q0 -2 -1 -5.5t-1 -5.5q-4 -12 -4 -18v-10q0 -5 1 -8q10 -79 69 -112q41 -23 78 -23q49 0 84.5 33t44.5 82q3 15 24 18h3q37 0 37 -46q0 -53 -49 -93q-41 -34 -98 -48q-29 -7 -52 -7q-102 0 -160 65q-56 62 -56 166v17l1 10q8 79 30 124q28 57 89 89q51 27 97 27
h24q129 0 171 -132q12 -38 12 -74q0 -31 -2 -36q-4 -14 -28 -14zM378 295q0 56 -32.5 91.5t-87.5 35.5q-57 0 -95 -35.5t-42 -92.5zM236 581l-122 -50q-2 -2 -4 -2v0q0 -1 -1 -1l-6 -2q-3 -1 -5 -1q-13 0 -19 12q-1 1 -1 2v2q0 8 14 18l121 86q27 9 30 9q9 0 15 -3l113 -84
q1 -1 14 -11q13 -15 13 -22v-2q-2 -7 -11 -7q-2 0 -5 1l-6 2q-1 0 -1 1v0h-2q-1 1 -2 1z" />
    <glyph glyph-name="edieresis" unicode="&#xeb;" horiz-adv-x="508" 
d="M114 231q0 -2 -1 -5.5t-1 -5.5q-4 -12 -4 -18v-10q0 -5 1 -8q10 -79 69 -112q41 -23 78 -23q49 0 84.5 33t44.5 82q3 15 24 18h3q37 0 37 -46q0 -53 -49 -93q-41 -34 -98 -48q-29 -7 -52 -7q-102 0 -160 65q-56 62 -56 166v17l1 10q8 79 30 124q28 57 89 89q51 27 97 27
h24q129 0 171 -132q12 -38 12 -74q0 -31 -2 -36q-4 -14 -28 -14zM378 295q0 56 -32.5 91.5t-87.5 35.5q-57 0 -95 -35.5t-42 -92.5zM279 588q0 21 14.5 35t35.5 14q24 0 40 -16.5t16 -40.5q0 -22 -13.5 -37t-35.5 -15h-4q-2 0 -3 1q-22 2 -36 19t-14 39v1zM114 588
q0 21 14 35t35 14q22 0 39.5 -14.5t17.5 -35.5q0 -57 -48 -57h-10q-20 3 -35 17t-15 33v2q2 2 2 5v1z" />
    <glyph glyph-name="iacute" unicode="&#xed;" horiz-adv-x="309" 
d="M115 393q0 18 -21 18h-10l-13 -2h-12q-6 -1 -9 -1h-3q-26 3 -26 30l2 6q5 26 36 26q9 0 28 -2t28 -2q8 0 26 5h2q12 4 24 4q27 0 27 -39v-342q0 -31 26 -31q8 0 18 2q3 0 9 1h12q23 -3 22 -23q-1 -39 -48 -39q-7 0 -30 3q-3 1 -13 3q-26 5 -39 5q-15 0 -45 -5
q-1 -1 -2 -1h-2q-27 -5 -42 -5h-3q-36 0 -36 31l1 2q0 2 1 5v1q0 25 21 25q3 0 10 -1t10 -1l1 -1h1q10 -2 19 -2q30 0 30 37v293zM66 552l113 100q18 10 27 10q17 0 31.5 -17.5t14.5 -34.5q0 -20 -14 -23l-144 -56q-1 -1 -2.5 -1.5t-2.5 -1.5q-15 -5 -20 -5q-14 0 -14 11
q0 10 11 17v1z" />
    <glyph glyph-name="igrave" unicode="&#xec;" horiz-adv-x="309" 
d="M115 393q0 18 -21 18h-10l-13 -2h-12q-6 -1 -9 -1h-3q-26 3 -26 30l2 6q5 26 36 26q9 0 28 -2t28 -2q8 0 26 5h2q12 4 24 4q27 0 27 -39v-342q0 -31 26 -31q8 0 18 2q3 0 9 1h12q23 -3 22 -23q-1 -39 -48 -39q-7 0 -30 3q-3 1 -13 3q-26 5 -39 5q-15 0 -45 -5
q-1 -1 -2 -1h-2q-27 -5 -42 -5h-3q-36 0 -36 31l1 2q0 2 1 5v1q0 25 21 25q3 0 10 -1t10 -1l1 -1h1q10 -2 19 -2q30 0 30 37v293zM201 531l-121 50q-19 8 -25 22q-3 4 -3 12v4q0 1 1 3q10 33 38 40h10q2 -1 4 -1q6 -2 18 -10l108 -91q16 -13 16 -26t-20 -13q-8 0 -26 9v1z
" />
    <glyph glyph-name="icircumflex" unicode="&#xee;" horiz-adv-x="309" 
d="M115 393q0 18 -21 18h-10l-13 -2h-12q-6 -1 -9 -1h-3q-26 3 -26 30l2 6q5 26 36 26q9 0 28 -2t28 -2q8 0 26 5h2q12 4 24 4q27 0 27 -39v-342q0 -31 26 -31q8 0 18 2q3 0 9 1h12q23 -3 22 -23q-1 -39 -48 -39q-7 0 -30 3q-3 1 -13 3q-26 5 -39 5q-15 0 -45 -5
q-1 -1 -2 -1h-2q-27 -5 -42 -5h-3q-36 0 -36 31l1 2q0 2 1 5v1q0 25 21 25q3 0 10 -1t10 -1l1 -1h1q10 -2 19 -2q30 0 30 37v293zM144 588q0 21 14.5 35t35.5 14h5q22 0 37.5 -17.5t15.5 -39.5q0 -52 -48 -52h-7q-2 0 -3 1q-22 2 -36 19t-14 39v1zM-20 588q14 49 50 49
q22 0 39.5 -14.5t17.5 -35.5q0 -51 -44 -56q-2 -1 -3 -1h-9q-20 2 -35 16t-15 34z" />
    <glyph glyph-name="idieresis" unicode="&#xef;" horiz-adv-x="309" 
d="M115 393q0 18 -21 18h-10l-13 -2h-12q-6 -1 -9 -1h-3q-26 3 -26 30l2 6q5 26 36 26q9 0 28 -2t28 -2q8 0 26 5h2q12 4 24 4q27 0 27 -39v-342q0 -31 26 -31q8 0 18 2q3 0 9 1h12q23 -3 22 -23q-1 -39 -48 -39q-7 0 -30 3q-3 1 -13 3q-26 5 -39 5q-15 0 -45 -5
q-1 -1 -2 -1h-2q-27 -5 -42 -5h-3q-36 0 -36 31l1 2q0 2 1 5v1q0 25 21 25q3 0 10 -1t10 -1l1 -1h1q10 -2 19 -2q30 0 30 37v293zM144 588q0 21 14.5 35t35.5 14h5q22 0 37.5 -17.5t15.5 -39.5q0 -52 -48 -52h-7q-2 0 -3 1q-22 2 -36 19t-14 39v1zM-20 588q14 49 50 49
q22 0 39.5 -14.5t17.5 -35.5q0 -51 -44 -56q-2 -1 -3 -1h-9q-20 2 -35 16t-15 34z" />
    <glyph glyph-name="ntilde" unicode="&#xf1;" horiz-adv-x="611" 
d="M179 423q21 34 68 53q42 17 87 17h6q77 0 123.5 -44t46.5 -120v-221q0 -52 28 -52q8 0 18 2q3 0 9 1h14q23 -3 23 -30v-6q0 -25 -41 -25q-8 0 -23.5 2t-23.5 2q-24 6 -40 6h-12q-8 -1 -12 -1q-65 -9 -75 -9q-35 0 -38 31v4q-1 1 -1 2v1q0 25 23 25h10l12 -2h10q6 -1 9 -1
h5q25 6 25 35v230q0 44 -31 73t-75 29h-11q-56 0 -89 -46q-30 -41 -30 -99v-179q0 -42 32 -42q3 0 9 1h11q4 1 8 1h7q27 0 27 -28v-3q0 -32 -41 -32q-9 0 -17 1l-16 2q-2 0 -14 2q-30 5 -42 5q5 0 -47 -4q-5 -2 -11 -2q-22 -2 -40 -2q-46 0 -46 29v2l1 1v1q0 1 1 2v1
q3 25 23 25q4 0 10.5 -1t10.5 -1q16 -3 22 -3q33 0 33 51v273q0 38 -28 38q-8 0 -18 -2l-2 -1h-1q-10 -2 -18 -2h-3q-2 0 -4 1q-12 4 -18 15q0 2 -1 4l-2 4q-2 4 -2 7v3q0 28 29 33h5q6 0 45 -12q7 -2 11 -2q7 0 23 7q5 0 7 2q12 4 20 4q21 0 21 -34v-22zM316 609
q6 -2 13 -4l14 -4q2 0 4.5 -1t4.5 -1q20 -5 30 -5q26 0 41 21q5 9 12 9h2v-1q7 -2 7 -17v-11q-14 -72 -78 -72q-20 0 -42 7q-9 3 -34 10l-16 4q-33 13 -64 13q-38 0 -38 -20v-2q0 -1 -1 -2q-2 -5 -7 -7q-1 -1 -2 -1h-4q-9 6 -9 21q0 2 1 6.5t1 6.5q24 72 82 72h6
q20 0 77 -23v1z" />
    <glyph glyph-name="oacute" unicode="&#xf3;" horiz-adv-x="508" 
d="M28 252q0 100 61.5 167.5t160.5 67.5q105 0 166 -78q56 -71 56 -179q0 -105 -58 -174q-61 -74 -164 -74h-3q-103 0 -163 72q-57 67 -57 172v6q0 3 1 7v13zM107 245q0 -79 32 -137q39 -72 111 -72h3q71 10 108 75q32 56 32 133q0 71 -32 121q-37 60 -104 60h-9
q-65 0 -105 -60q-34 -52 -36 -121v1zM163 545l116 100q18 9 27 9q17 0 30.5 -17t13.5 -34q0 -20 -14 -23l-144 -56q-8 -8 -25 -8q-14 0 -14 11q0 4 4 10q1 1 3 3.5t3 3.5v1z" />
    <glyph glyph-name="ograve" unicode="&#xf2;" horiz-adv-x="508" 
d="M28 252q0 100 61.5 167.5t160.5 67.5q105 0 166 -78q56 -71 56 -179q0 -105 -58 -174q-61 -74 -164 -74h-3q-103 0 -163 72q-57 67 -57 172v6q0 3 1 7v13zM107 245q0 -79 32 -137q39 -72 111 -72h3q71 10 108 75q32 56 32 133q0 71 -32 121q-37 60 -104 60h-9
q-65 0 -105 -60q-34 -52 -36 -121v1zM300 524l-122 50q-29 12 -29 34v5q3 16 16 28.5t29 12.5t28 -10l107 -92q16 -14 16 -25q0 -13 -18 -13q-9 0 -27 9v1z" />
    <glyph glyph-name="ocircumflex" unicode="&#xf4;" horiz-adv-x="508" 
d="M28 252q0 100 61.5 167.5t160.5 67.5q105 0 166 -78q56 -71 56 -179q0 -105 -58 -174q-61 -74 -164 -74h-3q-103 0 -163 72q-57 67 -57 172v6q0 3 1 7v13zM107 245q0 -79 32 -137q39 -72 111 -72h3q71 10 108 75q32 56 32 133q0 71 -32 121q-37 60 -104 60h-9
q-65 0 -105 -60q-34 -52 -36 -121v1zM243 581l-122 -50q-2 -2 -4 -2v0q0 -1 -1 -1l-6 -2q-3 -1 -5 -1q-13 0 -19 12q-1 1 -1 2v2q0 8 14 18l123 86q26 9 28 9q9 0 15 -3l113 -84q1 -1 14 -11q13 -15 13 -22v-2q-2 -7 -11 -7q-2 0 -5 1l-6 2q-1 0 -1 1v0h-2q-1 1 -2 1z" />
    <glyph glyph-name="odieresis" unicode="&#xf6;" horiz-adv-x="508" 
d="M21 252q0 101 61.5 168t160.5 67q105 0 166 -78q56 -71 56 -179q0 -105 -58 -174q-61 -74 -164 -74h-3q-103 0 -163 72q-57 67 -57 172v6q0 3 1 7v13zM99 245q0 -79 32 -137q39 -72 112 -72q72 7 110 74q32 56 32 134q0 72 -32 122q-38 59 -106 59h-6q-65 0 -105 -60
q-35 -52 -37 -121v1zM272 574q0 21 14 34.5t35 13.5q24 0 40.5 -16t16.5 -40q0 -52 -46 -52h-7q-2 0 -3 1q-22 2 -36 19t-14 39v1zM107 574q0 38 36 46q6 2 13 2q22 0 39.5 -14t17.5 -35q0 -57 -48 -57h-10q-50 8 -50 50q1 1 1 3v1q1 1 1 2v2z" />
    <glyph glyph-name="otilde" unicode="&#xf5;" horiz-adv-x="508" 
d="M28 252q0 100 61.5 167.5t160.5 67.5q105 0 166 -78q56 -71 56 -179q0 -105 -58 -174q-61 -74 -164 -74h-3q-103 0 -163 72q-57 67 -57 172v6q0 3 1 7v13zM107 245q0 -79 32 -137q39 -72 111 -72h3q71 10 108 75q32 56 32 133q0 71 -32 121q-37 60 -104 60h-9
q-65 0 -105 -60q-34 -52 -36 -121v1zM265 616q12 -4 26 -8q6 0 19 -3.5t20 -3.5q26 0 41 21q2 3 7 7q2 2 6 2q2 0 4 -3l3 -5q1 -3 2 -7v0v-14q-14 -72 -79 -72q-20 0 -42 7q-9 3 -34 10l-16 4q-3 1 -13 4q-31 9 -51 9q-37 0 -37 -20v-2q0 -1 -1 -2q-3 -6 -10 -8v0h-2
q-10 0 -10 21v4q0 1 1 3v6q24 72 82 72h6q2 0 5 -1q24 -2 73 -22v1z" />
    <glyph glyph-name="uacute" unicode="&#xfa;" horiz-adv-x="590" 
d="M412 59q-14 -35 -60 -54q-38 -16 -82 -16h-12q-4 0 -8 1q-65 5 -106 39q-46 38 -46 100v244q0 33 -46 33h-5q-3 0 -5 -1h-9q-4 -1 -6 -1q-32 0 -32 27v4q1 1 1 2v6q0 2 1 5q0 7 2 11q2 18 24 18q-2 0 30 -4q2 -1 6 -2q22 -5 32 -5l24 4q1 1 2 1t2 1q20 5 27 5
q23 0 23 -34v-299q0 -40 36 -67q33 -26 74 -26h10q3 0 6 1q56 5 85 54q25 41 25 101v166q0 38 -32 38q-7 0 -19 -2l-3 -1h-1q-10 -2 -20 -2q-24 0 -24 30q0 39 35 39q15 0 24 -3h5q4 -1 6 -1q20 -5 29 -5t21 2q4 0 8 2l14 2q7 1 12 1q25 0 25 -30v-342q0 -43 28 -43
q8 0 18 2h2l2 1q10 2 19 2h3q20 -3 20 -27q0 -36 -28 -36q-12 0 -28 4h-2q-2 0 -3 1l-12 2q-6 1 -12 1q-9 0 -24 -5h-2q-2 -1 -3 -1q-24 -6 -28 -6h-3q-22 3 -22 44q0 1 1 4v7q1 2 1 4v4zM204 545l116 100q-6 0 8.5 4.5t17.5 4.5q17 0 31 -17t14 -34q0 -20 -14 -23l-143 -56
q-8 -8 -26 -8q-14 0 -14 11q0 4 4 10q1 1 3 3.5t3 3.5v1z" />
    <glyph glyph-name="ugrave" unicode="&#xf9;" horiz-adv-x="590" 
d="M412 59q-14 -35 -60 -54q-38 -16 -82 -16h-12q-4 0 -8 1q-65 5 -106 39q-46 38 -46 100v244q0 33 -46 33h-5q-3 0 -5 -1h-9q-4 -1 -6 -1q-32 0 -32 27v4q1 1 1 2v6q0 2 1 5q0 7 2 11q2 18 24 18q-2 0 30 -4q2 -1 6 -2q22 -5 32 -5l24 4q1 1 2 1t2 1q20 5 27 5
q23 0 23 -34v-299q0 -40 36 -67q33 -26 74 -26h10q3 0 6 1q56 5 85 54q25 41 25 101v166q0 38 -32 38q-7 0 -19 -2l-3 -1h-1q-10 -2 -20 -2q-24 0 -24 30q0 39 35 39q15 0 24 -3h5q4 -1 6 -1q20 -5 29 -5t21 2q4 0 8 2l14 2q7 1 12 1q25 0 25 -30v-342q0 -43 28 -43
q8 0 18 2h2l2 1q10 2 19 2h3q20 -3 20 -27q0 -36 -28 -36q-12 0 -28 4h-2q-2 0 -3 1l-12 2q-6 1 -12 1q-9 0 -24 -5h-2q-2 -1 -3 -1q-24 -6 -28 -6h-3q-22 3 -22 44q0 1 1 4v7q1 2 1 4v4zM348 524l-121 50q-18 5 -25 22q-3 4 -3 12v5q7 34 39 41h10q2 -1 4 -1q13 -3 18 -9
l107 -92q16 -14 16 -25q0 -13 -18 -13q-9 0 -27 9v1z" />
    <glyph glyph-name="ucircumflex" unicode="&#xfb;" horiz-adv-x="590" 
d="M412 59q-14 -35 -60 -54q-38 -16 -82 -16h-12q-4 0 -8 1q-65 5 -106 39q-46 38 -46 100v244q0 33 -46 33h-5q-3 0 -5 -1h-9q-4 -1 -6 -1q-32 0 -32 27v4q1 1 1 2v6q0 2 1 5q0 7 2 11q2 18 24 18q-2 0 30 -4q2 -1 6 -2q22 -5 32 -5l24 4q1 1 2 1t2 1q20 5 27 5
q23 0 23 -34v-299q0 -40 36 -67q33 -26 74 -26h10q3 0 6 1q56 5 85 54q25 41 25 101v166q0 38 -32 38q-7 0 -19 -2l-3 -1h-1q-10 -2 -20 -2q-24 0 -24 30q0 39 35 39q15 0 24 -3h5q4 -1 6 -1q20 -5 29 -5t21 2q4 0 8 2l14 2q7 1 12 1q25 0 25 -30v-342q0 -43 28 -43
q8 0 18 2h2l2 1q10 2 19 2h3q20 -3 20 -27q0 -36 -28 -36q-12 0 -28 4h-2q-2 0 -3 1l-12 2q-6 1 -12 1q-9 0 -24 -5h-2q-2 -1 -3 -1q-24 -6 -28 -6h-3q-22 3 -22 44q0 1 1 4v7q1 2 1 4v4zM270 581l-123 -50q-1 -1 -2 -1.5t-2 -1.5h-1q-1 0 -2 -1q-4 -2 -9 -2q-12 0 -18 12
q-1 1 -1 2v2q0 8 14 18l123 86q26 9 28 9q8 0 14 -3l114 -84l14 -11q13 -15 13 -22v-2q-2 -5 -9 -7v0h-2q-5 0 -7 2l-3 1h-2q-2 2 -4 2z" />
    <glyph glyph-name="udieresis" unicode="&#xfc;" horiz-adv-x="590" 
d="M412 59q-14 -35 -60 -54q-38 -16 -82 -16h-12q-4 0 -8 1q-65 5 -106 39q-46 38 -46 100v244q0 33 -46 33h-5q-3 0 -5 -1h-9q-4 -1 -6 -1q-32 0 -32 27v4q1 1 1 2v6q0 2 1 5q0 7 2 11q2 18 24 18q-2 0 30 -4q2 -1 6 -2q22 -5 32 -5l24 4q1 1 2 1t2 1q20 5 27 5
q23 0 23 -34v-299q0 -40 36 -67q33 -26 74 -26h10q3 0 6 1q56 5 85 54q25 41 25 101v166q0 38 -32 38q-7 0 -19 -2l-3 -1h-1q-10 -2 -20 -2q-24 0 -24 30q0 39 35 39q15 0 24 -3h5q4 -1 6 -1q20 -5 29 -5t21 2q4 0 8 2l14 2q7 1 12 1q25 0 25 -30v-342q0 -43 28 -43
q8 0 18 2h2l2 1q10 2 19 2h3q20 -3 20 -27q0 -36 -28 -36q-12 0 -28 4h-2q-2 0 -3 1l-12 2q-6 1 -12 1q-9 0 -24 -5h-2q-2 -1 -3 -1q-24 -6 -28 -6h-3q-22 3 -22 44q0 1 1 4v7q1 2 1 4v4zM313 602q0 21 14 35t35 14q25 0 41 -16t16 -41q0 -22 -14 -36.5t-36 -14.5h-4
q-3 0 -5 1q-47 10 -47 57v1zM147 602q0 21 14.5 35t35.5 14q23 0 41 -14t18 -36q0 -52 -47 -57h-11q-5 1 -7 1q-45 11 -45 49v2q0 1 1 2v4z" />
    <glyph glyph-name="degree" unicode="&#xb0;" horiz-adv-x="288" 
d="M55 588q0 54 54 62q3 1 6 1h4l14 1q6 -2 14 -2q27 -6 45.5 -25t18.5 -45q0 -28 -22 -50.5t-50 -22.5h-6q-33 0 -55.5 23.5t-22.5 56.5v1zM98 588q0 -44 35 -44q3 0 6 1l6 2q24 11 24 40q0 27 -29 32h-11q-27 -5 -31 -32v1z" />
    <glyph glyph-name="registered" unicode="&#xae;" horiz-adv-x="728" 
d="M375 659q146 -9 241 -93q103 -90 103 -232v-25q0 -142 -97.5 -235.5t-239.5 -93.5q-140 0 -236 95t-96 235v20q0 139 94 230q90 88 231 98v1zM382 616q-124 -5 -205 -84t-81 -202v-15q0 -227 204 -273q9 -2 77 -13q2 -2 3 -2q127 0 209 81.5t82 208.5v9q0 130 -79 208
t-210 81v1zM226 517h163q49 0 85 -20q45 -24 45 -69v-12q0 -3 -1 -6q-5 -37 -34 -61t-67 -27q34 -5 68 -80q1 -2 5 -11q28 -69 61 -69l2 1q3 0 7 1h1v-20h-57q-28 0 -48 31q-10 16 -26 57q-15 38 -29 56q-22 29 -55 29h-6q-4 0 -8 -1h-3q-2 0 -4 -1v-114q0 -29 10 -34
q6 -3 40 -3v-20h-149v21q28 -1 35 4t7 31v267q0 20 -11 25q-6 3 -31 3v22zM325 337q8 -1 24 -4h21q92 0 92 89q0 30 -21.5 51.5t-51.5 21.5q-64 0 -64 -15v-143z" />
    <glyph glyph-name="copyright" unicode="&#xa9;" horiz-adv-x="728" 
d="M389 652h11q34 0 77 -12q113 -31 181 -118t68 -203v-10q0 -114 -67 -197.5t-179 -116.5q-50 -15 -91 -15q-46 0 -98 16q-103 32 -172 114q-73 86 -73 191v2q0 1 -1 2v5q-1 2 -1 3q0 149 97.5 243.5t247.5 94.5v1zM389 609q-123 -1 -211 -84q-91 -84 -91 -206q1 -6 2 -8
v-3q0 -117 95 -203q90 -83 212 -83h15q97 0 189 95q84 87 84 191v12q0 123 -87 205q-84 79 -208 83v1zM526 238l21 -16q-11 -48 -61 -77q-45 -27 -97 -27h-10q-7 1 -11 1q-69 9 -117.5 62t-48.5 123v18q1 8 1 12q24 173 193 173q64 0 137 -27v-100h-29q0 74 -62 94
q-19 6 -39 6h-3q-60 0 -95 -50q-31 -44 -31 -106q0 -99 53 -141q39 -31 79 -31h13q6 1 9 1q67 12 98 84v1z" />
    <glyph glyph-name="trademark" unicode="&#x2122;" 
 />
    <glyph glyph-name="plusminus" unicode="&#xb1;" horiz-adv-x="611" 
d="M409 645l28 58q6 9 26 9q2 1 5 1h7q28 0 28 -11l-43 -93q110 -127 110 -287q0 -131 -69 -224q-77 -103 -204 -103q-63 0 -125 27l-35 -63q-1 -4 -20 -7h-14q-32 4 -32 12l2 2l50 93q-107 115 -107 276q0 133 70 226q77 104 205 104q59 0 118 -21v1zM423 531l-222 -444
q50 -26 94 -26q35 0 57 11q126 62 126 248q0 120 -55 210v1zM380 581q-7 0 -11 2q-50 13 -85 13q-129 0 -169 -146q-14 -51 -14 -108q0 -117 50 -220z" />
    <glyph glyph-name="mu" unicode="&#xb5;" 
 />
    <glyph glyph-name="mu" unicode="&#x3bc;" 
 />
    <glyph glyph-name="nonbreakingspace" unicode="&#xa0;" 
 />
    <glyph glyph-name="Agrave" unicode="&#xc0;" horiz-adv-x="409" 
d="M52 316h300v-35h-300v35zM59 503q0 61 37.5 104.5t97.5 43.5q63 -6 103 -46.5t40 -102.5q0 -65 -34 -110q-37 -50 -100 -50h-12q-60 0 -98 47q-36 43 -36 104q1 5 2 7v3zM115 503q0 -46 16 -77q21 -40 63 -40t66 39q21 33 21 77q0 41 -20 70q-23 33 -62 33h-5q-3 0 -5 -1
q-72 -16 -74 -102v1z" />
    <glyph glyph-name="Atilde" unicode="&#xc3;" 
 />
    <glyph glyph-name="Otilde" unicode="&#xd5;" horiz-adv-x="810" 
d="M416 222q1 -10 5 -29q22 -103 76 -125q5 -2 11 -5q33 -12 57 -12q91 0 124 106q2 11 22 13q2 1 4 1h9q29 -5 29 -35v-6q-8 -65 -65 -105q-52 -37 -121 -37h-18q-124 0 -162 91q-18 -42 -65 -67q-43 -23 -92 -23h-14q-47 0 -92 16q-55 19 -72 53q-22 43 -22 74
q0 77 73 119q59 35 142 36l100 1v5q1 2 1 4q2 10 2 20q0 45 -31 71.5t-77 26.5q-50 0 -89 -29q16 -13 16 -37v-3q0 -2 -1 -4q-2 -19 -17 -32.5t-34 -13.5q-7 0 -35 12q-23 10 -23 39q0 17 11 42q42 95 172 95h10q6 0 10 -1q104 -10 141 -90q54 94 151 94h24
q80 0 135.5 -59.5t55.5 -140.5v-33q0 -33 -28 -33zM345 222h-63q-72 0 -102 -9q-53 -16 -67 -70q-3 -11 -3 -18q0 -37 34 -58q28 -18 67 -18q18 0 27 2q42 9 64 28q43 37 43 105v38zM689 288q0 55 -33.5 91t-87.5 36h-14q-54 0 -89 -37t-35 -91z" />
    <glyph glyph-name="ydieresis" unicode="&#xff;" horiz-adv-x="309" 
d="M80 259l50 -144q0 -1 1 -4v-13q0 -8 -8 -11q-1 -1 -2 -1h-2q-5 0 -9 3q-10 5 -15 15q-1 1 -1 2v1l-92 152l92 157q1 2 5 4l8 4q1 0 4 1h5q1 0 2 -1q12 -3 12 -16v-7zM194 259l51 -144q0 -3 2 -8v-9q0 -9 -11 -12v0h-2q-6 0 -11 4q-9 5 -14 14v2q-1 0 -1 1l-93 152l93 157
q1 2 5 4l8 4q1 0 4 1h6q1 0 2 -1q12 -3 12 -16v-7z" />
    <glyph glyph-name="Ydieresis" unicode="&#x178;" horiz-adv-x="309" 
d="M108 252l-51 154q0 12 12 12q7 0 11 -3q10 -4 14 -15l93 -148l-100 -151q-8 -19 -21 -19q-11 0 -11 15q0 13 4 17zM224 252l-52 151q-1 1 -1 2v1q0 12 12 12l12 -3q10 -6 13 -15l94 -148l-101 -151q-2 -5 -5 -8l-6 -6q-7 -5 -11 -5q-10 0 -10 15q0 4 2 10v4q1 2 1 3z" />
    <glyph glyph-name="Acircumflex" unicode="&#xc2;" horiz-adv-x="910" 
d="M94 59q0 48 54 48h7q51 0 60 -49v-8q0 -50 -57 -55h-8q-25 0 -40.5 18.5t-15.5 44.5v1zM401 59q0 48 59 48h4q51 0 60 -49v-6q0 -45 -54 -55q-2 -1 -5 -1h-12q-52 8 -52 62v1zM703 59q0 48 54 48h3q55 0 64 -49v-6q0 -51 -57 -56h-12q-52 8 -52 62v1z" />
    <glyph glyph-name="Ecircumflex" unicode="&#xca;" horiz-adv-x="1151" 
d="M801 194q0 106 68 160q35 28 85 32l12 1q1 -1 2 -1h1q75 0 117 -65q37 -56 37 -135t-35 -135q-40 -64 -114 -71h-22q-68 0 -115 66q-38 53 -38 129q0 2 1 4v8q1 1 1 3v4zM858 187q0 -59 20 -102q26 -56 78 -56h3q49 0 81 57q26 47 26 100v9q0 51 -24 90q-28 46 -76 46h-6
q-51 0 -79 -49q-23 -40 -23 -96v1zM163 2l395 636q4 9 27 9h3q19 0 19 -9v0l-394 -643q-3 -5 -20 -8q-2 -1 -5 -1h-8q-20 3 -20 10h1l1 2v2q1 0 1 1v0v1zM435 201q0 72 43 126q46 59 116 59h6q74 0 118 -62q40 -55 40 -131v-8q0 -80 -38 -135q-44 -64 -120 -64h-14
q-71 0 -114 65q-39 57 -39 131q0 2 1 4v8q1 1 1 3v4zM494 194q0 -4 -1 -11.5t-1 -11.5q0 -55 23 -92q27 -43 78 -50q13 0 20 3q45 11 69 61q20 41 20 93q0 53 -20 94q-27 56 -72 56h-10q-3 0 -5 -1q-46 -5 -74 -52q-23 -38 -27 -90v1zM7 467q0 65 40.5 117.5t103.5 58.5
q3 1 7 1h7l13 1q79 -1 124 -64q41 -56 41 -138q0 -76 -41 -136q-46 -68 -119 -68h-15q-76 0 -122 69q-41 60 -41 140v4q0 1 1 2v3q0 2 1 5v5zM71 455q0 -3 -1 -6v-8q-1 -3 -1 -5q0 -58 22 -98q27 -51 80 -51q6 0 15 2q48 10 73 63q20 42 20 98q0 53 -23 93q-27 48 -76 53
h-16q-47 -5 -72 -49q-21 -37 -21 -88v-4z" />
    <glyph glyph-name="Aacute" unicode="&#xc1;" 
 />
    <glyph glyph-name="Edieresis" unicode="&#xcb;" 
 />
    <glyph glyph-name="Egrave" unicode="&#xc8;" horiz-adv-x="590" 
d="M284 80l114 300q5 23 5 28q0 12 -14 12q-3 0 -24 -3q-1 -1 -3 -1t-3 -1q-10 -2 -20 -2h-5q-21 5 -21 37q0 30 44 30q38 0 62 -8q9 -2 17 -3l12 -3q12 0 36 6q8 0 24.5 2.5t24.5 2.5q37 0 37 -23v-3q-9 -38 -26 -38q-6 0 -14 2h-2q-2 0 -7 1h-6q-20 0 -35 -25
q-4 -6 -9 -19l-165 -392q-32 -76 -106 -127q-42 -29 -93 -29h-9q-50 0 -90 27q-46 30 -46 78q0 25 17 44.5t42 19.5q3 0 7 -1l8 -2h3q4 -2 9 -2q20 -7 25 -33v-12q-1 -3 -1 -5q-8 -29 -28 -29h-3q27 -19 60 -19h7q3 0 6 1q43 7 69 33l10 10q36 36 36 70q0 26 -11 54
l-127 329q-10 27 -34 32q-2 1 -4 1h-5q-9 0 -17 -2q-2 -1 -3 -1h-3q-12 -4 -21 -4q-19 0 -19 30q0 39 36 39q28 0 52 -8q35 -8 46 -8q19 0 39 4q2 1 13 3q32 6 47 6q38 0 38 -36q0 -30 -27 -30q-10 0 -20 2h-1q-1 0 -2 1q-4 0 -10.5 1t-10.5 1q-13 0 -13 -16q0 -2 2 -4t2 -5
zM313 574q0 21 14 34.5t35 13.5q24 0 40.5 -16t16.5 -40q0 -22 -14 -37t-36 -15h-4q-3 0 -5 1q-47 10 -47 58v1zM147 574q0 21 14.5 34.5t35.5 13.5q23 0 41 -13.5t18 -35.5q0 -52 -47 -57h-11q-5 1 -7 1q-45 11 -45 49v1q0 1 1 2v5z" />
    <glyph glyph-name="Iacute" unicode="&#xcd;" horiz-adv-x="590" 
d="M284 80l114 300q5 23 5 28q0 12 -14 12q-3 0 -24 -3q-1 -1 -3 -1t-3 -1q-10 -2 -20 -2h-5q-21 5 -21 37q0 30 44 30q38 0 62 -8q9 -2 17 -3l12 -3q12 0 36 6q8 0 24.5 2.5t24.5 2.5q37 0 37 -23v-3q-9 -38 -26 -38q-6 0 -14 2h-2q-2 0 -7 1h-6q-20 0 -35 -25
q-4 -6 -9 -19l-165 -392q-32 -76 -106 -127q-42 -29 -93 -29h-9q-50 0 -90 27q-46 30 -46 78q0 25 17 44.5t42 19.5q3 0 7 -1l8 -2h3q4 -2 9 -2q20 -7 25 -33v-12q-1 -3 -1 -5q-8 -29 -28 -29h-3q27 -19 60 -19h7q3 0 6 1q43 7 69 33l10 10q36 36 36 70q0 26 -11 54
l-127 329q-10 27 -34 32q-2 1 -4 1h-5q-9 0 -17 -2q-2 -1 -3 -1h-3q-12 -4 -21 -4q-19 0 -19 30q0 39 36 39q28 0 52 -8q35 -8 46 -8q19 0 39 4q2 1 13 3q32 6 47 6q38 0 38 -36q0 -30 -27 -30q-10 0 -20 2h-1q-1 0 -2 1q-4 0 -10.5 1t-10.5 1q-13 0 -13 -16q0 -2 2 -4t2 -5
zM313 574q0 21 14 34.5t35 13.5q24 0 40.5 -16t16.5 -40q0 -22 -14 -37t-36 -15h-4q-3 0 -5 1q-47 10 -47 58v1zM147 574q0 21 14.5 34.5t35.5 13.5q23 0 41 -13.5t18 -35.5q0 -52 -47 -57h-11q-5 1 -7 1q-45 11 -45 49v1q0 1 1 2v5z" />
    <glyph glyph-name="Icircumflex" unicode="&#xce;" horiz-adv-x="490" 
d="M334 673q6 11 27 19q3 0 6 1h9q22 -3 22 -17v-3l-272 -721q-2 -18 -30 -21h-11q-2 0 -4 1q-16 0 -25 7q-3 1 -3 4l2 2z" />
    <glyph glyph-name="Idieresis" unicode="&#xcf;" horiz-adv-x="611" 
d="M44 437l50 51l50 -51q20 22 59 35q35 12 68 12h18q4 0 9 -1q75 -8 111 -47l51 52l50 -51l-50 -50q48 -50 48 -132q0 -81 -41 -126l50 -49l-50 -50l-51 50q-46 -46 -127 -55q-4 -1 -9 -1h-16q-5 0 -9 1q-69 8 -111 54l-50 -49l-50 50l50 50q-44 57 -44 132q0 67 44 124z
M281 409q-68 -6 -109.5 -48.5t-41.5 -109.5q0 -66 42 -105t109 -39q65 0 106 39.5t41 104.5v9q0 61 -42.5 103t-104.5 45v1z" />
    <glyph glyph-name="Igrave" unicode="&#xcc;" horiz-adv-x="569" 
d="M130 252l373 -172v-71l-466 206v66l466 215v-73z" />
    <glyph glyph-name="Oacute" unicode="&#xd3;" horiz-adv-x="569" 
d="M409 252l-379 171v73l473 -215v-59l-473 -213v71z" />
    <glyph glyph-name="Ocircumflex" unicode="&#xd4;" 
 />
    <glyph glyph-name="Ograve" unicode="&#xd2;" 
 />
    <glyph glyph-name="Uacute" unicode="&#xda;" 
 />
    <glyph glyph-name="Ucircumflex" unicode="&#xdb;" horiz-adv-x="569" 
d="M123 337q0 57 39 94.5t97 41.5l15 1q62 4 109 -39.5t47 -105.5v-15q0 -67 -40 -112t-106 -45h-11q-4 0 -8 1q-67 6 -106 55q-38 46 -38 115l1 2q0 2 1 5v2z" />
    <glyph glyph-name="Ugrave" unicode="&#xd9;" 
 />
    <glyph glyph-name="glyph219" 
 />
    <glyph glyph-name="glyph220" 
 />
    <glyph glyph-name="u20AC" unicode="&#x20ac;" horiz-adv-x="636" 
d="M393 -20q91 0 163 71v109q-62 -103 -163 -103q-69 0 -121 45q-48 41 -70 109h270l26 79h-310q-1 6 -1 19t1 20h323l26 79h-334q22 70 69 116q54 53 121 53q101 0 163 -104l26 82q-78 101 -189 101q-96 0 -168 -79q-63 -68 -87 -169h-63l-26 -79h78q-1 -7 -1 -20t1 -19
h-52l-26 -79h89q23 -99 88 -162q70 -69 167 -69z" />
    <glyph glyph-name="glyph219" 
 />
    <glyph glyph-name="glyph220" 
 />
    <glyph glyph-name="glyph223" 
 />
    <glyph glyph-name="ch249" 
 />
    <glyph glyph-name="glyph225" 
 />
    <glyph glyph-name="house" unicode="&#x2302;" 
 />
    <glyph glyph-name="glyph224" 
 />
    <glyph glyph-name="sfthyphen" unicode="&#xad;" 
 />
    <glyph glyph-name="sfthyphen" unicode="&#x2212;" 
 />
    <glyph glyph-name="ch252" horiz-adv-x="288" 
d="M147 -34q2 0 10 3t12 3q31 0 57 -27q19 -19 19 -44q0 -23 -11 -34q-20 -29 -70 -31q-3 -1 -6 -1h-13q-5 0 -7 1q-63 9 -76 31q-3 3 -3 16q0 19 21 19q7 0 18 -7q13 -16 35 -21q5 -2 14 -2q43 0 43 30q0 13 -16 22.5t-30 9.5q-2 0 -8 -3h-3q-2 -2 -5 -2q-13 -5 -27 -5
q-10 0 -12 7v0v2h1q0 3 1 5l28 64h43z" />
    <glyph glyph-name="glyph222" 
 />
    <glyph glyph-name="arrowright" unicode="&#x2192;" horiz-adv-x="569" 
d="M87 172l-43 50q54 104 132 104q33 0 103 -31t94 -31q41 0 94 80l43 -49q-46 -104 -135 -104q-17 0 -68 16t-61 26q-40 18 -68 18q-41 0 -70 -44q-6 -13 -21 -36v1z" />
    <glyph glyph-name="filledbox" unicode="&#x25a0;" 
 />
    <glyph glyph-name="glyph226" 
 />
    <glyph glyph-name="glyph227" 
 />
    <glyph glyph-name="glyph228" 
 />
    <glyph glyph-name="glyph229" 
 />
    <glyph glyph-name="glyph230" 
 />
    <glyph glyph-name="glyph231" 
 />
    <glyph glyph-name="glyph232" 
 />
    <glyph glyph-name="glyph233" 
 />
    <glyph glyph-name="glyph234" 
 />
    <glyph glyph-name="glyph235" 
 />
    <glyph glyph-name="glyph236" 
 />
    <glyph glyph-name="glyph237" 
 />
    <glyph glyph-name="glyph238" 
 />
    <glyph glyph-name="glyph239" 
 />
    <glyph glyph-name="glyph240" 
 />
    <glyph glyph-name="glyph241" 
 />
    <glyph glyph-name="glyph242" 
 />
    <glyph glyph-name="glyph243" 
 />
    <glyph glyph-name="glyph244" 
 />
    <glyph glyph-name="glyph245" 
 />
    <glyph glyph-name="glyph246" 
 />
    <glyph glyph-name="glyph247" 
 />
    <glyph glyph-name="glyph248" 
 />
    <glyph glyph-name="glyph249" 
 />
    <glyph glyph-name="glyph250" 
 />
    <glyph glyph-name="glyph251" 
 />
    <glyph glyph-name="glyph252" 
 />
    <glyph glyph-name="glyph253" 
 />
    <glyph glyph-name="glyph254" 
 />
    <glyph glyph-name="glyph255" 
 />
    <glyph glyph-name="glyph256" 
 />
    <glyph glyph-name="glyph257" horiz-adv-x="500" 
 />
    <glyph glyph-name="glyph258" 
 />
    <glyph glyph-name="glyph259" 
 />
    <glyph glyph-name="glyph260" horiz-adv-x="500" 
 />
    <glyph glyph-name="glyph261" horiz-adv-x="500" 
 />
    <glyph glyph-name="glyph262" horiz-adv-x="309" 
d="M208 531l-121 50q-19 8 -25 22q-3 4 -3 12v4q0 1 1 3q10 33 38 40h10q2 -1 4 -1l10 -4q5 -2 8 -6l108 -91q16 -13 16 -26t-20 -13q-8 0 -26 9v1z" />
    <glyph glyph-name="glyph263" 
 />
    <glyph glyph-name="glyph264" 
 />
    <glyph glyph-name="glyph265" 
 />
    <glyph glyph-name="glyph266" 
 />
    <glyph glyph-name="glyph267" 
 />
    <glyph glyph-name="glyph268" 
 />
    <glyph glyph-name="glyph269" 
 />
    <glyph glyph-name="glyph270" 
 />
    <glyph glyph-name="glyph271" 
 />
    <glyph glyph-name="glyph272" 
 />
    <glyph glyph-name="glyph273" 
 />
    <glyph glyph-name="glyph274" 
 />
    <glyph glyph-name="glyph275" 
 />
    <glyph glyph-name="glyph276" 
 />
    <glyph glyph-name="glyph277" 
 />
    <glyph glyph-name="glyph278" 
 />
    <glyph glyph-name="glyph279" 
 />
    <glyph glyph-name="glyph280" 
 />
    <glyph glyph-name="glyph281" 
 />
    <glyph glyph-name="glyph282" 
 />
    <glyph glyph-name="glyph283" 
 />
    <glyph glyph-name="glyph284" 
 />
    <glyph glyph-name="glyph285" 
 />
    <glyph glyph-name="glyph286" 
 />
    <glyph glyph-name="glyph287" 
 />
    <glyph glyph-name="glyph288" 
 />
    <glyph glyph-name="glyph289" 
 />
    <glyph glyph-name="glyph290" 
 />
    <glyph glyph-name="glyph291" 
 />
    <glyph glyph-name="glyph292" 
 />
    <glyph glyph-name="glyph293" 
 />
    <glyph glyph-name="glyph294" 
 />
    <glyph glyph-name="glyph295" 
 />
    <glyph glyph-name="glyph296" 
 />
    <glyph glyph-name="glyph297" 
 />
    <glyph glyph-name="glyph298" 
 />
    <glyph glyph-name="glyph299" 
 />
    <glyph glyph-name="glyph300" 
 />
    <glyph glyph-name="glyph301" 
 />
    <glyph glyph-name="glyph302" 
 />
    <glyph glyph-name="glyph303" 
 />
    <glyph glyph-name="glyph304" 
 />
    <glyph glyph-name="glyph305" 
 />
    <glyph glyph-name="glyph306" 
 />
    <glyph glyph-name="glyph307" 
 />
    <glyph glyph-name="glyph308" 
 />
    <glyph glyph-name="glyph309" 
 />
    <glyph glyph-name="glyph310" 
 />
    <glyph glyph-name="glyph311" 
 />
    <glyph glyph-name="glyph312" 
 />
    <glyph glyph-name="glyph313" 
 />
    <glyph glyph-name="glyph314" 
 />
    <glyph glyph-name="glyph315" 
 />
    <glyph glyph-name="glyph316" 
 />
    <glyph glyph-name="glyph317" 
 />
    <glyph glyph-name="glyph318" 
 />
    <glyph glyph-name="glyph319" 
 />
    <glyph glyph-name="glyph320" 
 />
    <glyph glyph-name="glyph321" 
 />
    <glyph glyph-name="glyph322" 
 />
    <glyph glyph-name="glyph323" 
 />
    <glyph glyph-name="glyph324" 
 />
    <glyph glyph-name="glyph325" 
 />
    <glyph glyph-name="glyph326" 
 />
    <glyph glyph-name="glyph327" 
 />
    <glyph glyph-name="glyph328" 
 />
    <glyph glyph-name="glyph329" 
 />
    <glyph glyph-name="glyph330" 
 />
    <glyph glyph-name="glyph331" 
 />
    <glyph glyph-name="glyph332" 
 />
    <glyph glyph-name="glyph333" 
 />
    <glyph glyph-name="glyph334" 
 />
    <glyph glyph-name="glyph335" 
 />
    <glyph glyph-name="glyph336" 
 />
    <glyph glyph-name="glyph337" 
 />
    <glyph glyph-name="glyph338" 
 />
    <glyph glyph-name="glyph339" 
 />
    <glyph glyph-name="glyph340" 
 />
    <glyph glyph-name="glyph341" 
 />
    <glyph glyph-name="glyph342" 
 />
    <glyph glyph-name="glyph343" 
 />
    <glyph glyph-name="glyph344" 
 />
    <glyph glyph-name="glyph345" 
 />
    <glyph glyph-name="glyph346" 
 />
    <glyph glyph-name="glyph347" 
 />
    <glyph glyph-name="glyph348" 
 />
    <glyph glyph-name="glyph349" 
 />
    <glyph glyph-name="glyph350" 
 />
    <glyph glyph-name="glyph351" 
 />
    <glyph glyph-name="glyph352" 
 />
    <glyph glyph-name="glyph353" 
 />
    <glyph glyph-name="glyph354" 
 />
    <glyph glyph-name="glyph355" 
 />
    <glyph glyph-name="glyph356" 
 />
    <glyph glyph-name="glyph357" 
 />
    <glyph glyph-name="glyph358" 
 />
    <glyph glyph-name="glyph359" 
 />
    <glyph glyph-name="glyph360" 
 />
    <glyph glyph-name="glyph361" 
 />
    <glyph glyph-name="glyph362" 
 />
    <glyph glyph-name="glyph363" 
 />
    <glyph glyph-name="glyph364" 
 />
    <glyph glyph-name="glyph365" 
 />
    <glyph glyph-name="glyph366" 
 />
    <glyph glyph-name="glyph367" 
 />
    <glyph glyph-name="glyph368" 
 />
    <glyph glyph-name="glyph369" 
 />
    <glyph glyph-name="glyph370" 
 />
    <glyph glyph-name="glyph371" 
 />
    <glyph glyph-name="glyph372" 
 />
    <glyph glyph-name="glyph373" 
 />
    <glyph glyph-name="glyph374" 
 />
    <glyph glyph-name="glyph375" 
 />
    <glyph glyph-name="glyph376" 
 />
    <glyph glyph-name="glyph377" 
 />
    <glyph glyph-name="glyph378" 
 />
    <glyph glyph-name="glyph379" 
 />
    <glyph glyph-name="glyph380" 
 />
    <glyph glyph-name="glyph381" 
 />
    <glyph glyph-name="glyph382" 
 />
    <glyph glyph-name="glyph383" 
 />
    <glyph glyph-name="glyph384" 
 />
    <glyph glyph-name="glyph385" 
 />
    <glyph glyph-name="glyph386" 
 />
    <glyph glyph-name="glyph387" 
 />
    <glyph glyph-name="glyph388" 
 />
    <glyph glyph-name="glyph389" 
 />
    <glyph glyph-name="glyph390" 
 />
    <glyph glyph-name="glyph391" 
 />
    <glyph glyph-name="glyph392" 
 />
    <glyph glyph-name="glyph393" 
 />
    <glyph glyph-name="glyph394" 
 />
    <glyph glyph-name="glyph395" 
 />
    <glyph glyph-name="glyph396" 
 />
    <glyph glyph-name="glyph397" 
 />
    <glyph glyph-name="glyph398" 
 />
  </font>
</defs>
</svg>
