<?xml version="1.0" encoding="utf-8"?>
<!-- Generator: Adobe Illustrator 17.1.0, SVG Export Plug-In . SVG Version: 6.00 Build 0)  -->
<!DOCTYPE svg PUBLIC "-//W3C//DTD SVG 1.1//EN" "http://www.w3.org/Graphics/SVG/1.1/DTD/svg11.dtd">
<svg version="1.1" id="Layer_1" xmlns="http://www.w3.org/2000/svg" xmlns:xlink="http://www.w3.org/1999/xlink" x="0px" y="0px"
	 viewBox="0 0 960 560" style="enable-background:new 0 0 960 560;" xml:space="preserve">
<style type="text/css">
	.st0{opacity:0.3;}
	.st1{clip-path:url(#SVGID_2_);fill:#FFFFFF;}
	.st2{fill:#2BA780;}
	.st3{fill:#FFFFFF;}
	.st4{clip-path:url(#SVGID_4_);fill:#FFE6C6;}
	.st5{fill:#79AADB;}
	.st6{fill:#808184;}
	.st7{clip-path:url(#SVGID_6_);fill:#FFE6C6;}
	.st8{opacity:0.14;}
	.st9{clip-path:url(#SVGID_8_);}
	.st10{clip-path:url(#SVGID_10_);fill:#DFADA8;}
	.st11{opacity:0.11;}
	.st12{clip-path:url(#SVGID_12_);fill:#1D1D1B;}
	.st13{fill:#F05E5E;}
	.st14{fill:none;stroke:#000000;stroke-miterlimit:10;}
	.st15{clip-path:url(#SVGID_14_);fill:#FFFFFF;}
	.st16{fill:#3C2415;}
	.st17{clip-path:url(#SVGID_16_);fill:#A6A8AB;}
	.st18{fill:#C1B49A;}
	.st19{fill:#72675A;}
	.st20{clip-path:url(#SVGID_18_);fill:#231F20;}
	.st21{opacity:0.2;}
	.st22{clip-path:url(#SVGID_20_);}
	.st23{filter:url(#Adobe_OpacityMaskFilter);}
	.st24{clip-path:url(#SVGID_22_);fill:url(#SVGID_24_);}
	.st25{clip-path:url(#SVGID_22_);mask:url(#SVGID_23_);fill:url(#SVGID_25_);}
	.st26{opacity:0.5;}
	.st27{clip-path:url(#SVGID_27_);fill:#FFFFFF;}
	.st28{clip-path:url(#SVGID_29_);fill:#F1F2F2;}
</style>
<g>
	<g class="st0">
		<g>
			<defs>
				<rect id="SVGID_1_" x="293.6" y="305.7" width="62.9" height="18.6"/>
			</defs>
			<clipPath id="SVGID_2_">
				<use xlink:href="#SVGID_1_"  style="overflow:visible;"/>
			</clipPath>
			<path class="st1" d="M355.8,305.9l-61,16.3c-0.3,0.7-0.8,1.4-1.2,2l60-16.1c1.4-0.4,2.4-1.3,2.9-2.5
				C356.2,305.8,356,305.9,355.8,305.9"/>
		</g>
	</g>
	<path d="M326.5,208.5c0.3,1.2,0.6,2.4,1,3.6l2.9-0.8l24.2,90.3l-63.4,17c-0.1,2.1-1.5,3.9-3.6,4.5l-10.9,2.9
		c-0.4,0.1-0.8,0.2-1.3,0.2c-1.6,0-3.2-0.9-4.1-2.2l-63.4,17l-24.2-90.3l2.9-0.8c-0.3-1.2-0.6-2.4-1-3.6
		c21.9-11,45.9-17.5,70.5-18.9C278,216.4,302,209.9,326.5,208.5 M326.5,204c-0.1,0-0.2,0-0.3,0c-25,1.4-49,7.8-71.4,18.9
		c-25,1.6-48.9,8.1-71.3,19.3c-1.7,0.9-2.7,2.7-2.4,4.6c-1.6,1-2.4,3-1.9,4.9l24.2,90.3c0.3,1.2,1.1,2.1,2.1,2.7
		c0.7,0.4,1.5,0.6,2.2,0.6c0.4,0,0.8,0,1.2-0.2l61-16.3c1.6,1.1,3.5,1.7,5.4,1.7c0.8,0,1.6-0.1,2.4-0.3l10.9-2.9
		c2.7-0.7,4.9-2.7,6.1-5.1l61-16.3c2.4-0.6,3.8-3.1,3.2-5.5l-24.2-90.3c-0.3-1.2-1.1-2.1-2.1-2.7c-0.6-0.4-1.3-0.6-2-0.6
		C330,205.1,328.4,204,326.5,204"/>
	<path class="st2" d="M291,317c0.7,2.7-0.8,5.4-3.5,6.1l-10.9,2.9c-2.6,0.7-5.3-0.9-6.1-3.6c-0.7-2.7,0.8-5.4,3.5-6.1l10.9-2.9
		C287.6,312.7,290.3,314.3,291,317"/>
	
		<rect x="193.2" y="229.4" transform="matrix(0.9659 -0.2588 0.2588 0.9659 -62.2942 79.0645)" class="st2" width="151.9" height="93.5"/>
	<path class="st3" d="M280.1,317c-24.5,1.4-48.5,7.8-70.5,18.9c-8-29.9-16-59.7-24-89.6c21.9-11,45.9-17.5,70.5-18.9"/>
	<g class="st0">
		<g>
			<defs>
				<rect id="SVGID_3_" x="185.6" y="227.4" width="94.5" height="108.5"/>
			</defs>
			<clipPath id="SVGID_4_">
				<use xlink:href="#SVGID_3_"  style="overflow:visible;"/>
			</clipPath>
			<path class="st4" d="M280.1,317c-24.5,1.4-48.5,7.8-70.5,18.9c-8-29.9-16-59.7-24-89.6c21.9-11,45.9-17.5,70.5-18.9"/>
		</g>
	</g>
	<path class="st5" d="M220.5,272.7c-5.7,1.8-11.2,4-16.7,6.4c-2.3-8.6-4.6-17.2-6.9-25.7c5.5-2.4,11-4.5,16.7-6.4
		C215.9,255.5,218.2,264.1,220.5,272.7"/>
	<path class="st6" d="M248.3,242.5c-10.1,1.2-20.1,3.3-29.8,6.3c-0.3-1-0.6-2.1-0.8-3.1c9.7-2.9,19.7-5,29.8-6.3
		C247.7,240.4,248,241.5,248.3,242.5"/>
	<path class="st6" d="M249.9,248.7c-10.1,1.2-20.1,3.3-29.8,6.3c-0.3-1-0.6-2.1-0.8-3.1c9.7-2.9,19.7-5,29.8-6.3
		C249.4,246.6,249.7,247.7,249.9,248.7"/>
	<path class="st6" d="M251.6,254.9c-10.1,1.2-20.1,3.3-29.8,6.3c-0.3-1-0.6-2.1-0.8-3.1c9.7-2.9,19.7-5,29.8-6.3
		C251,252.8,251.3,253.9,251.6,254.9"/>
	<path class="st6" d="M253.3,261.1c-10.1,1.2-20.1,3.3-29.8,6.3c-0.3-1-0.6-2.1-0.8-3.1c9.7-2.9,19.7-5,29.8-6.3
		C252.7,259,253,260.1,253.3,261.1"/>
	<path class="st6" d="M254.9,267.3c-10.1,1.2-20.1,3.3-29.8,6.3c-0.3-1-0.6-2.1-0.8-3.1c9.7-2.9,19.7-5,29.8-6.3
		C254.4,265.2,254.6,266.3,254.9,267.3"/>
	<path class="st6" d="M256.6,273.5c-17.4,2.1-34.3,6.8-50.3,13.8c-0.3-1-0.6-2.1-0.8-3.1c16-7,33-11.7,50.3-13.8
		C256,271.4,256.3,272.5,256.6,273.5"/>
	<path class="st6" d="M258.2,279.7c-17.4,2.1-34.3,6.8-50.3,13.8c-0.3-1-0.6-2.1-0.8-3.1c16-7,33-11.7,50.3-13.8
		C257.7,277.6,258,278.6,258.2,279.7"/>
	<path class="st6" d="M259.9,285.9c-17.4,2.1-34.3,6.8-50.3,13.8c-0.3-1-0.6-2.1-0.8-3.1c16-7,33-11.7,50.3-13.8
		C259.3,283.8,259.6,284.8,259.9,285.9"/>
	<path class="st6" d="M261.6,292.1c-17.4,2.1-34.3,6.8-50.3,13.8c-0.3-1-0.6-2.1-0.8-3.1c16-7,33-11.7,50.3-13.8
		C261,290,261.3,291,261.6,292.1"/>
	<path class="st6" d="M263.2,298.3c-17.4,2.1-34.3,6.8-50.3,13.8c-0.3-1-0.6-2.1-0.8-3.1c16-7,33-11.7,50.3-13.8
		C262.7,296.2,262.9,297.2,263.2,298.3"/>
	<path class="st6" d="M264.9,304.5c-17.4,2.1-34.3,6.8-50.3,13.8c-0.3-1-0.6-2.1-0.8-3.1c16-7,33-11.7,50.3-13.8
		C264.3,302.4,264.6,303.4,264.9,304.5"/>
	<path class="st3" d="M350.5,298.1C326,299.5,302,306,280.1,317c-8-29.9-16-59.7-24-89.6c21.9-11,45.9-17.5,70.5-18.9
		C334.5,238.4,342.5,268.3,350.5,298.1"/>
	<g class="st0">
		<g>
			<defs>
				<rect id="SVGID_5_" x="256.1" y="208.5" width="94.5" height="108.5"/>
			</defs>
			<clipPath id="SVGID_6_">
				<use xlink:href="#SVGID_5_"  style="overflow:visible;"/>
			</clipPath>
			<path class="st7" d="M350.5,298.1C326,299.5,302,306,280.1,317c-8-29.9-16-59.7-24-89.6c21.9-11,45.9-17.5,70.5-18.9
				C334.5,238.4,342.5,268.3,350.5,298.1"/>
		</g>
	</g>
	<g class="st8">
		<g>
			<defs>
				<rect id="SVGID_7_" x="256.1" y="208.5" width="94.5" height="108.5"/>
			</defs>
			<clipPath id="SVGID_8_">
				<use xlink:href="#SVGID_7_"  style="overflow:visible;"/>
			</clipPath>
			<g class="st9">
				<g>
					<defs>
						<rect id="SVGID_9_" x="256.1" y="208.5" width="94.5" height="108.5"/>
					</defs>
					<clipPath id="SVGID_10_">
						<use xlink:href="#SVGID_9_"  style="overflow:visible;"/>
					</clipPath>
					<path class="st10" d="M350.6,298.1c-24.5,1.4-48.5,7.8-70.5,18.9c-8-29.9-16-59.7-24-89.6c21.9-11,45.9-17.5,70.5-18.9
						C334.6,238.4,342.6,268.3,350.6,298.1"/>
				</g>
			</g>
		</g>
	</g>
	<path class="st6" d="M318.7,223.6c-17.4,2.1-34.3,6.8-50.3,13.8c-0.3-1-0.6-2.1-0.8-3.1c16-7,33-11.7,50.3-13.8
		C318.2,221.6,318.5,222.6,318.7,223.6"/>
	<path class="st6" d="M320.4,229.8c-17.4,2.1-34.3,6.8-50.3,13.8c-0.3-1-0.6-2.1-0.8-3.1c16-7,33-11.7,50.3-13.8
		C319.8,227.8,320.1,228.8,320.4,229.8"/>
	<path class="st6" d="M322.1,236c-17.4,2.1-34.3,6.8-50.3,13.8c-0.3-1-0.6-2.1-0.8-3.1c16-7,33-11.7,50.3-13.8
		C321.5,234,321.8,235,322.1,236"/>
	<path class="st6" d="M323.7,242.2c-17.4,2.1-34.3,6.8-50.3,13.8c-0.3-1-0.6-2.1-0.8-3.1c16-7,33-11.7,50.3-13.8
		C323.2,240.2,323.4,241.2,323.7,242.2"/>
	<path class="st6" d="M325.4,248.4c-17.4,2.1-34.3,6.8-50.3,13.8c-0.3-1-0.6-2.1-0.8-3.1c16-7,33-11.7,50.3-13.8
		C324.8,246.3,325.1,247.4,325.4,248.4"/>
	<path class="st6" d="M327,254.6c-17.4,2.1-34.3,6.8-50.3,13.8c-0.3-1-0.6-2.1-0.8-3.1c16-7,33-11.7,50.3-13.8
		C326.5,252.5,326.8,253.6,327,254.6"/>
	<path class="st6" d="M328.7,260.8c-17.4,2.1-34.3,6.8-50.3,13.8c-0.3-1-0.6-2.1-0.8-3.1c16-7,33-11.7,50.3-13.8
		C328.1,258.7,328.4,259.8,328.7,260.8"/>
	<path class="st6" d="M330.4,267c-17.4,2.1-34.3,6.8-50.3,13.8c-0.3-1-0.6-2.1-0.8-3.1c16-7,33-11.7,50.3-13.8
		C329.8,264.9,330.1,266,330.4,267"/>
	<path class="st6" d="M332,273.2c-17.4,2.1-34.3,6.8-50.3,13.8c-0.3-1-0.6-2.1-0.8-3.1c16-7,33-11.7,50.3-13.8
		C331.5,271.1,331.7,272.2,332,273.2"/>
	<path class="st6" d="M333.7,279.4c-17.4,2.1-34.3,6.8-50.3,13.8c-0.3-1-0.6-2.1-0.8-3.1c16-7,33-11.7,50.3-13.8
		C333.1,277.3,333.4,278.4,333.7,279.4"/>
	<path class="st6" d="M335.3,285.6c-17.4,2.1-34.3,6.8-50.3,13.8c-0.3-1-0.6-2.1-0.8-3.1c16-7,33-11.7,50.3-13.8
		C334.8,283.5,335.1,284.6,335.3,285.6"/>
	<g class="st11">
		<g>
			<defs>
				<rect id="SVGID_11_" x="263.9" y="220.4" width="17" height="29.8"/>
			</defs>
			<clipPath id="SVGID_12_">
				<use xlink:href="#SVGID_11_"  style="overflow:visible;"/>
			</clipPath>
			<path class="st12" d="M280.9,247.5l-6.8-5.2l-3.3,7.9l-6.9-25.8c0,0,6-3.4,9.5-4L280.9,247.5z"/>
		</g>
	</g>
	<path class="st13" d="M279.6,247.4l-6.8-5.2l-3.3,7.9l-6.9-25.8c0,0,5.9-3.4,9.5-4L279.6,247.4z"/>
	<path class="st14" d="M279.6,247.4l-6.8-5.2l-3.3,7.9l-6.9-25.8c0,0,5.9-3.4,9.5-4L279.6,247.4z"/>
	<g class="st0">
		<g>
			<defs>
				<rect id="SVGID_13_" x="176.9" y="244.4" width="114.8" height="103.2"/>
			</defs>
			<clipPath id="SVGID_14_">
				<use xlink:href="#SVGID_13_"  style="overflow:visible;"/>
			</clipPath>
			<path class="st15" d="M288.7,327.4l-10.9,2.9c-0.8,0.2-1.6,0.3-2.4,0.3c-2,0-3.9-0.6-5.4-1.7l-61,16.3c-0.4,0.1-0.8,0.2-1.2,0.2
				c-0.8,0-1.6-0.2-2.2-0.6c-1-0.6-1.8-1.6-2.1-2.7l-24.2-90.3c-0.5-1.9,0.3-3.9,1.9-4.9c-0.1-0.9,0-1.7,0.4-2.5
				c-0.1,0-0.1,0.1-0.2,0.1c-1.7,0.9-2.7,2.7-2.4,4.6c-1.6,1-2.4,3-1.9,4.9l24.2,90.3c0.3,1.2,1.1,2.1,2.1,2.7
				c0.7,0.4,1.5,0.6,2.2,0.6c0.4,0,0.8,0,1.2-0.2l61-16.3c1.6,1.1,3.5,1.7,5.4,1.7c0.8,0,1.6-0.1,2.4-0.3l10.9-2.9
				c2.2-0.6,4-1.9,5.2-3.6C290.8,326.7,289.8,327.1,288.7,327.4"/>
		</g>
	</g>
	<path class="st16" d="M252.4,201.9c2.6,4.6,6.7,10.6,12.1,10.2c0.5,0,1-0.1,1.5-0.3c2.1-6.1,4.8-11.9,8.2-17.2c0.6-4,1-8,1.3-11.9
		c0.3-4.7,0.5-9.6-0.9-14.1c-0.8,0.8-1.7,1.6-2.5,2.5c-0.3-5.5-3.7-11.9-10-17.6l-91.7-82c-9.9-8.9-24.5-8.2-32.5,1.6
		c-7.9,9.8-5.5,24.2,5.3,32.1l99.8,71.9c6.9,5,13.9,6.9,19.4,6.1C258.5,188.8,255.1,195.2,252.4,201.9"/>
	<path class="st3" d="M353,334.4c53.3-5.7,92-53.6,86.3-106.9c-5.7-53.3-53.6-92-106.9-86.3c-22.4,2.4-42.2,12.2-57.2,26.8
		c0.9,7.8,1.6,15.8,1.1,23.6c12.9-18.6,33.6-31.7,57.9-34.3c44.5-4.7,84.3,27.5,89.1,71.9c4.7,44.5-27.5,84.3-71.9,89.1
		c-44.5,4.7-84.3-27.4-89.1-71.9c-1.3-12.1,0.2-23.8,3.8-34.6c-5.3-1.1-9.7-7.3-12.8-11.9c-6.3,14.7-9,31.2-7.2,48.2
		C251.8,301.5,299.7,340.1,353,334.4"/>
	<g class="st0">
		<g>
			<defs>
				<rect id="SVGID_15_" x="245.5" y="140.7" width="194.3" height="194.3"/>
			</defs>
			<clipPath id="SVGID_16_">
				<use xlink:href="#SVGID_15_"  style="overflow:visible;"/>
			</clipPath>
			<path class="st17" d="M353,334.4c53.3-5.7,92-53.6,86.3-106.9c-5.7-53.3-53.6-92-106.9-86.3c-22.4,2.4-42.2,12.2-57.2,26.8
				c0.9,7.8,1.6,15.8,1.1,23.6c12.9-18.6,33.6-31.7,57.9-34.3c44.5-4.7,84.3,27.5,89.1,71.9c4.7,44.5-27.5,84.3-71.9,89.1
				c-44.5,4.7-84.3-27.4-89.1-71.9c-1.3-12.1,0.2-23.8,3.8-34.6c-5.3-1.1-9.7-7.3-12.8-11.9c-6.3,14.7-9,31.2-7.2,48.2
				C251.8,301.5,299.7,340.1,353,334.4"/>
		</g>
	</g>
	<path class="st18" d="M264.9,205c0.3-0.1,6.6-1.9,6.1-33.8c-0.8-49.3-16.4-113.7-20-128h-71.1c4.6,16,5,28.6,4.6,36
		c1.5-0.8,3.4-0.4,4.4,1c1.2,1.6,0.9,3.8-0.7,5c-8.8,6.7-29.7,26.6-21.4,37.7c2.4,3.2,5.2,4.9,8.5,5.2c8.9,0.8,19.2-8.7,19.3-8.8
		c3-2.6,6.1-5.5,7.8-4.1c3.6,3.1-4.6,9.5-8.2,17.7c-2.1,4.9-3.1,10.9,1.3,15.5c3.3,3.4,6.8,4.9,10.7,4.6c5.5-0.4,10.8-4.7,14.5-7.8
		c7.3-6.2,7.3-19.1,9.1-18.3c1.9,0.8,22.1,61.2,25.5,68.7C258.3,201.3,262.8,205.5,264.9,205"/>
	<path class="st19" d="M243.7,43.2h-15.6c1.9,35.2,25.2,135.1,31.7,140.2C266.3,188.3,255.1,82.7,243.7,43.2"/>
	<path class="st19" d="M266.4,211.9c8.3-1.9,12-14.9,11.6-40.9c-0.8-48.2-15.5-110.5-19.8-127.9h-7.3c3.6,14.3,19.3,78.7,20,128
		c0.5,32-5.8,33.8-6.1,33.8c-2,0.5-6.6-3.7-9.3-9.6c-3.4-7.5-23.7-67.8-25.5-68.7c-1.9-0.8-1.8,12.1-9.1,18.3
		c-3.7,3.1-9,7.4-14.5,7.8c-3.9,0.3-7.4-1.2-10.7-4.6c-4.4-4.5-3.4-10.6-1.3-15.5v0c3.6-8.2,11.8-14.6,8.2-17.7
		c-1.7-1.4-4.8,1.5-7.8,4.1c-0.2,0.1-10.4,9.6-19.3,8.8c-3.4-0.3-6.2-2-8.5-5.2c-8.4-11.1,12.6-31,21.4-37.7c1.6-1.2,1.8-3.4,0.7-5
		c-1.2-1.6-3.4-1.9-5-0.7c-0.4,0.3-9,6.9-16.2,15.8c-5.4,6.6-10.7,15.4-9.8,23.8c0.3,2.8,1.3,5.5,3.3,8.1c3.6,4.8,8.2,7.5,13.6,8
		c4.2,0.4,8.3-0.7,12-2.3c-2.7,8.1-1.4,15.1,3.8,20.4c4.8,4.9,10.3,7.2,16.4,6.7c9.4-0.8,17.7-8.2,22.4-13.4
		c5.8,16,15.8,43.2,19.7,51.8C251.6,203.8,258.5,213.7,266.4,211.9"/>
	<path class="st19" d="M215.9,133.9c11-18.8,11.1-42.4,9.2-59.2l0,0c-0.8-8.9-3.3-21.4-6.6-31.6H208c1.2,3.9,7.5,25.2,6.5,54.9
		c-0.3,8.5-1.5,14.6-2.4,19.6c-2,11-12,25.6-8.4,28.3C207.2,148.7,215.9,133.9,215.9,133.9"/>
	<path class="st19" d="M189.6,112.9c12-13.1,22.8-32.7,13.6-69.7h-10.4c4.3,13.7,6.3,33.1-3.5,55.1c-3.9,8.8-16.5,18.4-14,21.4
		C177.8,122.7,186.9,115.8,189.6,112.9"/>
	<path class="st19" d="M183.9,86.7c0.2-0.8,3.8-17.6-3.7-43.8h-7.4c7.7,25.7,4.2,42,4.2,42.2c-0.4,1.9,0.8,3.8,2.7,4.2
		C181.5,89.8,183.4,88.6,183.9,86.7"/>
	<g>
		<g>
			<defs>
				<rect id="SVGID_17_" x="260.7" y="155.9" width="163.9" height="163.9"/>
			</defs>
			<clipPath id="SVGID_18_">
				<use xlink:href="#SVGID_17_"  style="overflow:visible;"/>
			</clipPath>
			<path class="st20" d="M342.7,156.9c0.3,0,0.7,0,1,0c44.7,0.5,80.5,37.2,80,81.9c-0.5,44.4-36.7,80-80.9,80c-0.3,0-0.6,0-1,0
				c-44.7-0.5-80.5-37.2-80-81.9C262.3,192.5,298.4,156.9,342.7,156.9 M342.7,155.9L342.7,155.9c-21.7,0-42.1,8.4-57.6,23.6
				c-15.5,15.3-24.1,35.6-24.4,57.3c-0.3,21.9,8,42.6,23.3,58.2c15.3,15.7,35.8,24.4,57.7,24.7c0.3,0,0.7,0,1,0
				c21.7,0,42.1-8.4,57.6-23.6c15.5-15.3,24.1-35.6,24.4-57.3c0.3-21.9-8-42.6-23.3-58.2c-15.3-15.7-35.8-24.4-57.7-24.7
				C343.3,155.9,343,155.9,342.7,155.9"/>
		</g>
	</g>
	<path d="M157.4,115.5L142.8,105c-10.8-7.8-13.2-22.3-5.3-32.1c4.2-5.2,10.3-7.8,16.6-7.8c5.5,0,11.2,2.1,15.9,6.3l7.2,6.4
		c0.1-1.8,0.2-3.5,0.1-5.3l-4.6-4.1c-5.2-4.7-11.8-7.3-18.6-7.3c-7.7,0-14.9,3.4-19.7,9.3c-4.4,5.4-6.3,12.2-5.3,19.1
		c1,7.3,5.1,14.1,11.4,18.7l17.2,12.4c0,0-0.3-1.6-0.4-2.7C157.2,116.7,157.4,115.5,157.4,115.5"/>
	<path d="M239.1,174.3l-23.8-17.1c-0.4,0.2-3.1,1.4-4.4,1.8l29.3,21.1c0.6,0.4,0.8,0.6,1.4,1C241.2,180,239.6,175.6,239.1,174.3"/>
	<path d="M442.7,227c-2.7-25-14.4-47.9-33.2-64.7c-18.6-16.6-42.5-25.7-67.3-25.7c-3.6,0-7.2,0.2-10.8,0.6
		c-20.2,2.2-38.9,10.1-54.3,23.1c0,0.1,0.2,3.5,0.2,5.1c14.7-13.2,33.3-22,54.5-24.2c3.5-0.4,7-0.6,10.4-0.6c49,0,91.2,37,96.5,86.8
		c5.7,53.3-32.9,101.2-86.3,106.9c-3.5,0.4-7,0.6-10.4,0.6c-49,0-91.2-37-96.5-86.8c-1.7-15.7,0.6-31.1,5.8-44.9
		c-0.1-0.3-1.9-3-2.6-4.3c-0.2,0.5-0.4,1-0.6,1.5l-0.7,1.8l0,0c-5.5,14.7-7.6,30.7-5.9,46.3c2.7,25,14.4,47.9,33.2,64.7
		c18.6,16.6,42.5,25.7,67.3,25.7c3.6,0,7.2-0.2,10.8-0.6c26.9-2.9,51-16,68-37C437.8,280.2,445.6,253.9,442.7,227"/>
	<path d="M185.4,135.7l-2.4-1.7c-1.7,0.5-3.5,0.9-5.4,1.1l7.2,5.2C184.9,138.8,185.1,137.3,185.4,135.7"/>
	<g class="st21">
		<g>
			<defs>
				<rect id="SVGID_19_" x="261.2" y="156.8" width="161.9" height="161.9"/>
			</defs>
			<clipPath id="SVGID_20_">
				<use xlink:href="#SVGID_19_"  style="overflow:visible;"/>
			</clipPath>
			<g class="st22">
				<defs>
					<path id="SVGID_21_" d="M343.1,156.8c44.7,0.5,80.5,37.2,80,81.9c-0.5,44.7-37.2,80.5-81.9,80c-44.7-0.5-80.5-37.2-80-81.9
						C261.7,192.1,298.4,156.3,343.1,156.8"/>
				</defs>
				<clipPath id="SVGID_22_">
					<use xlink:href="#SVGID_21_"  style="overflow:visible;"/>
				</clipPath>
				<defs>
					<filter id="Adobe_OpacityMaskFilter" filterUnits="userSpaceOnUse" x="241.6" y="137.2" width="201.1" height="201.1">
						<feColorMatrix  type="matrix" values="1 0 0 0 0  0 1 0 0 0  0 0 1 0 0  0 0 0 1 0"/>
					</filter>
				</defs>
				<mask maskUnits="userSpaceOnUse" x="241.6" y="137.2" width="201.1" height="201.1" id="SVGID_23_">
					<g class="st23">
						
							<radialGradient id="SVGID_24_" cx="-100.6473" cy="1286.7996" r="1" gradientTransform="matrix(-9.5371 80.3932 80.3932 9.5371 -104067.75 -3943.2202)" gradientUnits="userSpaceOnUse">
							<stop  offset="0" style="stop-color:#000000"/>
							<stop  offset="0.1028" style="stop-color:#050505"/>
							<stop  offset="0.2265" style="stop-color:#141414"/>
							<stop  offset="0.3608" style="stop-color:#2C2C2C"/>
							<stop  offset="0.5029" style="stop-color:#4E4E4E"/>
							<stop  offset="0.6511" style="stop-color:#7A7A7A"/>
							<stop  offset="0.8043" style="stop-color:#AFAFAF"/>
							<stop  offset="0.9589" style="stop-color:#EDEDED"/>
							<stop  offset="1" style="stop-color:#FFFFFF"/>
						</radialGradient>
						<polygon class="st24" points="442.7,158.5 421.3,338.3 241.6,316.9 262.9,137.2 						"/>
					</g>
				</mask>
				
					<radialGradient id="SVGID_25_" cx="-100.6473" cy="1286.7996" r="1" gradientTransform="matrix(-9.5371 80.3932 80.3932 9.5371 -104067.75 -3943.2202)" gradientUnits="userSpaceOnUse">
					<stop  offset="0" style="stop-color:#FFFFFF"/>
					<stop  offset="0.1538" style="stop-color:#FAFAFA"/>
					<stop  offset="0.3391" style="stop-color:#EBEBEC"/>
					<stop  offset="0.5407" style="stop-color:#D3D3D4"/>
					<stop  offset="0.7538" style="stop-color:#B1B1B3"/>
					<stop  offset="0.9739" style="stop-color:#868789"/>
					<stop  offset="1" style="stop-color:#808184"/>
				</radialGradient>
				<polygon class="st25" points="442.7,158.5 421.3,338.3 241.6,316.9 262.9,137.2 				"/>
			</g>
		</g>
	</g>
	<g class="st26">
		<g>
			<defs>
				<rect id="SVGID_26_" x="320.9" y="265.5" width="77.5" height="38.6"/>
			</defs>
			<clipPath id="SVGID_27_">
				<use xlink:href="#SVGID_26_"  style="overflow:visible;"/>
			</clipPath>
			<path class="st27" d="M320.9,296.5c0-0.5,0.1-1,0.2-1.5c0.8-3,3.9-4.8,6.9-4c6.5,1.7,13.2,2.2,19.9,1.5
				c16.4-1.8,31-10.7,40.1-24.4c1.7-2.6,5.2-3.3,7.9-1.6c2.6,1.7,3.3,5.2,1.6,7.9c-11,16.6-28.6,27.3-48.4,29.5
				c-8.1,0.9-16.2,0.3-24-1.8C322.6,301.3,320.9,299,320.9,296.5"/>
		</g>
	</g>
	<g class="st26">
		<g>
			<defs>
				<rect id="SVGID_28_" x="283.2" y="156.8" width="139.9" height="140.4"/>
			</defs>
			<clipPath id="SVGID_29_">
				<use xlink:href="#SVGID_28_"  style="overflow:visible;"/>
			</clipPath>
			<path class="st28" d="M397.1,297.2c18.1-16.8,28.4-41.6,25.5-68c-4.7-44.5-44.6-76.7-89.1-71.9c-20,2.1-37.5,11.4-50.3,25
				c12.3-11.4,28.3-19.1,46.3-21c44.5-4.7,84.3,27.5,89.1,71.9C421.2,257.6,412.7,280.6,397.1,297.2"/>
		</g>
	</g>
</g>
</svg>
